<svg xmlns="http://www.w3.org/2000/svg" width="512" height="512" viewBox="0 0 512 512" role="img"><rect width="512" height="512" fill="#0a0a0a"/>
<title>Lumen — Demo Logo (square)</title>
<circle cx="42.666666666666664" cy="42.666666666666664" r="21.333333333333332" fill="#10b981" fill-opacity="0.9"/>
<circle cx="42.666666666666664" cy="127.99999999999999" r="28.159999999999997" fill="#f472b6" fill-opacity="0.9"/>
<circle cx="42.666666666666664" cy="213.33333333333334" r="34.986666666666665" fill="#10b981" fill-opacity="0.9"/>
<circle cx="42.666666666666664" cy="298.6666666666667" r="21.333333333333332" fill="#f472b6" fill-opacity="0.9"/>
<circle cx="42.666666666666664" cy="384.0" r="28.159999999999997" fill="#10b981" fill-opacity="0.9"/>
<circle cx="42.666666666666664" cy="469.3333333333333" r="34.986666666666665" fill="#f472b6" fill-opacity="0.9"/>
<circle cx="127.99999999999999" cy="42.666666666666664" r="28.159999999999997" fill="#f472b6" fill-opacity="0.9"/>
<circle cx="127.99999999999999" cy="127.99999999999999" r="34.986666666666665" fill="#10b981" fill-opacity="0.9"/>
<circle cx="127.99999999999999" cy="213.33333333333334" r="21.333333333333332" fill="#f472b6" fill-opacity="0.9"/>
<circle cx="127.99999999999999" cy="298.6666666666667" r="28.159999999999997" fill="#10b981" fill-opacity="0.9"/>
<circle cx="127.99999999999999" cy="384.0" r="34.986666666666665" fill="#f472b6" fill-opacity="0.9"/>
<circle cx="127.99999999999999" cy="469.3333333333333" r="21.333333333333332" fill="#10b981" fill-opacity="0.9"/>
<circle cx="213.33333333333334" cy="42.666666666666664" r="34.986666666666665" fill="#10b981" fill-opacity="0.9"/>
<circle cx="213.33333333333334" cy="127.99999999999999" r="21.333333333333332" fill="#f472b6" fill-opacity="0.9"/>
<circle cx="213.33333333333334" cy="213.33333333333334" r="28.159999999999997" fill="#10b981" fill-opacity="0.9"/>
<circle cx="213.33333333333334" cy="298.6666666666667" r="34.986666666666665" fill="#f472b6" fill-opacity="0.9"/>
<circle cx="213.33333333333334" cy="384.0" r="21.333333333333332" fill="#10b981" fill-opacity="0.9"/>
<circle cx="213.33333333333334" cy="469.3333333333333" r="28.159999999999997" fill="#f472b6" fill-opacity="0.9"/>
<circle cx="298.6666666666667" cy="42.666666666666664" r="21.333333333333332" fill="#f472b6" fill-opacity="0.9"/>
<circle cx="298.6666666666667" cy="127.99999999999999" r="28.159999999999997" fill="#10b981" fill-opacity="0.9"/>
<circle cx="298.6666666666667" cy="213.33333333333334" r="34.986666666666665" fill="#f472b6" fill-opacity="0.9"/>
<circle cx="298.6666666666667" cy="298.6666666666667" r="21.333333333333332" fill="#10b981" fill-opacity="0.9"/>
<circle cx="298.6666666666667" cy="384.0" r="28.159999999999997" fill="#f472b6" fill-opacity="0.9"/>
<circle cx="298.6666666666667" cy="469.3333333333333" r="34.986666666666665" fill="#10b981" fill-opacity="0.9"/>
<circle cx="384.0" cy="42.666666666666664" r="28.159999999999997" fill="#10b981" fill-opacity="0.9"/>
<circle cx="384.0" cy="127.99999999999999" r="34.986666666666665" fill="#f472b6" fill-opacity="0.9"/>
<circle cx="384.0" cy="213.33333333333334" r="21.333333333333332" fill="#10b981" fill-opacity="0.9"/>
<circle cx="384.0" cy="298.6666666666667" r="28.159999999999997" fill="#f472b6" fill-opacity="0.9"/>
<circle cx="384.0" cy="384.0" r="34.986666666666665" fill="#10b981" fill-opacity="0.9"/>
<circle cx="384.0" cy="469.3333333333333" r="21.333333333333332" fill="#f472b6" fill-opacity="0.9"/>
<circle cx="469.3333333333333" cy="42.666666666666664" r="34.986666666666665" fill="#f472b6" fill-opacity="0.9"/>
<circle cx="469.3333333333333" cy="127.99999999999999" r="21.333333333333332" fill="#10b981" fill-opacity="0.9"/>
<circle cx="469.3333333333333" cy="213.33333333333334" r="28.159999999999997" fill="#f472b6" fill-opacity="0.9"/>
<circle cx="469.3333333333333" cy="298.6666666666667" r="34.986666666666665" fill="#10b981" fill-opacity="0.9"/>
<circle cx="469.3333333333333" cy="384.0" r="21.333333333333332" fill="#f472b6" fill-opacity="0.9"/>
<circle cx="469.3333333333333" cy="469.3333333333333" r="28.159999999999997" fill="#10b981" fill-opacity="0.9"/>
<path d="M 0 332.8 L 512 179.2 L 512 512 L 0 512 Z" fill="#0a0a0a" fill-opacity="0.9"/>
</svg>