<svg xmlns="http://www.w3.org/2000/svg" width="512" height="512" viewBox="0 0 512 512" role="img"><rect width="512" height="512" fill="#0b1220"/>
<title>Nimbus — Demo Logo (square)</title>
<rect x="0" y="0" width="512" height="512" rx="0" ry="0" fill="#a78bfa" fill-opacity="0.9"/>
<path d="M 0 512 L 0 512 L 0 310.00249266837744 L 8 332.402915048773 L 16 350.22393819657765 L 24 362.39741465073 L 32 368.19369674403663 L 40 367.265369855563 L 48 359.66807557225576 L 56 345.8571766716809 L 64 326.6604638184526 L 72 303.22853986656173 L 80 276.96585560816607 L 88 249.44653051320867 L 96 222.32000395374519 L 104 197.21217194211957 L 112 175.62793499911257 L 120 158.86099818859208 L 128 147.9163296785132 L 136 143.44992546777237 L 144 145.72949063021463 L 152 154.6183937434804 L 160 169.58385623401028 L 168 189.72888578939387 L 176 213.84603982936366 L 184 240.4897965877356 L 192 268.063196064034 L 200 294.9135578033173 L 208 319.4315384203864 L 216 340.1475916086533 L 224 355.82004906250285 L 232 365.5095429634277 L 240 368.63530933264826 L 248 365.0099975683801 L 256 354.85089977133157 L 264 338.7669268008061 L 272 317.72211168396234 L 280 292.9778278924092 L 288 266.01718577780923 L 296 238.45613865465268 L 304 211.94662660879345 L 312 188.0775633491089 L 320 168.27960070222463 L 328 153.73937892779753 L 336 145.32840247553338 L 344 143.55080419280137 L 352 148.5131288653156 L 360 159.9179471897218 L 368 177.08168294056748 L 376 198.97558481594666 L 384 224.28738721208603 L 392 251.49996413458652 L 400 278.9822619280189 L 408 305.0870605439765 L 416 328.2497037822009 L 424 347.0818808615895 L 432 360.45483828876667 L 440 367.56703451338205 L 448 367.9921823196632 L 456 361.70479941368734 L 464 349.081735768211 L 472 330.87958617983475 L 480 308.18934187321713 L 488 282.3709992215156 L 496 254.97204497246136 L 504 227.6347037713023 L 512 201.99750733162264 L 512 512 Z" fill="#22d3ee" fill-opacity="0.9"/>
<path d="M 0 512 L 0 512 L 0 322.8085616821308 L 8 327.662807140047 L 16 321.6070398358555 L 24 305.5631954459521 L 32 281.97380384088797 L 40 254.43013605416684 L 48 227.12546582234665 L 56 204.21668167077013 L 64 189.1914383178692 L 72 184.33719285995298 L 80 190.3929601641445 L 88 206.4368045540479 L 96 230.02619615911203 L 104 257.5698639458332 L 112 284.87453417765335 L 120 307.78331832922987 L 128 322.8085616821308 L 136 327.662807140047 L 144 321.6070398358555 L 152 305.56319544595215 L 160 281.973803840888 L 168 254.43013605416687 L 176 227.12546582234677 L 184 204.21668167077019 L 192 189.19143831786926 L 200 184.33719285995298 L 208 190.39296016414448 L 216 206.43680455404785 L 224 230.02619615911198 L 232 257.56986394583316 L 240 284.87453417765323 L 248 307.7833183292298 L 256 322.80856168213074 L 264 327.662807140047 L 272 321.6070398358555 L 280 305.56319544595215 L 288 281.973803840888 L 296 254.43013605416687 L 304 227.1254658223468 L 312 204.2166816707701 L 320 189.19143831786926 L 328 184.33719285995298 L 336 190.39296016414448 L 344 206.43680455404785 L 352 230.02619615911183 L 360 257.5698639458331 L 368 284.8745341776532 L 376 307.78331832922987 L 384 322.80856168213074 L 392 327.662807140047 L 400 321.6070398358555 L 408 305.56319544595215 L 416 281.97380384088797 L 424 254.4301360541669 L 432 227.12546582234683 L 440 204.2166816707701 L 448 189.19143831786926 L 456 184.33719285995298 L 464 190.39296016414448 L 472 206.43680455404782 L 480 230.0261961591118 L 488 257.5698639458331 L 496 284.8745341776532 L 504 307.78331832922987 L 512 322.80856168213074 L 512 512 Z" fill="#0b1220" fill-opacity="0.85"/>
</svg>