<svg xmlns="http://www.w3.org/2000/svg" xmlns:xlink="http://www.w3.org/1999/xlink" contentStyleType="text/css" data-diagram-type="CLASS" height="404px" preserveAspectRatio="none" style="width:961px;height:404px;background:#FFFFFF;" version="1.1" viewBox="0 0 961 404" width="961px" zoomAndPan="magnify"><defs/><g><!--cluster Entity--><g class="cluster" data-entity="Entity" data-source-line="8" data-uid="ent0004" id="cluster_Entity"><path d="M8.5,6 L92.3311,6 A3.75,3.75 0 0 1 94.8311,8.5 L101.8311,28.2969 L951.5,28.2969 A2.5,2.5 0 0 1 954,30.7969 L954,394.95 A2.5,2.5 0 0 1 951.5,397.45 L8.5,397.45 A2.5,2.5 0 0 1 6,394.95 L6,8.5 A2.5,2.5 0 0 1 8.5,6" fill="none" style="stroke:#000000;stroke-width:1.5;"/><line style="stroke:#000000;stroke-width:1.5;" x1="6" x2="101.8311" y1="28.2969" y2="28.2969"/><text fill="#000000" font-family="sans-serif" font-size="14" font-weight="bold" lengthAdjust="spacing" textLength="82.8311" x="10" y="20.9951">App\Entity</text></g><!--class Greeting--><g class="entity" data-entity="Greeting" data-source-line="8" data-uid="ent0002" id="entity_Greeting"><rect fill="#F1F1F1" height="50.5938" rx="2.5" ry="2.5" style="stroke:#181818;stroke-width:0.5;" width="140" x="22" y="98.04"/><text fill="#000000" font-family="sans-serif" font-size="14" lengthAdjust="spacing" textLength="60.9697" x="61.5151" y="116.0351">Greeting</text><line style="stroke:#181818;stroke-width:0.5;" x1="23" x2="161" y1="124.3369" y2="124.3369"/><rect fill="none" height="6" style="stroke:#C82930;stroke-width:1;" width="6" x="30" y="134.9853"/><text fill="#000000" font-family="sans-serif" font-size="14" lengthAdjust="spacing" textLength="93.5088" x="42" y="141.332">name : string</text></g><!--class AbstractEntity--><g class="entity" data-entity="AbstractEntity" data-source-line="11" data-uid="ent0005" id="entity_AbstractEntity"><rect fill="#F1F1F1" height="164.6719" rx="2.5" ry="2.5" style="stroke:#181818;stroke-width:0.5;" width="317.792" x="197.1" y="41"/><text fill="#000000" font-family="sans-serif" font-size="14" lengthAdjust="spacing" textLength="99.6406" x="306.1757" y="58.9951">AbstractEntity</text><line style="stroke:#181818;stroke-width:0.5;" x1="198.1" x2="513.892" y1="67.2969" y2="67.2969"/><rect fill="none" height="6" style="stroke:#C82930;stroke-width:1;" width="6" x="205.1" y="77.9453"/><text fill="#000000" font-family="sans-serif" font-size="14" lengthAdjust="spacing" textLength="291.792" x="217.1" y="84.292">id : ?Symfony\Component\Uid\Uuid = null</text><rect fill="none" height="6" style="stroke:#C82930;stroke-width:1;" width="6" x="205.1" y="94.2422"/><text fill="#000000" font-family="sans-serif" font-size="14" lengthAdjust="spacing" textLength="135.4404" x="217.1" y="100.5889">active : bool = true</text><polygon fill="none" points="208.1,108.5391,212.1,112.5391,208.1,116.5391,204.1,112.5391" style="stroke:#B38D22;stroke-width:1;"/><text fill="#000000" font-family="sans-serif" font-size="14" lengthAdjust="spacing" textLength="117.6807" x="217.1" y="116.8857">createdBy = null</text><polygon fill="none" points="208.1,124.8359,212.1,128.8359,208.1,132.8359,204.1,128.8359" style="stroke:#B38D22;stroke-width:1;"/><text fill="#000000" font-family="sans-serif" font-size="14" lengthAdjust="spacing" textLength="122.2607" x="217.1" y="133.1826">updatedBy = null</text><polygon fill="none" points="208.1,141.1328,212.1,145.1328,208.1,149.1328,204.1,145.1328" style="stroke:#B38D22;stroke-width:1;"/><text fill="#000000" font-family="sans-serif" font-size="14" lengthAdjust="spacing" textLength="114.2148" x="217.1" y="149.4795">deletedAt = null</text><polygon fill="none" points="208.1,157.4297,212.1,161.4297,208.1,165.4297,204.1,161.4297" style="stroke:#B38D22;stroke-width:1;"/><text fill="#000000" font-family="sans-serif" font-size="14" lengthAdjust="spacing" textLength="114.8574" x="217.1" y="165.7764">createdAt = null</text><polygon fill="none" points="208.1,173.7266,212.1,177.7266,208.1,181.7266,204.1,177.7266" style="stroke:#B38D22;stroke-width:1;"/><text fill="#000000" font-family="sans-serif" font-size="14" lengthAdjust="spacing" textLength="119.4375" x="217.1" y="182.0732">updatedAt = null</text><rect fill="none" height="6" style="stroke:#C82930;stroke-width:1;" width="6" x="205.1" y="192.0234"/><text fill="#000000" font-family="sans-serif" font-size="14" lengthAdjust="spacing" textLength="146.2275" x="217.1" y="198.3701">notes : ?string = null</text></g><!--class CompanyGroup--><g class="entity" data-entity="CompanyGroup" data-source-line="21" data-uid="ent0006" id="entity_CompanyGroup"><rect fill="#F1F1F1" height="83.1875" rx="2.5" ry="2.5" style="stroke:#181818;stroke-width:0.5;" width="398.3125" x="539.84" y="281.97"/><text fill="#000000" font-family="sans-serif" font-size="14" lengthAdjust="spacing" textLength="109.5322" x="684.2301" y="299.9651">CompanyGroup</text><line style="stroke:#181818;stroke-width:0.5;" x1="540.84" x2="937.1525" y1="308.2669" y2="308.2669"/><rect fill="none" height="6" style="stroke:#C82930;stroke-width:1;" width="6" x="547.84" y="318.9153"/><text fill="#000000" font-family="sans-serif" font-size="14" lengthAdjust="spacing" textLength="93.5088" x="559.84" y="325.262">name : string</text><rect fill="none" height="6" style="stroke:#C82930;stroke-width:1;" width="6" x="547.84" y="335.2122"/><text fill="#000000" font-family="sans-serif" font-size="14" lengthAdjust="spacing" textLength="141.1553" x="559.84" y="341.5589">code : ?string = null</text><rect fill="none" height="6" style="stroke:#C82930;stroke-width:1;" width="6" x="547.84" y="351.5091"/><text fill="#000000" font-family="sans-serif" font-size="14" lengthAdjust="spacing" textLength="372.3125" x="559.84" y="357.8557">companies : Doctrine\Common\Collections\Collection</text></g><!--class Company--><g class="entity" data-entity="Company" data-source-line="26" data-uid="ent0007" id="entity_Company"><rect fill="#F1F1F1" height="148.375" rx="2.5" ry="2.5" style="stroke:#181818;stroke-width:0.5;" width="387.8467" x="550.08" y="49.15"/><text fill="#000000" font-family="sans-serif" font-size="14" lengthAdjust="spacing" textLength="66.6025" x="710.7021" y="67.1451">Company</text><line style="stroke:#181818;stroke-width:0.5;" x1="551.08" x2="936.9267" y1="75.4469" y2="75.4469"/><rect fill="none" height="6" style="stroke:#C82930;stroke-width:1;" width="6" x="558.08" y="86.0953"/><text fill="#000000" font-family="sans-serif" font-size="14" lengthAdjust="spacing" textLength="93.5088" x="570.08" y="92.442">name : string</text><rect fill="none" height="6" style="stroke:#C82930;stroke-width:1;" width="6" x="558.08" y="102.3922"/><text fill="#000000" font-family="sans-serif" font-size="14" lengthAdjust="spacing" textLength="162.2373" x="570.08" y="108.7389">nameExtension : string</text><rect fill="none" height="6" style="stroke:#C82930;stroke-width:1;" width="6" x="558.08" y="118.6891"/><text fill="#000000" font-family="sans-serif" font-size="14" lengthAdjust="spacing" textLength="151.2041" x="570.08" y="125.0357">phone : ?string = null</text><rect fill="none" height="6" style="stroke:#C82930;stroke-width:1;" width="6" x="558.08" y="134.9859"/><text fill="#000000" font-family="sans-serif" font-size="14" lengthAdjust="spacing" textLength="131.4824" x="570.08" y="141.3326">cell : ?string = null</text><rect fill="none" height="6" style="stroke:#C82930;stroke-width:1;" width="6" x="558.08" y="151.2828"/><text fill="#000000" font-family="sans-serif" font-size="14" lengthAdjust="spacing" textLength="125.9111" x="570.08" y="157.6295">url : ?string = null</text><rect fill="none" height="6" style="stroke:#C82930;stroke-width:1;" width="6" x="558.08" y="167.5797"/><text fill="#000000" font-family="sans-serif" font-size="14" lengthAdjust="spacing" textLength="146.002" x="570.08" y="173.9264">email : ?string = null</text><rect fill="none" height="6" style="stroke:#C82930;stroke-width:1;" width="6" x="558.08" y="183.8766"/><text fill="#000000" font-family="sans-serif" font-size="14" lengthAdjust="spacing" textLength="361.8467" x="570.08" y="190.2232">companyGroup : ?App\Entity\CompanyGroup = null</text></g><!--class User--><g class="entity" data-entity="User" data-source-line="35" data-uid="ent0008" id="entity_User"><rect fill="#F1F1F1" height="83.1875" rx="2.5" ry="2.5" style="stroke:#181818;stroke-width:0.5;" width="200.1045" x="21.95" y="281.97"/><text fill="#000000" font-family="sans-serif" font-size="14" lengthAdjust="spacing" textLength="31.9102" x="106.0472" y="299.9651">User</text><line style="stroke:#181818;stroke-width:0.5;" x1="22.95" x2="221.0545" y1="308.2669" y2="308.2669"/><rect fill="none" height="6" style="stroke:#C82930;stroke-width:1;" width="6" x="29.95" y="318.9153"/><text fill="#000000" font-family="sans-serif" font-size="14" lengthAdjust="spacing" textLength="146.002" x="41.95" y="325.262">email : ?string = null</text><rect fill="none" height="6" style="stroke:#C82930;stroke-width:1;" width="6" x="29.95" y="335.2122"/><text fill="#000000" font-family="sans-serif" font-size="14" lengthAdjust="spacing" textLength="116.2451" x="41.95" y="341.5589">roles : array = []</text><rect fill="none" height="6" style="stroke:#C82930;stroke-width:1;" width="6" x="29.95" y="351.5091"/><text fill="#000000" font-family="sans-serif" font-size="14" lengthAdjust="spacing" textLength="174.1045" x="41.95" y="357.8557">password : ?string = null</text></g><!--class Address--><g class="entity" data-entity="Address" data-source-line="40" data-uid="ent0009" id="entity_Address"><rect fill="#F1F1F1" height="115.7813" rx="2.5" ry="2.5" style="stroke:#181818;stroke-width:0.5;" width="174.6475" x="256.68" y="265.67"/><text fill="#000000" font-family="sans-serif" font-size="14" lengthAdjust="spacing" textLength="56.3076" x="315.8499" y="283.6651">Address</text><line style="stroke:#181818;stroke-width:0.5;" x1="257.68" x2="430.3275" y1="291.9669" y2="291.9669"/><rect fill="none" height="6" style="stroke:#C82930;stroke-width:1;" width="6" x="264.68" y="302.6153"/><text fill="#000000" font-family="sans-serif" font-size="14" lengthAdjust="spacing" textLength="148.6475" x="276.68" y="308.962">street : ?string = null</text><rect fill="none" height="6" style="stroke:#C82930;stroke-width:1;" width="6" x="264.68" y="318.9122"/><text fill="#000000" font-family="sans-serif" font-size="14" lengthAdjust="spacing" textLength="127.5176" x="276.68" y="325.2589">zip : ?string = null</text><rect fill="none" height="6" style="stroke:#C82930;stroke-width:1;" width="6" x="264.68" y="335.2091"/><text fill="#000000" font-family="sans-serif" font-size="14" lengthAdjust="spacing" textLength="132.7539" x="276.68" y="341.5557">city : ?string = null</text><rect fill="none" height="6" style="stroke:#C82930;stroke-width:1;" width="6" x="264.68" y="351.5059"/><text fill="#000000" font-family="sans-serif" font-size="14" lengthAdjust="spacing" textLength="143.1855" x="276.68" y="357.8526">countryCode : string</text><rect fill="none" height="6" style="stroke:#C82930;stroke-width:1;" width="6" x="264.68" y="367.8028"/><text fill="#000000" font-family="sans-serif" font-size="14" lengthAdjust="spacing" textLength="93.5088" x="276.68" y="374.1495">name : string</text></g><!--link Company to CompanyGroup--><g class="link" data-entity-1="Company" data-entity-2="CompanyGroup" data-source-line="47" data-uid="lnk10" id="link_Company_CompanyGroup"><path codeLine="47" d="M744,197.89 C744,226.13 744,257.28 744,281.5" fill="none" id="Company-CompanyGroup" style="stroke:#181818;stroke-width:1;"/><text fill="#000000" font-family="sans-serif" font-size="13" lengthAdjust="spacing" textLength="6.5" x="737.7462" y="217.5272">*</text><text fill="#000000" font-family="sans-serif" font-size="13" lengthAdjust="spacing" textLength="8.271" x="736.1744" y="270.9876">1</text></g><!--SRC=[ZLF1QXmn3BtFLoYRMs6XWPm2fMot8VHG28IbXqu9th6oOsBBHjOadPR-U-NT3Pasdf3Js4zwajwJ9wD0ncJOI6HeeJb9R7R1m93n2mboGEkCuBNfxiqECzmPdx79zuuAAO1tX38cXCZInqdWgwErDpb_SrPwE3j_t_JE8dIEEu-7CuOa8mGCM-JSd4YF0U6M8k5jqnKkh59gBqcSZEqL8ugZ7Vnkba16CoyW2olI_7cPlTfgp7HokEuvpYhZuyqOxYADxJg6f8r8sespxMRGw0UWmNlDL9vxAFMtCNg5XGTiJg5ZL2Vif_4fynI6PF-7B7fKQ2NFq94uXOx4PqWrHL5_TSI3ggT0HLoPtT1unN585JkMq4MBBoiLl13Tlitds9KebceXadwyHnKUAK_EhxIlTYxtov-2b9Ky3QHUtQxEXDxNy86hC0RZ_BoseoaQd_DhtjPDHjwBckt1qU-zCyochFpxZw9Copn6jczQtSfQHeLA6qtM9rthyykbgiJobAlI1n8UruUj_xEBwKzIMU7YtGAMIrYSBURUrry0]--></g></svg>