<svg xmlns="http://www.w3.org/2000/svg" xmlns:xlink="http://www.w3.org/1999/xlink" contentStyleType="text/css" data-diagram-type="CLASS" height="1233px" preserveAspectRatio="none" style="width:1208px;height:1233px;background:#FFFFFF;" version="1.1" viewBox="0 0 1208 1233" width="1208px" zoomAndPan="magnify"><defs/><g><!--cluster Entity--><g class="cluster" data-entity="Entity" data-source-line="8" data-uid="ent0004" id="cluster_Entity"><path d="M8.5,6 L92.3311,6 A3.75,3.75 0 0 1 94.8311,8.5 L101.8311,28.2969 L1198.5,28.2969 A2.5,2.5 0 0 1 1201,30.7969 L1201,1215.64 A2.5,2.5 0 0 1 1198.5,1218.14 L8.5,1218.14 A2.5,2.5 0 0 1 6,1215.64 L6,8.5 A2.5,2.5 0 0 1 8.5,6" fill="none" style="stroke:#000000;stroke-width:1.5;"/><line style="stroke:#000000;stroke-width:1.5;" x1="6" x2="101.8311" y1="28.2969" y2="28.2969"/><text fill="#000000" font-family="sans-serif" font-size="14" font-weight="bold" lengthAdjust="spacing" textLength="82.8311" x="10" y="20.9951">App\Entity</text></g><!--class SystemEntity--><g class="entity" data-entity="SystemEntity" data-source-line="8" data-uid="ent0002" id="entity_SystemEntity"><rect fill="#F1F1F1" height="115.7813" rx="2.5" ry="2.5" style="stroke:#181818;stroke-width:0.5;" width="436.3613" x="374.82" y="233.08"/><text fill="#000000" font-family="sans-serif" font-size="14" lengthAdjust="spacing" textLength="93.0781" x="546.4616" y="251.0751">SystemEntity</text><line style="stroke:#181818;stroke-width:0.5;" x1="375.82" x2="810.1813" y1="259.3769" y2="259.3769"/><rect fill="none" height="6" style="stroke:#C82930;stroke-width:1;" width="6" x="382.82" y="270.0253"/><text fill="#000000" font-family="sans-serif" font-size="14" lengthAdjust="spacing" textLength="136.418" x="394.82" y="276.372">icon : ?string = null</text><rect fill="none" height="6" style="stroke:#C82930;stroke-width:1;" width="6" x="382.82" y="286.3222"/><text fill="#000000" font-family="sans-serif" font-size="14" lengthAdjust="spacing" textLength="121.8369" x="394.82" y="292.6689">name : string = ''</text><rect fill="none" height="6" style="stroke:#C82930;stroke-width:1;" width="6" x="382.82" y="302.6191"/><text fill="#000000" font-family="sans-serif" font-size="14" lengthAdjust="spacing" textLength="135.2695" x="394.82" y="308.9657">text : ?string = null</text><rect fill="none" height="6" style="stroke:#C82930;stroke-width:1;" width="6" x="382.82" y="318.9159"/><text fill="#000000" font-family="sans-serif" font-size="14" lengthAdjust="spacing" textLength="141.1553" x="394.82" y="325.2626">code : ?string = null</text><rect fill="none" height="6" style="stroke:#C82930;stroke-width:1;" width="6" x="382.82" y="335.2128"/><text fill="#000000" font-family="sans-serif" font-size="14" lengthAdjust="spacing" textLength="410.3613" x="394.82" y="341.5595">userPermissions : Doctrine\Common\Collections\Collection</text></g><!--class AbstractEntity--><g class="entity" data-entity="AbstractEntity" data-source-line="15" data-uid="ent0005" id="entity_AbstractEntity"><rect fill="#F1F1F1" height="180.9688" rx="2.5" ry="2.5" style="stroke:#181818;stroke-width:0.5;" width="317.792" x="22.1" y="200.48"/><text fill="#000000" font-family="sans-serif" font-size="14" lengthAdjust="spacing" textLength="99.6406" x="131.1757" y="218.4751">AbstractEntity</text><line style="stroke:#181818;stroke-width:0.5;" x1="23.1" x2="338.892" y1="226.7769" y2="226.7769"/><rect fill="none" height="6" style="stroke:#C82930;stroke-width:1;" width="6" x="30.1" y="237.4253"/><text fill="#000000" font-family="sans-serif" font-size="14" lengthAdjust="spacing" textLength="291.792" x="42.1" y="243.772">id : ?Symfony\Component\Uid\Uuid = null</text><rect fill="none" height="6" style="stroke:#C82930;stroke-width:1;" width="6" x="30.1" y="253.7222"/><text fill="#000000" font-family="sans-serif" font-size="14" lengthAdjust="spacing" textLength="135.4404" x="42.1" y="260.0689">active : bool = true</text><polygon fill="none" points="33.1,268.0191,37.1,272.0191,33.1,276.0191,29.1,272.0191" style="stroke:#B38D22;stroke-width:1;"/><text fill="#000000" font-family="sans-serif" font-size="14" lengthAdjust="spacing" textLength="114.2148" x="42.1" y="276.3657">deletedAt = null</text><polygon fill="none" points="33.1,284.3159,37.1,288.3159,33.1,292.3159,29.1,288.3159" style="stroke:#B38D22;stroke-width:1;"/><text fill="#000000" font-family="sans-serif" font-size="14" lengthAdjust="spacing" textLength="114.8574" x="42.1" y="292.6626">createdAt = null</text><polygon fill="none" points="33.1,300.6128,37.1,304.6128,33.1,308.6128,29.1,304.6128" style="stroke:#B38D22;stroke-width:1;"/><text fill="#000000" font-family="sans-serif" font-size="14" lengthAdjust="spacing" textLength="119.4375" x="42.1" y="308.9595">updatedAt = null</text><rect fill="none" height="6" style="stroke:#C82930;stroke-width:1;" width="6" x="30.1" y="318.9097"/><text fill="#000000" font-family="sans-serif" font-size="14" lengthAdjust="spacing" textLength="146.2275" x="42.1" y="325.2564">notes : ?string = null</text><rect fill="none" height="6" style="stroke:#C82930;stroke-width:1;" width="6" x="30.1" y="335.2066"/><text fill="#000000" font-family="sans-serif" font-size="14" lengthAdjust="spacing" textLength="248.2949" x="42.1" y="341.5532">createdBy : ?App\Entity\User = null</text><rect fill="none" height="6" style="stroke:#C82930;stroke-width:1;" width="6" x="30.1" y="351.5034"/><text fill="#000000" font-family="sans-serif" font-size="14" lengthAdjust="spacing" textLength="252.875" x="42.1" y="357.8501">updatedBy : ?App\Entity\User = null</text><rect fill="none" height="6" style="stroke:#C82930;stroke-width:1;" width="6" x="30.1" y="367.8003"/><text fill="#000000" font-family="sans-serif" font-size="14" lengthAdjust="spacing" textLength="247.6523" x="42.1" y="374.147">deletedBy : ?App\Entity\User = null</text></g><!--class UserSystemEntityPermission--><g class="entity" data-entity="UserSystemEntityPermission" data-source-line="26" data-uid="ent0006" id="entity_UserSystemEntityPermission"><rect fill="#F1F1F1" height="99.4844" rx="2.5" ry="2.5" style="stroke:#181818;stroke-width:0.5;" width="355.4238" x="669.29" y="41"/><text fill="#000000" font-family="sans-serif" font-size="14" lengthAdjust="spacing" textLength="201.2432" x="746.3803" y="58.9951">UserSystemEntityPermission</text><line style="stroke:#181818;stroke-width:0.5;" x1="670.29" x2="1023.7138" y1="67.2969" y2="67.2969"/><rect fill="none" height="6" style="stroke:#C82930;stroke-width:1;" width="6" x="677.29" y="77.9453"/><text fill="#000000" font-family="sans-serif" font-size="14" lengthAdjust="spacing" textLength="158.416" x="689.29" y="84.292">canRead : bool = false</text><rect fill="none" height="6" style="stroke:#C82930;stroke-width:1;" width="6" x="677.29" y="94.2422"/><text fill="#000000" font-family="sans-serif" font-size="14" lengthAdjust="spacing" textLength="160.2002" x="689.29" y="100.5889">canWrite : bool = false</text><rect fill="none" height="6" style="stroke:#C82930;stroke-width:1;" width="6" x="677.29" y="110.5391"/><text fill="#000000" font-family="sans-serif" font-size="14" lengthAdjust="spacing" textLength="207.3066" x="689.29" y="116.8857">user : ?App\Entity\User = null</text><rect fill="none" height="6" style="stroke:#C82930;stroke-width:1;" width="6" x="677.29" y="126.8359"/><text fill="#000000" font-family="sans-serif" font-size="14" lengthAdjust="spacing" textLength="329.4238" x="689.29" y="133.1826">systemEntity : ?App\Entity\SystemEntity = null</text></g><!--class Company--><g class="entity" data-entity="Company" data-source-line="32" data-uid="ent0007" id="entity_Company"><rect fill="#F1F1F1" height="262.4531" rx="2.5" ry="2.5" style="stroke:#181818;stroke-width:0.5;" width="398.6748" x="737.66" y="698.72"/><text fill="#000000" font-family="sans-serif" font-size="14" lengthAdjust="spacing" textLength="66.6025" x="903.6961" y="716.7151">Company</text><line style="stroke:#181818;stroke-width:0.5;" x1="738.66" x2="1135.3348" y1="725.0169" y2="725.0169"/><rect fill="none" height="6" style="stroke:#C82930;stroke-width:1;" width="6" x="745.66" y="735.6653"/><text fill="#000000" font-family="sans-serif" font-size="14" lengthAdjust="spacing" textLength="121.8369" x="757.66" y="742.012">name : string = ''</text><rect fill="none" height="6" style="stroke:#C82930;stroke-width:1;" width="6" x="745.66" y="751.9622"/><text fill="#000000" font-family="sans-serif" font-size="14" lengthAdjust="spacing" textLength="215.8242" x="757.66" y="758.3089">nameExtension : ?string = null</text><rect fill="none" height="6" style="stroke:#C82930;stroke-width:1;" width="6" x="745.66" y="768.2591"/><text fill="#000000" font-family="sans-serif" font-size="14" lengthAdjust="spacing" textLength="151.2041" x="757.66" y="774.6057">phone : ?string = null</text><rect fill="none" height="6" style="stroke:#C82930;stroke-width:1;" width="6" x="745.66" y="784.5559"/><text fill="#000000" font-family="sans-serif" font-size="14" lengthAdjust="spacing" textLength="131.4824" x="757.66" y="790.9026">cell : ?string = null</text><rect fill="none" height="6" style="stroke:#C82930;stroke-width:1;" width="6" x="745.66" y="800.8528"/><text fill="#000000" font-family="sans-serif" font-size="14" lengthAdjust="spacing" textLength="125.9111" x="757.66" y="807.1995">url : ?string = null</text><rect fill="none" height="6" style="stroke:#C82930;stroke-width:1;" width="6" x="745.66" y="817.1497"/><text fill="#000000" font-family="sans-serif" font-size="14" lengthAdjust="spacing" textLength="146.002" x="757.66" y="823.4964">email : ?string = null</text><rect fill="none" height="6" style="stroke:#C82930;stroke-width:1;" width="6" x="745.66" y="833.4466"/><text fill="#000000" font-family="sans-serif" font-size="14" lengthAdjust="spacing" textLength="148.6475" x="757.66" y="839.7932">street : ?string = null</text><rect fill="none" height="6" style="stroke:#C82930;stroke-width:1;" width="6" x="745.66" y="849.7434"/><text fill="#000000" font-family="sans-serif" font-size="14" lengthAdjust="spacing" textLength="127.5176" x="757.66" y="856.0901">zip : ?string = null</text><rect fill="none" height="6" style="stroke:#C82930;stroke-width:1;" width="6" x="745.66" y="866.0403"/><text fill="#000000" font-family="sans-serif" font-size="14" lengthAdjust="spacing" textLength="132.7539" x="757.66" y="872.387">city : ?string = null</text><rect fill="none" height="6" style="stroke:#C82930;stroke-width:1;" width="6" x="745.66" y="882.3372"/><text fill="#000000" font-family="sans-serif" font-size="14" lengthAdjust="spacing" textLength="196.7725" x="757.66" y="888.6839">countryCode : ?string = null</text><rect fill="none" height="6" style="stroke:#C82930;stroke-width:1;" width="6" x="745.66" y="898.6341"/><text fill="#000000" font-family="sans-serif" font-size="14" lengthAdjust="spacing" textLength="361.8467" x="757.66" y="904.9807">companyGroup : ?App\Entity\CompanyGroup = null</text><rect fill="none" height="6" style="stroke:#C82930;stroke-width:1;" width="6" x="745.66" y="914.9309"/><text fill="#000000" font-family="sans-serif" font-size="14" lengthAdjust="spacing" textLength="352.4678" x="757.66" y="921.2776">projects : Doctrine\Common\Collections\Collection</text><rect fill="none" height="6" style="stroke:#C82930;stroke-width:1;" width="6" x="745.66" y="931.2278"/><text fill="#000000" font-family="sans-serif" font-size="14" lengthAdjust="spacing" textLength="372.6748" x="757.66" y="937.5745">employees : Doctrine\Common\Collections\Collection</text><rect fill="none" height="6" style="stroke:#C82930;stroke-width:1;" width="6" x="745.66" y="947.5247"/><text fill="#000000" font-family="sans-serif" font-size="14" lengthAdjust="spacing" textLength="270.6826" x="757.66" y="953.8714">category : ?App\Entity\Category = null</text></g><!--class CompanyGroup--><g class="entity" data-entity="CompanyGroup" data-source-line="48" data-uid="ent0008" id="entity_CompanyGroup"><rect fill="#F1F1F1" height="83.1875" rx="2.5" ry="2.5" style="stroke:#181818;stroke-width:0.5;" width="398.3125" x="328.84" y="1070.06"/><text fill="#000000" font-family="sans-serif" font-size="14" lengthAdjust="spacing" textLength="109.5322" x="473.2301" y="1088.0551">CompanyGroup</text><line style="stroke:#181818;stroke-width:0.5;" x1="329.84" x2="726.1525" y1="1096.3569" y2="1096.3569"/><rect fill="none" height="6" style="stroke:#C82930;stroke-width:1;" width="6" x="336.84" y="1107.0053"/><text fill="#000000" font-family="sans-serif" font-size="14" lengthAdjust="spacing" textLength="121.8369" x="348.84" y="1113.352">name : string = ''</text><rect fill="none" height="6" style="stroke:#C82930;stroke-width:1;" width="6" x="336.84" y="1123.3022"/><text fill="#000000" font-family="sans-serif" font-size="14" lengthAdjust="spacing" textLength="141.1553" x="348.84" y="1129.6489">code : ?string = null</text><rect fill="none" height="6" style="stroke:#C82930;stroke-width:1;" width="6" x="336.84" y="1139.5991"/><text fill="#000000" font-family="sans-serif" font-size="14" lengthAdjust="spacing" textLength="372.3125" x="348.84" y="1145.9457">companies : Doctrine\Common\Collections\Collection</text></g><!--class Category--><g class="entity" data-entity="Category" data-source-line="53" data-uid="ent0009" id="entity_Category"><rect fill="#F1F1F1" height="180.9688" rx="2.5" ry="2.5" style="stroke:#181818;stroke-width:0.5;" width="378.7549" x="762.62" y="1021.17"/><text fill="#000000" font-family="sans-serif" font-size="14" lengthAdjust="spacing" textLength="63.9502" x="920.0223" y="1039.1651">Category</text><line style="stroke:#181818;stroke-width:0.5;" x1="763.62" x2="1140.3749" y1="1047.4669" y2="1047.4669"/><rect fill="none" height="6" style="stroke:#C82930;stroke-width:1;" width="6" x="770.62" y="1058.1153"/><text fill="#000000" font-family="sans-serif" font-size="14" lengthAdjust="spacing" textLength="99.7637" x="782.62" y="1064.462">lft : ?int = null</text><rect fill="none" height="6" style="stroke:#C82930;stroke-width:1;" width="6" x="770.62" y="1074.4122"/><text fill="#000000" font-family="sans-serif" font-size="14" lengthAdjust="spacing" textLength="101.5205" x="782.62" y="1080.7589">lvl : ?int = null</text><rect fill="none" height="6" style="stroke:#C82930;stroke-width:1;" width="6" x="770.62" y="1090.7091"/><text fill="#000000" font-family="sans-serif" font-size="14" lengthAdjust="spacing" textLength="105.5879" x="782.62" y="1097.0557">rgt : ?int = null</text><rect fill="none" height="6" style="stroke:#C82930;stroke-width:1;" width="6" x="770.62" y="1107.0059"/><text fill="#000000" font-family="sans-serif" font-size="14" lengthAdjust="spacing" textLength="141.8662" x="782.62" y="1113.3526">color : ?string = null</text><rect fill="none" height="6" style="stroke:#C82930;stroke-width:1;" width="6" x="770.62" y="1123.3028"/><text fill="#000000" font-family="sans-serif" font-size="14" lengthAdjust="spacing" textLength="136.418" x="782.62" y="1129.6495">icon : ?string = null</text><rect fill="none" height="6" style="stroke:#C82930;stroke-width:1;" width="6" x="770.62" y="1139.5997"/><text fill="#000000" font-family="sans-serif" font-size="14" lengthAdjust="spacing" textLength="121.8369" x="782.62" y="1145.9464">name : string = ''</text><rect fill="none" height="6" style="stroke:#C82930;stroke-width:1;" width="6" x="770.62" y="1155.8966"/><text fill="#000000" font-family="sans-serif" font-size="14" lengthAdjust="spacing" textLength="237.1865" x="782.62" y="1162.2432">root : ?App\Entity\Category = null</text><rect fill="none" height="6" style="stroke:#C82930;stroke-width:1;" width="6" x="770.62" y="1172.1934"/><text fill="#000000" font-family="sans-serif" font-size="14" lengthAdjust="spacing" textLength="255.0078" x="782.62" y="1178.5401">parent : ?App\Entity\Category = null</text><rect fill="none" height="6" style="stroke:#C82930;stroke-width:1;" width="6" x="770.62" y="1188.4903"/><text fill="#000000" font-family="sans-serif" font-size="14" lengthAdjust="spacing" textLength="352.7549" x="782.62" y="1194.837">children : Doctrine\Common\Collections\Collection</text></g><!--class Project--><g class="entity" data-entity="Project" data-source-line="64" data-uid="ent0010" id="entity_Project"><rect fill="#F1F1F1" height="164.6719" rx="2.5" ry="2.5" style="stroke:#181818;stroke-width:0.5;" width="302.2676" x="882.87" y="208.63"/><text fill="#000000" font-family="sans-serif" font-size="14" lengthAdjust="spacing" textLength="48.4531" x="1009.7772" y="226.6251">Project</text><line style="stroke:#181818;stroke-width:0.5;" x1="883.87" x2="1184.1376" y1="234.9269" y2="234.9269"/><rect fill="none" height="6" style="stroke:#C82930;stroke-width:1;" width="6" x="890.87" y="245.5753"/><text fill="#000000" font-family="sans-serif" font-size="14" lengthAdjust="spacing" textLength="185.9033" x="902.87" y="251.922">status : string = 'planning'</text><rect fill="none" height="6" style="stroke:#C82930;stroke-width:1;" width="6" x="890.87" y="261.8722"/><text fill="#000000" font-family="sans-serif" font-size="14" lengthAdjust="spacing" textLength="185.2334" x="902.87" y="268.2189">description : ?string = null</text><rect fill="none" height="6" style="stroke:#C82930;stroke-width:1;" width="6" x="890.87" y="278.1691"/><text fill="#000000" font-family="sans-serif" font-size="14" lengthAdjust="spacing" textLength="121.8369" x="902.87" y="284.5157">name : string = ''</text><rect fill="none" height="6" style="stroke:#C82930;stroke-width:1;" width="6" x="890.87" y="294.4659"/><text fill="#000000" font-family="sans-serif" font-size="14" lengthAdjust="spacing" textLength="276.2676" x="902.87" y="300.8126">startedAt : ?DateTimeImmutable = null</text><rect fill="none" height="6" style="stroke:#C82930;stroke-width:1;" width="6" x="890.87" y="310.7628"/><text fill="#000000" font-family="sans-serif" font-size="14" lengthAdjust="spacing" textLength="270.0332" x="902.87" y="317.1095">endedAt : ?DateTimeImmutable = null</text><rect fill="none" height="6" style="stroke:#C82930;stroke-width:1;" width="6" x="890.87" y="327.0597"/><text fill="#000000" font-family="sans-serif" font-size="14" lengthAdjust="spacing" textLength="238.8135" x="902.87" y="333.4064">assignee : ?App\Entity\User = null</text><rect fill="none" height="6" style="stroke:#C82930;stroke-width:1;" width="6" x="890.87" y="343.3566"/><text fill="#000000" font-family="sans-serif" font-size="14" lengthAdjust="spacing" textLength="249.915" x="902.87" y="349.7032">client : ?App\Entity\Company = null</text><rect fill="none" height="6" style="stroke:#C82930;stroke-width:1;" width="6" x="890.87" y="359.6534"/><text fill="#000000" font-family="sans-serif" font-size="14" lengthAdjust="spacing" textLength="270.6826" x="902.87" y="366.0001">category : ?App\Entity\Category = null</text></g><!--class User--><g class="entity" data-entity="User" data-source-line="74" data-uid="ent0011" id="entity_User"><rect fill="#F1F1F1" height="197.2656" rx="2.5" ry="2.5" style="stroke:#181818;stroke-width:0.5;" width="497.3105" x="453.34" y="441.45"/><text fill="#000000" font-family="sans-serif" font-size="14" lengthAdjust="spacing" textLength="31.9102" x="686.0402" y="459.4451">User</text><line style="stroke:#181818;stroke-width:0.5;" x1="454.34" x2="949.6505" y1="467.7469" y2="467.7469"/><rect fill="none" height="6" style="stroke:#C82930;stroke-width:1;" width="6" x="461.34" y="478.3953"/><text fill="#000000" font-family="sans-serif" font-size="14" lengthAdjust="spacing" textLength="146.002" x="473.34" y="484.742">email : ?string = null</text><rect fill="none" height="6" style="stroke:#C82930;stroke-width:1;" width="6" x="461.34" y="494.6922"/><text fill="#000000" font-family="sans-serif" font-size="14" lengthAdjust="spacing" textLength="116.2451" x="473.34" y="501.0389">roles : array = []</text><rect fill="none" height="6" style="stroke:#C82930;stroke-width:1;" width="6" x="461.34" y="510.9891"/><text fill="#000000" font-family="sans-serif" font-size="14" lengthAdjust="spacing" textLength="174.1045" x="473.34" y="517.3357">password : ?string = null</text><rect fill="none" height="6" style="stroke:#C82930;stroke-width:1;" width="6" x="461.34" y="527.2859"/><text fill="#000000" font-family="sans-serif" font-size="14" lengthAdjust="spacing" textLength="151.2041" x="473.34" y="533.6326">phone : ?string = null</text><rect fill="none" height="6" style="stroke:#C82930;stroke-width:1;" width="6" x="461.34" y="543.5828"/><text fill="#000000" font-family="sans-serif" font-size="14" lengthAdjust="spacing" textLength="131.4824" x="473.34" y="549.9295">cell : ?string = null</text><rect fill="none" height="6" style="stroke:#C82930;stroke-width:1;" width="6" x="461.34" y="559.8797"/><text fill="#000000" font-family="sans-serif" font-size="14" lengthAdjust="spacing" textLength="125.9111" x="473.34" y="566.2264">url : ?string = null</text><rect fill="none" height="6" style="stroke:#C82930;stroke-width:1;" width="6" x="461.34" y="576.1766"/><text fill="#000000" font-family="sans-serif" font-size="14" lengthAdjust="spacing" textLength="352.4678" x="473.34" y="582.5232">projects : Doctrine\Common\Collections\Collection</text><rect fill="none" height="6" style="stroke:#C82930;stroke-width:1;" width="6" x="461.34" y="592.4734"/><text fill="#000000" font-family="sans-serif" font-size="14" lengthAdjust="spacing" textLength="275.9873" x="473.34" y="598.8201">company : ?App\Entity\Company = null</text><rect fill="none" height="6" style="stroke:#C82930;stroke-width:1;" width="6" x="461.34" y="608.7703"/><text fill="#000000" font-family="sans-serif" font-size="14" lengthAdjust="spacing" textLength="471.3105" x="473.34" y="615.117">systemEntityPermissions : Doctrine\Common\Collections\Collection</text><rect fill="none" height="6" style="stroke:#C82930;stroke-width:1;" width="6" x="461.34" y="625.0672"/><text fill="#000000" font-family="sans-serif" font-size="14" lengthAdjust="spacing" textLength="270.6826" x="473.34" y="631.4139">category : ?App\Entity\Category = null</text></g><!--link SystemEntity to User--><g class="link" data-entity-1="SystemEntity" data-entity-2="User" data-source-line="86" data-uid="lnk12" id="link_SystemEntity_User"><path codeLine="86" d="M542.8,349.06 C542.8,376.52 542.8,404.08 542.8,435.36" fill="none" id="SystemEntity-to-User" style="stroke:#181818;stroke-width:1;"/><polygon fill="#181818" points="542.8,441.36,546.8,432.36,542.8,436.36,538.8,432.36,542.8,441.36" style="stroke:#181818;stroke-width:1;"/><text fill="#000000" font-family="sans-serif" font-size="13" lengthAdjust="spacing" textLength="6.5" x="530.3466" y="369.1287">*</text><text fill="#000000" font-family="sans-serif" font-size="13" lengthAdjust="spacing" textLength="8.271" x="522.3157" y="430.2993">1</text></g><!--link SystemEntity to User--><g class="link" data-entity-1="SystemEntity" data-entity-2="User" data-source-line="87" data-uid="lnk13" id="link_SystemEntity_User"><path codeLine="87" d="M632.26,349.06 C632.26,376.52 632.26,404.08 632.26,435.36" fill="none" id="SystemEntity-to-User-1" style="stroke:#181818;stroke-width:1;"/><polygon fill="#181818" points="632.26,441.36,636.26,432.36,632.26,436.36,628.26,432.36,632.26,441.36" style="stroke:#181818;stroke-width:1;"/><text fill="#000000" font-family="sans-serif" font-size="13" lengthAdjust="spacing" textLength="6.5" x="630.7096" y="369.1287">*</text><text fill="#000000" font-family="sans-serif" font-size="13" lengthAdjust="spacing" textLength="8.271" x="618.625" y="430.2993">1</text></g><!--link SystemEntity to User--><g class="link" data-entity-1="SystemEntity" data-entity-2="User" data-source-line="88" data-uid="lnk14" id="link_SystemEntity_User"><path codeLine="88" d="M721.72,349.06 C721.72,376.52 721.72,404.08 721.72,435.36" fill="none" id="SystemEntity-to-User-2" style="stroke:#181818;stroke-width:1;"/><polygon fill="#181818" points="721.72,441.36,725.72,432.36,721.72,436.36,717.72,432.36,721.72,441.36" style="stroke:#181818;stroke-width:1;"/><text fill="#000000" font-family="sans-serif" font-size="13" lengthAdjust="spacing" textLength="6.5" x="731.0725" y="369.1287">*</text><text fill="#000000" font-family="sans-serif" font-size="13" lengthAdjust="spacing" textLength="8.271" x="714.9343" y="430.2993">1</text></g><!--link AbstractEntity to User--><g class="link" data-entity-1="AbstractEntity" data-entity-2="User" data-source-line="89" data-uid="lnk15" id="link_AbstractEntity_User"><path codeLine="89" d="M337.13,381.68 C337.13,434.65 337.13,491.14 337.13,491.14 C337.13,491.14 382.71,491.14 447.08,491.14" fill="none" id="AbstractEntity-to-User" style="stroke:#181818;stroke-width:1;"/><polygon fill="#181818" points="453.08,491.14,444.08,487.14,448.08,491.14,444.08,495.14,453.08,491.14" style="stroke:#181818;stroke-width:1;"/><text fill="#000000" font-family="sans-serif" font-size="13" lengthAdjust="spacing" textLength="6.5" x="347.8386" y="400.3502">*</text><text fill="#000000" font-family="sans-serif" font-size="13" lengthAdjust="spacing" textLength="8.271" x="436.7857" y="486.357">1</text></g><!--link AbstractEntity to User--><g class="link" data-entity-1="AbstractEntity" data-entity-2="User" data-source-line="90" data-uid="lnk16" id="link_AbstractEntity_User"><path codeLine="90" d="M334.37,381.63 C334.37,452.87 334.37,540.14 334.37,540.14 C334.37,540.14 381.29,540.14 446.97,540.14" fill="none" id="AbstractEntity-to-User-1" style="stroke:#181818;stroke-width:1;"/><polygon fill="#181818" points="452.97,540.14,443.97,536.14,447.97,540.14,443.97,544.14,452.97,540.14" style="stroke:#181818;stroke-width:1;"/><text fill="#000000" font-family="sans-serif" font-size="13" lengthAdjust="spacing" textLength="6.5" x="340.3729" y="401.5248">*</text><text fill="#000000" font-family="sans-serif" font-size="13" lengthAdjust="spacing" textLength="8.271" x="437.4623" y="536.9879">1</text></g><!--link AbstractEntity to User--><g class="link" data-entity-1="AbstractEntity" data-entity-2="User" data-source-line="91" data-uid="lnk17" id="link_AbstractEntity_User"><path codeLine="91" d="M331.61,381.95 C331.61,469.97 331.61,590.14 331.61,590.14 C331.61,590.14 379.89,590.14 446.89,590.14" fill="none" id="AbstractEntity-to-User-2" style="stroke:#181818;stroke-width:1;"/><polygon fill="#181818" points="452.89,590.14,443.89,586.14,447.89,590.14,443.89,594.14,452.89,590.14" style="stroke:#181818;stroke-width:1;"/><text fill="#000000" font-family="sans-serif" font-size="13" lengthAdjust="spacing" textLength="6.5" x="336.9308" y="401.5623">*</text><text fill="#000000" font-family="sans-serif" font-size="13" lengthAdjust="spacing" textLength="8.271" x="437.38" y="588.4723">1</text></g><!--link UserSystemEntityPermission to User--><g class="link" data-entity-1="UserSystemEntityPermission" data-entity-2="User" data-source-line="92" data-uid="lnk18" id="link_UserSystemEntityPermission_User"><path codeLine="92" d="M825.52,140.98 C825.52,213.35 825.52,342.41 825.52,435.22" fill="none" id="UserSystemEntityPermission-to-User" style="stroke:#181818;stroke-width:1;"/><polygon fill="#181818" points="825.52,441.22,829.52,432.22,825.52,436.22,821.52,432.22,825.52,441.22" style="stroke:#181818;stroke-width:1;"/><text fill="#000000" font-family="sans-serif" font-size="13" lengthAdjust="spacing" textLength="6.5" x="816.4153" y="160.4531">*</text><text fill="#000000" font-family="sans-serif" font-size="13" lengthAdjust="spacing" textLength="8.271" x="826.3075" y="430.4808">1</text></g><!--link UserSystemEntityPermission to User--><g class="link" data-entity-1="UserSystemEntityPermission" data-entity-2="User" data-source-line="93" data-uid="lnk19" id="link_UserSystemEntityPermission_User"><path codeLine="93" d="M839.85,140.98 C839.85,213.35 839.85,342.41 839.85,435.22" fill="none" id="UserSystemEntityPermission-to-User-1" style="stroke:#181818;stroke-width:1;"/><polygon fill="#181818" points="839.85,441.22,843.85,432.22,839.85,436.22,835.85,432.22,839.85,441.22" style="stroke:#181818;stroke-width:1;"/><text fill="#000000" font-family="sans-serif" font-size="13" lengthAdjust="spacing" textLength="6.5" x="832.5813" y="160.4531">*</text><text fill="#000000" font-family="sans-serif" font-size="13" lengthAdjust="spacing" textLength="8.271" x="841.6899" y="430.4808">1</text></g><!--link UserSystemEntityPermission to User--><g class="link" data-entity-1="UserSystemEntityPermission" data-entity-2="User" data-source-line="94" data-uid="lnk20" id="link_UserSystemEntityPermission_User"><path codeLine="94" d="M854.19,140.98 C854.19,213.35 854.19,342.41 854.19,435.22" fill="none" id="UserSystemEntityPermission-to-User-2" style="stroke:#181818;stroke-width:1;"/><polygon fill="#181818" points="854.19,441.22,858.19,432.22,854.19,436.22,850.19,432.22,854.19,441.22" style="stroke:#181818;stroke-width:1;"/><text fill="#000000" font-family="sans-serif" font-size="13" lengthAdjust="spacing" textLength="6.5" x="848.7586" y="160.4531">*</text><text fill="#000000" font-family="sans-serif" font-size="13" lengthAdjust="spacing" textLength="8.271" x="857.083" y="430.4808">1</text></g><!--link UserSystemEntityPermission to User--><g class="link" data-entity-1="UserSystemEntityPermission" data-entity-2="User" data-source-line="95" data-uid="lnk21" id="link_UserSystemEntityPermission_User"><path codeLine="95" d="M868.53,140.98 C868.53,213.35 868.53,348.41 868.53,441.22" fill="none" id="UserSystemEntityPermission-User" style="stroke:#181818;stroke-width:1;"/><text fill="#000000" font-family="sans-serif" font-size="13" lengthAdjust="spacing" textLength="6.5" x="864.9359" y="160.4531">*</text><text fill="#000000" font-family="sans-serif" font-size="13" lengthAdjust="spacing" textLength="8.271" x="872.4761" y="430.4808">1</text></g><!--link UserSystemEntityPermission to SystemEntity--><g class="link" data-entity-1="UserSystemEntityPermission" data-entity-2="SystemEntity" data-source-line="96" data-uid="lnk22" id="link_UserSystemEntityPermission_SystemEntity"><path codeLine="96" d="M740.23,140.75 C740.23,168.67 740.23,203.58 740.23,232.73" fill="none" id="UserSystemEntityPermission-SystemEntity" style="stroke:#181818;stroke-width:1;"/><text fill="#000000" font-family="sans-serif" font-size="13" lengthAdjust="spacing" textLength="6.5" x="719.513" y="160.5534">*</text><text fill="#000000" font-family="sans-serif" font-size="13" lengthAdjust="spacing" textLength="8.271" x="748.8066" y="222.2033">1</text></g><!--link Company to User--><g class="link" data-entity-1="Company" data-entity-2="User" data-source-line="97" data-uid="lnk23" id="link_Company_User"><path codeLine="97" d="M764.29,698.58 C764.29,678.51 764.29,664.09 764.29,644.88" fill="none" id="Company-to-User" style="stroke:#181818;stroke-width:1;"/><polygon fill="#181818" points="764.29,638.88,760.29,647.88,764.29,643.88,768.29,647.88,764.29,638.88" style="stroke:#181818;stroke-width:1;"/><text fill="#000000" font-family="sans-serif" font-size="13" lengthAdjust="spacing" textLength="6.5" x="748.1464" y="687.6225">*</text><text fill="#000000" font-family="sans-serif" font-size="13" lengthAdjust="spacing" textLength="8.271" x="760.581" y="658.758">1</text></g><!--link Company to User--><g class="link" data-entity-1="Company" data-entity-2="User" data-source-line="98" data-uid="lnk24" id="link_Company_User"><path codeLine="98" d="M790.91,698.58 C790.91,678.51 790.91,664.09 790.91,644.88" fill="none" id="Company-to-User-1" style="stroke:#181818;stroke-width:1;"/><polygon fill="#181818" points="790.91,638.88,786.91,647.88,790.91,643.88,794.91,647.88,790.91,638.88" style="stroke:#181818;stroke-width:1;"/><text fill="#000000" font-family="sans-serif" font-size="13" lengthAdjust="spacing" textLength="6.5" x="776.3053" y="687.6225">*</text><text fill="#000000" font-family="sans-serif" font-size="13" lengthAdjust="spacing" textLength="8.271" x="789.1559" y="658.758">1</text></g><!--link Company to User--><g class="link" data-entity-1="Company" data-entity-2="User" data-source-line="99" data-uid="lnk25" id="link_Company_User"><path codeLine="99" d="M817.53,698.58 C817.53,678.51 817.53,664.09 817.53,644.88" fill="none" id="Company-to-User-2" style="stroke:#181818;stroke-width:1;"/><polygon fill="#181818" points="817.53,638.88,813.53,647.88,817.53,643.88,821.53,647.88,817.53,638.88" style="stroke:#181818;stroke-width:1;"/><text fill="#000000" font-family="sans-serif" font-size="13" lengthAdjust="spacing" textLength="6.5" x="804.4643" y="687.6225">*</text><text fill="#000000" font-family="sans-serif" font-size="13" lengthAdjust="spacing" textLength="8.271" x="817.7308" y="658.758">1</text></g><!--link User to Company--><g class="link" data-entity-1="User" data-entity-2="Company" data-source-line="119" data-uid="lnk45" id="link_User_Company"><path codeLine="119" d="M844.16,639.03 C844.16,658.13 844.16,678.43 844.16,698.39" fill="none" id="User-Company" style="stroke:#181818;stroke-width:1;"/><text fill="#000000" font-family="sans-serif" font-size="13" lengthAdjust="spacing" textLength="6.5" x="848.3983" y="658.919">*</text><text fill="#000000" font-family="sans-serif" font-size="13" lengthAdjust="spacing" textLength="8.271" x="830.8716" y="687.8559">1</text></g><!--link Company to CompanyGroup--><g class="link" data-entity-1="Company" data-entity-2="CompanyGroup" data-source-line="100" data-uid="lnk26" id="link_Company_CompanyGroup"><path codeLine="100" d="M743.9,961.54 C743.9,1035.11 743.9,1112.14 743.9,1112.14 C743.9,1112.14 737.67,1112.14 727.32,1112.14" fill="none" id="Company-CompanyGroup" style="stroke:#181818;stroke-width:1;"/><text fill="#000000" font-family="sans-serif" font-size="13" lengthAdjust="spacing" textLength="6.5" x="727.1896" y="981.2172">*</text><text fill="#000000" font-family="sans-serif" font-size="13" lengthAdjust="spacing" textLength="8.271" x="735.2676" y="1108.9355">1</text></g><!--link Company to Category--><g class="link" data-entity-1="Company" data-entity-2="Category" data-source-line="101" data-uid="lnk27" id="link_Company_Category"><path codeLine="101" d="M1042.91,961.32 C1042.91,981.4 1042.91,995.74 1042.91,1014.69" fill="none" id="Company-to-Category" style="stroke:#181818;stroke-width:1;"/><polygon fill="#181818" points="1042.91,1020.69,1046.91,1011.69,1042.91,1015.69,1038.91,1011.69,1042.91,1020.69" style="stroke:#181818;stroke-width:1;"/><text fill="#000000" font-family="sans-serif" font-size="13" lengthAdjust="spacing" textLength="6.5" x="1042.8741" y="981.4194">*</text><text fill="#000000" font-family="sans-serif" font-size="13" lengthAdjust="spacing" textLength="8.271" x="1041.5746" y="1010.2233">1</text></g><!--link CompanyGroup to User--><g class="link" data-entity-1="CompanyGroup" data-entity-2="User" data-source-line="102" data-uid="lnk28" id="link_CompanyGroup_User"><path codeLine="102" d="M521.8,1069.63 C521.8,979.52 521.8,771.68 521.8,645.02" fill="none" id="CompanyGroup-to-User" style="stroke:#181818;stroke-width:1;"/><polygon fill="#181818" points="521.8,639.02,517.8,648.02,521.8,644.02,525.8,648.02,521.8,639.02" style="stroke:#181818;stroke-width:1;"/><text fill="#000000" font-family="sans-serif" font-size="13" lengthAdjust="spacing" textLength="6.5" x="514.4301" y="1059.1237">*</text><text fill="#000000" font-family="sans-serif" font-size="13" lengthAdjust="spacing" textLength="8.271" x="500.2831" y="658.9083">1</text></g><!--link CompanyGroup to User--><g class="link" data-entity-1="CompanyGroup" data-entity-2="User" data-source-line="103" data-uid="lnk29" id="link_CompanyGroup_User"><path codeLine="103" d="M590.25,1069.63 C590.25,979.52 590.25,771.68 590.25,645.02" fill="none" id="CompanyGroup-to-User-1" style="stroke:#181818;stroke-width:1;"/><polygon fill="#181818" points="590.25,639.02,586.25,648.02,590.25,644.02,594.25,648.02,590.25,639.02" style="stroke:#181818;stroke-width:1;"/><text fill="#000000" font-family="sans-serif" font-size="13" lengthAdjust="spacing" textLength="6.5" x="593.3615" y="1059.1237">*</text><text fill="#000000" font-family="sans-serif" font-size="13" lengthAdjust="spacing" textLength="8.271" x="573.7599" y="658.9083">1</text></g><!--link CompanyGroup to User--><g class="link" data-entity-1="CompanyGroup" data-entity-2="User" data-source-line="104" data-uid="lnk30" id="link_CompanyGroup_User"><path codeLine="104" d="M658.7,1069.63 C658.7,979.52 658.7,771.68 658.7,645.02" fill="none" id="CompanyGroup-to-User-2" style="stroke:#181818;stroke-width:1;"/><polygon fill="#181818" points="658.7,639.02,654.7,648.02,658.7,644.02,662.7,648.02,658.7,639.02" style="stroke:#181818;stroke-width:1;"/><text fill="#000000" font-family="sans-serif" font-size="13" lengthAdjust="spacing" textLength="6.5" x="672.2929" y="1059.1237">*</text><text fill="#000000" font-family="sans-serif" font-size="13" lengthAdjust="spacing" textLength="8.271" x="647.2367" y="658.9083">1</text></g><!--link Category to User--><g class="link" data-entity-1="Category" data-entity-2="User" data-source-line="105" data-uid="lnk31" id="link_Category_User"><path codeLine="105" d="M762.12,1061.14 C742.32,1061.14 729.26,1061.14 729.26,1061.14 C729.26,1061.14 729.26,796.13 729.26,645.01" fill="none" id="Category-to-User" style="stroke:#181818;stroke-width:1;"/><polygon fill="#181818" points="729.26,639.01,725.26,648.01,729.26,644.01,733.26,648.01,729.26,639.01" style="stroke:#181818;stroke-width:1;"/><text fill="#000000" font-family="sans-serif" font-size="13" lengthAdjust="spacing" textLength="6.5" x="747.9935" y="1055.7622">*</text><text fill="#000000" font-family="sans-serif" font-size="13" lengthAdjust="spacing" textLength="8.271" x="722.9785" y="658.8975">1</text></g><!--link Category to User--><g class="link" data-entity-1="Category" data-entity-2="User" data-source-line="106" data-uid="lnk32" id="link_Category_User"><path codeLine="106" d="M762.5,1051.14 C743.68,1051.14 731.36,1051.14 731.36,1051.14 C731.36,1051.14 731.36,793.49 731.36,644.92" fill="none" id="Category-to-User-1" style="stroke:#181818;stroke-width:1;"/><polygon fill="#181818" points="731.36,638.92,727.36,647.92,731.36,643.92,735.36,647.92,731.36,638.92" style="stroke:#181818;stroke-width:1;"/><text fill="#000000" font-family="sans-serif" font-size="13" lengthAdjust="spacing" textLength="6.5" x="748.3896" y="1045.3403">*</text><text fill="#000000" font-family="sans-serif" font-size="13" lengthAdjust="spacing" textLength="8.271" x="733.8202" y="658.8009">1</text></g><!--link Category to User--><g class="link" data-entity-1="Category" data-entity-2="User" data-source-line="107" data-uid="lnk33" id="link_Category_User"><path codeLine="107" d="M762.48,1041.14 C744.87,1041.14 733.46,1041.14 733.46,1041.14 C733.46,1041.14 733.46,791.1 733.46,645.08" fill="none" id="Category-to-User-2" style="stroke:#181818;stroke-width:1;"/><polygon fill="#181818" points="733.46,639.08,729.46,648.08,733.46,644.08,737.46,648.08,733.46,639.08" style="stroke:#181818;stroke-width:1;"/><text fill="#000000" font-family="sans-serif" font-size="13" lengthAdjust="spacing" textLength="6.5" x="748.3687" y="1034.9185">*</text><text fill="#000000" font-family="sans-serif" font-size="13" lengthAdjust="spacing" textLength="8.271" x="727.4006" y="658.6396">1</text></g><!--link User to Category--><g class="link" data-entity-1="User" data-entity-2="Category" data-source-line="120" data-uid="lnk46" id="link_User_Category"><path codeLine="120" d="M735.56,639.16 C735.56,782.6 735.56,1031.14 735.56,1031.14 C735.56,1031.14 740.1,1031.14 756.54,1031.14" fill="none" id="User-to-Category" style="stroke:#181818;stroke-width:1;"/><polygon fill="#181818" points="762.54,1031.14,753.54,1027.14,757.54,1031.14,753.54,1035.14,762.54,1031.14" style="stroke:#181818;stroke-width:1;"/><text fill="#000000" font-family="sans-serif" font-size="13" lengthAdjust="spacing" textLength="6.5" x="738.1485" y="658.7253">*</text><text fill="#000000" font-family="sans-serif" font-size="13" lengthAdjust="spacing" textLength="8.271" x="746.3842" y="1024.4966">1</text></g><!--link Category to Category--><g class="link" data-entity-1="Category" data-entity-2="Category" data-source-line="108" data-uid="lnk34" id="link_Category_Category"><path codeLine="108" d="M856.05,1020.72 C856.05,1009.64 856.05,1002.14 856.05,1002.14 C856.05,1002.14 756.38,1002.14 756.38,1002.14 C756.38,1002.14 756.38,1214.14 756.38,1214.14 C756.38,1214.14 888.87,1214.14 888.87,1214.14 C888.87,1214.14 888.87,1215.58 888.87,1208.38" fill="none" id="Category-to-Category" style="stroke:#181818;stroke-width:1;"/><polygon fill="#181818" points="888.87,1202.38,884.87,1211.38,888.87,1207.38,892.87,1211.38,888.87,1202.38" style="stroke:#181818;stroke-width:1;"/><text fill="#000000" font-family="sans-serif" font-size="13" lengthAdjust="spacing" textLength="6.5" x="842.4935" y="1010.2556">*</text><text fill="#000000" font-family="sans-serif" font-size="13" lengthAdjust="spacing" textLength="8.271" x="875.5316" y="1222.2795">1</text></g><!--link Category to Category--><g class="link" data-entity-1="Category" data-entity-2="Category" data-source-line="109" data-uid="lnk35" id="link_Category_Category"><path codeLine="109" d="M949.48,1021 C949.48,999.23 949.48,982.14 949.48,982.14 C949.48,982.14 750.14,982.14 750.14,982.14 C750.14,982.14 750.14,1226.14 750.14,1226.14 C750.14,1226.14 1015.13,1226.14 1015.13,1226.14 C1015.13,1226.14 1015.13,1216.31 1015.13,1202.42" fill="none" id="Category-Category" style="stroke:#181818;stroke-width:1;"/><text fill="#000000" font-family="sans-serif" font-size="13" lengthAdjust="spacing" textLength="6.5" x="943.0603" y="1010.2505">*</text><text fill="#000000" font-family="sans-serif" font-size="13" lengthAdjust="spacing" textLength="8.271" x="1011.8529" y="1222.3227">1</text></g><!--link Project to User--><g class="link" data-entity-1="Project" data-entity-2="User" data-source-line="110" data-uid="lnk36" id="link_Project_User"><path codeLine="110" d="M891.34,373.57 C891.34,395.24 891.34,412.83 891.34,435.26" fill="none" id="Project-to-User" style="stroke:#181818;stroke-width:1;"/><polygon fill="#181818" points="891.34,441.26,895.34,432.26,891.34,436.26,887.34,432.26,891.34,441.26" style="stroke:#181818;stroke-width:1;"/><text fill="#000000" font-family="sans-serif" font-size="13" lengthAdjust="spacing" textLength="6.5" x="872.8435" y="393.3859">*</text><text fill="#000000" font-family="sans-serif" font-size="13" lengthAdjust="spacing" textLength="8.271" x="896.9612" y="430.5237">1</text></g><!--link Project to User--><g class="link" data-entity-1="Project" data-entity-2="User" data-source-line="111" data-uid="lnk37" id="link_Project_User"><path codeLine="111" d="M899.81,373.57 C899.81,395.24 899.81,412.83 899.81,435.26" fill="none" id="Project-to-User-1" style="stroke:#181818;stroke-width:1;"/><polygon fill="#181818" points="899.81,441.26,903.81,432.26,899.81,436.26,895.81,432.26,899.81,441.26" style="stroke:#181818;stroke-width:1;"/><text fill="#000000" font-family="sans-serif" font-size="13" lengthAdjust="spacing" textLength="6.5" x="882.0414" y="393.3859">*</text><text fill="#000000" font-family="sans-serif" font-size="13" lengthAdjust="spacing" textLength="8.271" x="906.0532" y="430.5237">1</text></g><!--link Project to User--><g class="link" data-entity-1="Project" data-entity-2="User" data-source-line="112" data-uid="lnk38" id="link_Project_User"><path codeLine="112" d="M908.29,373.57 C908.29,395.24 908.29,412.83 908.29,435.26" fill="none" id="Project-to-User-2" style="stroke:#181818;stroke-width:1;"/><polygon fill="#181818" points="908.29,441.26,912.29,432.26,908.29,436.26,904.29,432.26,908.29,441.26" style="stroke:#181818;stroke-width:1;"/><text fill="#000000" font-family="sans-serif" font-size="13" lengthAdjust="spacing" textLength="6.5" x="891.2501" y="393.3859">*</text><text fill="#000000" font-family="sans-serif" font-size="13" lengthAdjust="spacing" textLength="8.271" x="915.156" y="430.5237">1</text></g><!--link Project to User--><g class="link" data-entity-1="Project" data-entity-2="User" data-source-line="113" data-uid="lnk39" id="link_Project_User"><path codeLine="113" d="M916.76,373.57 C916.76,395.24 916.76,418.83 916.76,441.26" fill="none" id="Project-User" style="stroke:#181818;stroke-width:1;"/><text fill="#000000" font-family="sans-serif" font-size="13" lengthAdjust="spacing" textLength="6.5" x="900.448" y="393.3859">*</text><text fill="#000000" font-family="sans-serif" font-size="13" lengthAdjust="spacing" textLength="8.271" x="924.248" y="430.5237">1</text></g><!--link Project to Company--><g class="link" data-entity-1="Project" data-entity-2="Company" data-source-line="114" data-uid="lnk40" id="link_Project_Company"><path codeLine="114" d="M1099.2,373.71 C1099.2,460.17 1099.2,597.08 1099.2,698.39" fill="none" id="Project-Company" style="stroke:#181818;stroke-width:1;"/><text fill="#000000" font-family="sans-serif" font-size="13" lengthAdjust="spacing" textLength="6.5" x="1098.3713" y="393.2557">*</text><text fill="#000000" font-family="sans-serif" font-size="13" lengthAdjust="spacing" textLength="8.271" x="1099.8591" y="687.8559">1</text></g><!--link Project to Category--><g class="link" data-entity-1="Project" data-entity-2="Category" data-source-line="115" data-uid="lnk41" id="link_Project_Category"><path codeLine="115" d="M1163.26,373.47 C1163.26,581.7 1163.26,1112.14 1163.26,1112.14 C1163.26,1112.14 1161.03,1112.14 1147.84,1112.14" fill="none" id="Project-to-Category" style="stroke:#181818;stroke-width:1;"/><polygon fill="#181818" points="1141.84,1112.14,1150.84,1116.14,1146.84,1112.14,1150.84,1108.14,1141.84,1112.14" style="stroke:#181818;stroke-width:1;"/><text fill="#000000" font-family="sans-serif" font-size="13" lengthAdjust="spacing" textLength="6.5" x="1168.1316" y="393.2773">*</text><text fill="#000000" font-family="sans-serif" font-size="13" lengthAdjust="spacing" textLength="8.271" x="1149.4173" y="1108.9355">1</text></g><!--link User to User--><g class="link" data-entity-1="User" data-entity-2="User" data-source-line="116" data-uid="lnk42" id="link_User_User"><path codeLine="116" d="M942.18,440.99 C942.18,432.54 942.18,427.14 942.18,427.14 C942.18,427.14 987.79,427.14 987.79,427.14 C987.79,427.14 987.79,654.14 987.79,654.14 C987.79,654.14 924.03,654.14 924.03,654.14 C924.03,654.14 924.03,654.08 924.03,644.76" fill="none" id="User-to-User" style="stroke:#181818;stroke-width:1;"/><polygon fill="#181818" points="924.03,638.76,920.03,647.76,924.03,643.76,928.03,647.76,924.03,638.76" style="stroke:#181818;stroke-width:1;"/><text fill="#000000" font-family="sans-serif" font-size="13" lengthAdjust="spacing" textLength="6.5" x="953.6166" y="430.2339">*</text><text fill="#000000" font-family="sans-serif" font-size="13" lengthAdjust="spacing" textLength="8.271" x="932.0519" y="658.6292">1</text></g><!--link User to User--><g class="link" data-entity-1="User" data-entity-2="User" data-source-line="117" data-uid="lnk43" id="link_User_User"><path codeLine="117" d="M933.71,441.17 C933.71,424.32 933.71,412.14 933.71,412.14 C933.71,412.14 1024.93,412.14 1024.93,412.14 C1024.93,412.14 1024.93,669.14 1024.93,669.14 C1024.93,669.14 897.41,669.14 897.41,669.14 C897.41,669.14 897.41,662.54 897.41,645.21" fill="none" id="User-to-User-1" style="stroke:#181818;stroke-width:1;"/><polygon fill="#181818" points="897.41,639.21,893.41,648.21,897.41,644.21,901.41,648.21,897.41,639.21" style="stroke:#181818;stroke-width:1;"/><text fill="#000000" font-family="sans-serif" font-size="13" lengthAdjust="spacing" textLength="6.5" x="944.5246" y="430.4271">*</text><text fill="#000000" font-family="sans-serif" font-size="13" lengthAdjust="spacing" textLength="8.271" x="902.8784" y="658.7788">1</text></g><!--link User to User--><g class="link" data-entity-1="User" data-entity-2="User" data-source-line="118" data-uid="lnk44" id="link_User_User"><path codeLine="118" d="M925.23,441.19 C925.23,416.62 925.23,397.14 925.23,397.14 C925.23,397.14 1062.06,397.14 1062.06,397.14 C1062.06,397.14 1062.06,684.14 1062.06,684.14 C1062.06,684.14 870.78,684.14 870.78,684.14 C870.78,684.14 870.78,670.09 870.78,644.96" fill="none" id="User-to-User-2" style="stroke:#181818;stroke-width:1;"/><polygon fill="#181818" points="870.78,638.96,866.78,647.96,870.78,643.96,874.78,647.96,870.78,638.96" style="stroke:#181818;stroke-width:1;"/><text fill="#000000" font-family="sans-serif" font-size="13" lengthAdjust="spacing" textLength="6.5" x="935.4218" y="430.4485">*</text><text fill="#000000" font-family="sans-serif" font-size="13" lengthAdjust="spacing" textLength="8.271" x="874.8913" y="658.8438">1</text></g><!--SRC=[tLPDJzj04BtxLopXW5G9gKWz8RKL3QZYK0cL8WuDGflra6pPBysEAIxgV- -kdH0dsJWnDFJZ56VcpVZDczbPUo3cmN7aP94DMBRZa8yqPuM7KqE06dB92SwukEKZyEo6Am-PlvKc1cccf04g7J2BDBODnoTf-efxVobp6hE3Dw-piSo12Ob2GVqCsb79DEWXeCzsQ0mQsBMn1gup4MFPaNE34qEIoi5vwGbq_OSzPFjC2clO8Nll2QKPiRVC54e5k-4Xoo5xDE_j1IF1FQN0mkQGieVoyInKBxsNrlW0EROYOc3GjrfR4twK0a7HstZEVYupFng6x5nGatiUNtfUwXjhofZHXQ8D3IvaFhWeWlUHI8YJTv7Yq5eLp8G5PBii1mK4-H5DaRjC8F05K-7oULDGnnBuf19r-8SoEXliBu8I3LtgZ6jG4tQjg8HGqTriywm1bMY2cy_0yvaMzInMZakK1CkUsCPMfhuvLVF0kO5RJJesZvkwhSdHYyQJUm9J5P9Gter3yvCj0QMImub9CsWkauxm7o0v_Z-aIxvueiRoQIaCOTbVSMX4BSL7j8LR4BFVTCqgH_ijd9iEnojMwPGj0Je5YJ2q8ukBBUvFpMlRMnDVsMFHgeY4vosGHvhn_UgcwgGqZKEjxjII3KVBE66LnHJFJhiKhQKrGeRMSWmBRIrCZANA0_9P-fpLOrJ9uubJuUSuEyMD2SzxrMRo0gKZsQ7Ua1BhBHeYZaC9NwI6KwqBuaC5ZVDdyWrGWRiS6O3MjIIKJAWtsJGpr9EdkdhRGzlEGAkggUM8F6RwUbKrrVll5lDjRh6dx8J9ubcdbq_UBTjP9Aikajwh7jlVVyTw1xt5Xlo9c8LlaxymgkMZu7_AyDiJDC5PubHiIFmbuOlevjtRuINJmvYjkiQxaTj-p7Hv_2FufBxpCPk4J6_j3Lcz9FnvwCaCT62JagUweZjiborZDoYoBVEqmby0]--></g></svg>