<svg xmlns="http://www.w3.org/2000/svg" xmlns:xlink="http://www.w3.org/1999/xlink" contentStyleType="text/css" data-diagram-type="CLASS" height="1016px" preserveAspectRatio="none" style="width:1851px;height:1016px;background:#FFFFFF;" version="1.1" viewBox="0 0 1851 1016" width="1851px" zoomAndPan="magnify"><defs/><g><!--cluster Entity--><g class="cluster" data-entity="Entity" data-source-line="8" data-uid="ent0004" id="cluster_Entity"><path d="M8.5,6 L92.3311,6 A3.75,3.75 0 0 1 94.8311,8.5 L101.8311,28.2969 L1841.5,28.2969 A2.5,2.5 0 0 1 1844,30.7969 L1844,1007.27 A2.5,2.5 0 0 1 1841.5,1009.77 L8.5,1009.77 A2.5,2.5 0 0 1 6,1007.27 L6,8.5 A2.5,2.5 0 0 1 8.5,6" fill="none" style="stroke:#000000;stroke-width:1.5;"/><line style="stroke:#000000;stroke-width:1.5;" x1="6" x2="101.8311" y1="28.2969" y2="28.2969"/><text fill="#000000" font-family="sans-serif" font-size="14" font-weight="bold" lengthAdjust="spacing" textLength="82.8311" x="10" y="20.9951">App\Entity</text></g><!--class CompanyGroup--><g class="entity" data-entity="CompanyGroup" data-source-line="8" data-uid="ent0002" id="entity_CompanyGroup"><rect fill="#F1F1F1" height="83.1875" rx="2.5" ry="2.5" style="stroke:#181818;stroke-width:0.5;" width="398.3125" x="21.84" y="249.38"/><text fill="#000000" font-family="sans-serif" font-size="14" lengthAdjust="spacing" textLength="109.5322" x="166.2301" y="267.3751">CompanyGroup</text><line style="stroke:#181818;stroke-width:0.5;" x1="22.84" x2="419.1525" y1="275.6769" y2="275.6769"/><rect fill="none" height="6" style="stroke:#C82930;stroke-width:1;" width="6" x="29.84" y="286.3253"/><text fill="#000000" font-family="sans-serif" font-size="14" lengthAdjust="spacing" textLength="121.8369" x="41.84" y="292.672">name : string = ''</text><rect fill="none" height="6" style="stroke:#C82930;stroke-width:1;" width="6" x="29.84" y="302.6222"/><text fill="#000000" font-family="sans-serif" font-size="14" lengthAdjust="spacing" textLength="141.1553" x="41.84" y="308.9689">code : ?string = null</text><rect fill="none" height="6" style="stroke:#C82930;stroke-width:1;" width="6" x="29.84" y="318.9191"/><text fill="#000000" font-family="sans-serif" font-size="14" lengthAdjust="spacing" textLength="372.3125" x="41.84" y="325.2657">companies : Doctrine\Common\Collections\Collection</text></g><!--class AbstractEntity--><g class="entity" data-entity="AbstractEntity" data-source-line="13" data-uid="ent0005" id="entity_AbstractEntity"><rect fill="#F1F1F1" height="180.9688" rx="2.5" ry="2.5" style="stroke:#181818;stroke-width:0.5;" width="317.792" x="792.1" y="200.49"/><text fill="#000000" font-family="sans-serif" font-size="14" lengthAdjust="spacing" textLength="99.6406" x="901.1757" y="218.4851">AbstractEntity</text><line style="stroke:#181818;stroke-width:0.5;" x1="793.1" x2="1108.892" y1="226.7869" y2="226.7869"/><rect fill="none" height="6" style="stroke:#C82930;stroke-width:1;" width="6" x="800.1" y="237.4353"/><text fill="#000000" font-family="sans-serif" font-size="14" lengthAdjust="spacing" textLength="291.792" x="812.1" y="243.782">id : ?Symfony\Component\Uid\Uuid = null</text><rect fill="none" height="6" style="stroke:#C82930;stroke-width:1;" width="6" x="800.1" y="253.7322"/><text fill="#000000" font-family="sans-serif" font-size="14" lengthAdjust="spacing" textLength="135.4404" x="812.1" y="260.0789">active : bool = true</text><polygon fill="none" points="803.1,268.0291,807.1,272.0291,803.1,276.0291,799.1,272.0291" style="stroke:#B38D22;stroke-width:1;"/><text fill="#000000" font-family="sans-serif" font-size="14" lengthAdjust="spacing" textLength="114.2148" x="812.1" y="276.3757">deletedAt = null</text><polygon fill="none" points="803.1,284.3259,807.1,288.3259,803.1,292.3259,799.1,288.3259" style="stroke:#B38D22;stroke-width:1;"/><text fill="#000000" font-family="sans-serif" font-size="14" lengthAdjust="spacing" textLength="114.8574" x="812.1" y="292.6726">createdAt = null</text><polygon fill="none" points="803.1,300.6228,807.1,304.6228,803.1,308.6228,799.1,304.6228" style="stroke:#B38D22;stroke-width:1;"/><text fill="#000000" font-family="sans-serif" font-size="14" lengthAdjust="spacing" textLength="119.4375" x="812.1" y="308.9695">updatedAt = null</text><rect fill="none" height="6" style="stroke:#C82930;stroke-width:1;" width="6" x="800.1" y="318.9197"/><text fill="#000000" font-family="sans-serif" font-size="14" lengthAdjust="spacing" textLength="146.2275" x="812.1" y="325.2664">notes : ?string = null</text><rect fill="none" height="6" style="stroke:#C82930;stroke-width:1;" width="6" x="800.1" y="335.2166"/><text fill="#000000" font-family="sans-serif" font-size="14" lengthAdjust="spacing" textLength="117.6807" x="812.1" y="341.5632">createdBy = null</text><rect fill="none" height="6" style="stroke:#C82930;stroke-width:1;" width="6" x="800.1" y="351.5134"/><text fill="#000000" font-family="sans-serif" font-size="14" lengthAdjust="spacing" textLength="122.2607" x="812.1" y="357.8601">updatedBy = null</text><rect fill="none" height="6" style="stroke:#C82930;stroke-width:1;" width="6" x="800.1" y="367.8103"/><text fill="#000000" font-family="sans-serif" font-size="14" lengthAdjust="spacing" textLength="117.0381" x="812.1" y="374.157">deletedBy = null</text></g><!--class Company--><g class="entity" data-entity="Company" data-source-line="24" data-uid="ent0006" id="entity_Company"><rect fill="#F1F1F1" height="246.1563" rx="2.5" ry="2.5" style="stroke:#181818;stroke-width:0.5;" width="398.6748" x="751.66" y="747.61"/><text fill="#000000" font-family="sans-serif" font-size="14" lengthAdjust="spacing" textLength="66.6025" x="917.6961" y="765.6051">Company</text><line style="stroke:#181818;stroke-width:0.5;" x1="752.66" x2="1149.3348" y1="773.9069" y2="773.9069"/><rect fill="none" height="6" style="stroke:#C82930;stroke-width:1;" width="6" x="759.66" y="784.5553"/><text fill="#000000" font-family="sans-serif" font-size="14" lengthAdjust="spacing" textLength="121.8369" x="771.66" y="790.902">name : string = ''</text><rect fill="none" height="6" style="stroke:#C82930;stroke-width:1;" width="6" x="759.66" y="800.8522"/><text fill="#000000" font-family="sans-serif" font-size="14" lengthAdjust="spacing" textLength="215.8242" x="771.66" y="807.1989">nameExtension : ?string = null</text><rect fill="none" height="6" style="stroke:#C82930;stroke-width:1;" width="6" x="759.66" y="817.1491"/><text fill="#000000" font-family="sans-serif" font-size="14" lengthAdjust="spacing" textLength="148.6475" x="771.66" y="823.4957">street : ?string = null</text><rect fill="none" height="6" style="stroke:#C82930;stroke-width:1;" width="6" x="759.66" y="833.4459"/><text fill="#000000" font-family="sans-serif" font-size="14" lengthAdjust="spacing" textLength="127.5176" x="771.66" y="839.7926">zip : ?string = null</text><rect fill="none" height="6" style="stroke:#C82930;stroke-width:1;" width="6" x="759.66" y="849.7428"/><text fill="#000000" font-family="sans-serif" font-size="14" lengthAdjust="spacing" textLength="132.7539" x="771.66" y="856.0895">city : ?string = null</text><rect fill="none" height="6" style="stroke:#C82930;stroke-width:1;" width="6" x="759.66" y="866.0397"/><text fill="#000000" font-family="sans-serif" font-size="14" lengthAdjust="spacing" textLength="196.7725" x="771.66" y="872.3864">countryCode : ?string = null</text><rect fill="none" height="6" style="stroke:#C82930;stroke-width:1;" width="6" x="759.66" y="882.3366"/><text fill="#000000" font-family="sans-serif" font-size="14" lengthAdjust="spacing" textLength="151.2041" x="771.66" y="888.6832">phone : ?string = null</text><rect fill="none" height="6" style="stroke:#C82930;stroke-width:1;" width="6" x="759.66" y="898.6334"/><text fill="#000000" font-family="sans-serif" font-size="14" lengthAdjust="spacing" textLength="131.4824" x="771.66" y="904.9801">cell : ?string = null</text><rect fill="none" height="6" style="stroke:#C82930;stroke-width:1;" width="6" x="759.66" y="914.9303"/><text fill="#000000" font-family="sans-serif" font-size="14" lengthAdjust="spacing" textLength="125.9111" x="771.66" y="921.277">url : ?string = null</text><rect fill="none" height="6" style="stroke:#C82930;stroke-width:1;" width="6" x="759.66" y="931.2272"/><text fill="#000000" font-family="sans-serif" font-size="14" lengthAdjust="spacing" textLength="146.002" x="771.66" y="937.5739">email : ?string = null</text><rect fill="none" height="6" style="stroke:#C82930;stroke-width:1;" width="6" x="759.66" y="947.5241"/><text fill="#000000" font-family="sans-serif" font-size="14" lengthAdjust="spacing" textLength="361.8467" x="771.66" y="953.8707">companyGroup : ?App\Entity\CompanyGroup = null</text><rect fill="none" height="6" style="stroke:#C82930;stroke-width:1;" width="6" x="759.66" y="963.8209"/><text fill="#000000" font-family="sans-serif" font-size="14" lengthAdjust="spacing" textLength="352.4678" x="771.66" y="970.1676">projects : Doctrine\Common\Collections\Collection</text><rect fill="none" height="6" style="stroke:#C82930;stroke-width:1;" width="6" x="759.66" y="980.1178"/><text fill="#000000" font-family="sans-serif" font-size="14" lengthAdjust="spacing" textLength="372.6748" x="771.66" y="986.4645">employees : Doctrine\Common\Collections\Collection</text></g><!--class Module--><g class="entity" data-entity="Module" data-source-line="39" data-uid="ent0007" id="entity_Module"><rect fill="#F1F1F1" height="115.7813" rx="2.5" ry="2.5" style="stroke:#181818;stroke-width:0.5;" width="436.3613" x="1354.82" y="233.08"/><text fill="#000000" font-family="sans-serif" font-size="14" lengthAdjust="spacing" textLength="50.9072" x="1547.5471" y="251.0751">Module</text><line style="stroke:#181818;stroke-width:0.5;" x1="1355.82" x2="1790.1813" y1="259.3769" y2="259.3769"/><rect fill="none" height="6" style="stroke:#C82930;stroke-width:1;" width="6" x="1362.82" y="270.0253"/><text fill="#000000" font-family="sans-serif" font-size="14" lengthAdjust="spacing" textLength="136.418" x="1374.82" y="276.372">icon : ?string = null</text><rect fill="none" height="6" style="stroke:#C82930;stroke-width:1;" width="6" x="1362.82" y="286.3222"/><text fill="#000000" font-family="sans-serif" font-size="14" lengthAdjust="spacing" textLength="121.8369" x="1374.82" y="292.6689">name : string = ''</text><rect fill="none" height="6" style="stroke:#C82930;stroke-width:1;" width="6" x="1362.82" y="302.6191"/><text fill="#000000" font-family="sans-serif" font-size="14" lengthAdjust="spacing" textLength="135.2695" x="1374.82" y="308.9657">text : ?string = null</text><rect fill="none" height="6" style="stroke:#C82930;stroke-width:1;" width="6" x="1362.82" y="318.9159"/><text fill="#000000" font-family="sans-serif" font-size="14" lengthAdjust="spacing" textLength="141.1553" x="1374.82" y="325.2626">code : ?string = null</text><rect fill="none" height="6" style="stroke:#C82930;stroke-width:1;" width="6" x="1362.82" y="335.2128"/><text fill="#000000" font-family="sans-serif" font-size="14" lengthAdjust="spacing" textLength="410.3613" x="1374.82" y="341.5595">userPermissions : Doctrine\Common\Collections\Collection</text></g><!--class Project--><g class="entity" data-entity="Project" data-source-line="46" data-uid="ent0008" id="entity_Project"><rect fill="#F1F1F1" height="148.375" rx="2.5" ry="2.5" style="stroke:#181818;stroke-width:0.5;" width="302.2676" x="454.87" y="216.79"/><text fill="#000000" font-family="sans-serif" font-size="14" lengthAdjust="spacing" textLength="48.4531" x="581.7772" y="234.7851">Project</text><line style="stroke:#181818;stroke-width:0.5;" x1="455.87" x2="756.1376" y1="243.0869" y2="243.0869"/><rect fill="none" height="6" style="stroke:#C82930;stroke-width:1;" width="6" x="462.87" y="253.7353"/><text fill="#000000" font-family="sans-serif" font-size="14" lengthAdjust="spacing" textLength="128.4746" x="474.87" y="260.082">status : ?int = null</text><rect fill="none" height="6" style="stroke:#C82930;stroke-width:1;" width="6" x="462.87" y="270.0322"/><text fill="#000000" font-family="sans-serif" font-size="14" lengthAdjust="spacing" textLength="185.2334" x="474.87" y="276.3789">description : ?string = null</text><rect fill="none" height="6" style="stroke:#C82930;stroke-width:1;" width="6" x="462.87" y="286.3291"/><text fill="#000000" font-family="sans-serif" font-size="14" lengthAdjust="spacing" textLength="121.8369" x="474.87" y="292.6757">name : string = ''</text><rect fill="none" height="6" style="stroke:#C82930;stroke-width:1;" width="6" x="462.87" y="302.6259"/><text fill="#000000" font-family="sans-serif" font-size="14" lengthAdjust="spacing" textLength="276.2676" x="474.87" y="308.9726">startedAt : ?DateTimeImmutable = null</text><rect fill="none" height="6" style="stroke:#C82930;stroke-width:1;" width="6" x="462.87" y="318.9228"/><text fill="#000000" font-family="sans-serif" font-size="14" lengthAdjust="spacing" textLength="270.0332" x="474.87" y="325.2695">endedAt : ?DateTimeImmutable = null</text><rect fill="none" height="6" style="stroke:#C82930;stroke-width:1;" width="6" x="462.87" y="335.2197"/><text fill="#000000" font-family="sans-serif" font-size="14" lengthAdjust="spacing" textLength="238.8135" x="474.87" y="341.5664">assignee : ?App\Entity\User = null</text><rect fill="none" height="6" style="stroke:#C82930;stroke-width:1;" width="6" x="462.87" y="351.5166"/><text fill="#000000" font-family="sans-serif" font-size="14" lengthAdjust="spacing" textLength="249.915" x="474.87" y="357.8632">client : ?App\Entity\Company = null</text></g><!--class User--><g class="entity" data-entity="User" data-source-line="55" data-uid="ent0009" id="entity_User"><rect fill="#F1F1F1" height="246.1563" rx="2.5" ry="2.5" style="stroke:#181818;stroke-width:0.5;" width="458.291" x="721.85" y="441.46"/><text fill="#000000" font-family="sans-serif" font-size="14" lengthAdjust="spacing" textLength="31.9102" x="935.0404" y="459.4551">User</text><line style="stroke:#181818;stroke-width:0.5;" x1="722.85" x2="1179.141" y1="467.7569" y2="467.7569"/><rect fill="none" height="6" style="stroke:#C82930;stroke-width:1;" width="6" x="729.85" y="478.4053"/><text fill="#000000" font-family="sans-serif" font-size="14" lengthAdjust="spacing" textLength="146.002" x="741.85" y="484.752">email : ?string = null</text><rect fill="none" height="6" style="stroke:#C82930;stroke-width:1;" width="6" x="729.85" y="494.7022"/><text fill="#000000" font-family="sans-serif" font-size="14" lengthAdjust="spacing" textLength="116.2451" x="741.85" y="501.0489">roles : array = []</text><rect fill="none" height="6" style="stroke:#C82930;stroke-width:1;" width="6" x="729.85" y="510.9991"/><text fill="#000000" font-family="sans-serif" font-size="14" lengthAdjust="spacing" textLength="174.1045" x="741.85" y="517.3457">password : ?string = null</text><rect fill="none" height="6" style="stroke:#C82930;stroke-width:1;" width="6" x="729.85" y="527.2959"/><text fill="#000000" font-family="sans-serif" font-size="14" lengthAdjust="spacing" textLength="148.6475" x="741.85" y="533.6426">street : ?string = null</text><rect fill="none" height="6" style="stroke:#C82930;stroke-width:1;" width="6" x="729.85" y="543.5928"/><text fill="#000000" font-family="sans-serif" font-size="14" lengthAdjust="spacing" textLength="127.5176" x="741.85" y="549.9395">zip : ?string = null</text><rect fill="none" height="6" style="stroke:#C82930;stroke-width:1;" width="6" x="729.85" y="559.8897"/><text fill="#000000" font-family="sans-serif" font-size="14" lengthAdjust="spacing" textLength="132.7539" x="741.85" y="566.2364">city : ?string = null</text><rect fill="none" height="6" style="stroke:#C82930;stroke-width:1;" width="6" x="729.85" y="576.1866"/><text fill="#000000" font-family="sans-serif" font-size="14" lengthAdjust="spacing" textLength="196.7725" x="741.85" y="582.5332">countryCode : ?string = null</text><rect fill="none" height="6" style="stroke:#C82930;stroke-width:1;" width="6" x="729.85" y="592.4834"/><text fill="#000000" font-family="sans-serif" font-size="14" lengthAdjust="spacing" textLength="151.2041" x="741.85" y="598.8301">phone : ?string = null</text><rect fill="none" height="6" style="stroke:#C82930;stroke-width:1;" width="6" x="729.85" y="608.7803"/><text fill="#000000" font-family="sans-serif" font-size="14" lengthAdjust="spacing" textLength="131.4824" x="741.85" y="615.127">cell : ?string = null</text><rect fill="none" height="6" style="stroke:#C82930;stroke-width:1;" width="6" x="729.85" y="625.0772"/><text fill="#000000" font-family="sans-serif" font-size="14" lengthAdjust="spacing" textLength="125.9111" x="741.85" y="631.4239">url : ?string = null</text><rect fill="none" height="6" style="stroke:#C82930;stroke-width:1;" width="6" x="729.85" y="641.3741"/><text fill="#000000" font-family="sans-serif" font-size="14" lengthAdjust="spacing" textLength="352.4678" x="741.85" y="647.7207">projects : Doctrine\Common\Collections\Collection</text><rect fill="none" height="6" style="stroke:#C82930;stroke-width:1;" width="6" x="729.85" y="657.6709"/><text fill="#000000" font-family="sans-serif" font-size="14" lengthAdjust="spacing" textLength="275.9873" x="741.85" y="664.0176">company : ?App\Entity\Company = null</text><rect fill="none" height="6" style="stroke:#C82930;stroke-width:1;" width="6" x="729.85" y="673.9678"/><text fill="#000000" font-family="sans-serif" font-size="14" lengthAdjust="spacing" textLength="432.291" x="741.85" y="680.3145">modulePermissions : Doctrine\Common\Collections\Collection</text></g><!--class Address--><g class="entity" data-entity="Address" data-source-line="70" data-uid="ent0010" id="entity_Address"><rect fill="#F1F1F1" height="115.7813" rx="2.5" ry="2.5" style="stroke:#181818;stroke-width:0.5;" width="174.6475" x="1144.68" y="233.08"/><text fill="#000000" font-family="sans-serif" font-size="14" lengthAdjust="spacing" textLength="56.3076" x="1203.8499" y="251.0751">Address</text><line style="stroke:#181818;stroke-width:0.5;" x1="1145.68" x2="1318.3275" y1="259.3769" y2="259.3769"/><rect fill="none" height="6" style="stroke:#C82930;stroke-width:1;" width="6" x="1152.68" y="270.0253"/><text fill="#000000" font-family="sans-serif" font-size="14" lengthAdjust="spacing" textLength="148.6475" x="1164.68" y="276.372">street : ?string = null</text><rect fill="none" height="6" style="stroke:#C82930;stroke-width:1;" width="6" x="1152.68" y="286.3222"/><text fill="#000000" font-family="sans-serif" font-size="14" lengthAdjust="spacing" textLength="127.5176" x="1164.68" y="292.6689">zip : ?string = null</text><rect fill="none" height="6" style="stroke:#C82930;stroke-width:1;" width="6" x="1152.68" y="302.6191"/><text fill="#000000" font-family="sans-serif" font-size="14" lengthAdjust="spacing" textLength="132.7539" x="1164.68" y="308.9657">city : ?string = null</text><rect fill="none" height="6" style="stroke:#C82930;stroke-width:1;" width="6" x="1152.68" y="318.9159"/><text fill="#000000" font-family="sans-serif" font-size="14" lengthAdjust="spacing" textLength="143.1855" x="1164.68" y="325.2626">countryCode : string</text><rect fill="none" height="6" style="stroke:#C82930;stroke-width:1;" width="6" x="1152.68" y="335.2128"/><text fill="#000000" font-family="sans-serif" font-size="14" lengthAdjust="spacing" textLength="121.8369" x="1164.68" y="341.5595">name : string = ''</text></g><!--class UserModulePermission--><g class="entity" data-entity="UserModulePermission" data-source-line="77" data-uid="ent0011" id="entity_UserModulePermission"><rect fill="#F1F1F1" height="99.4844" rx="2.5" ry="2.5" style="stroke:#181818;stroke-width:0.5;" width="274.2334" x="1553.88" y="41"/><text fill="#000000" font-family="sans-serif" font-size="14" lengthAdjust="spacing" textLength="159.0723" x="1611.4606" y="58.9951">UserModulePermission</text><line style="stroke:#181818;stroke-width:0.5;" x1="1554.88" x2="1827.1134" y1="67.2969" y2="67.2969"/><rect fill="none" height="6" style="stroke:#C82930;stroke-width:1;" width="6" x="1561.88" y="77.9453"/><text fill="#000000" font-family="sans-serif" font-size="14" lengthAdjust="spacing" textLength="158.416" x="1573.88" y="84.292">canRead : bool = false</text><rect fill="none" height="6" style="stroke:#C82930;stroke-width:1;" width="6" x="1561.88" y="94.2422"/><text fill="#000000" font-family="sans-serif" font-size="14" lengthAdjust="spacing" textLength="160.2002" x="1573.88" y="100.5889">canWrite : bool = false</text><rect fill="none" height="6" style="stroke:#C82930;stroke-width:1;" width="6" x="1561.88" y="110.5391"/><text fill="#000000" font-family="sans-serif" font-size="14" lengthAdjust="spacing" textLength="207.3066" x="1573.88" y="116.8857">user : ?App\Entity\User = null</text><rect fill="none" height="6" style="stroke:#C82930;stroke-width:1;" width="6" x="1561.88" y="126.8359"/><text fill="#000000" font-family="sans-serif" font-size="14" lengthAdjust="spacing" textLength="248.2334" x="1573.88" y="133.1826">module : ?App\Entity\Module = null</text></g><!--link CompanyGroup to User--><g class="link" data-entity-1="CompanyGroup" data-entity-2="User" data-source-line="83" data-uid="lnk12" id="link_CompanyGroup_User"><path codeLine="83" d="M340.49,333.01 C340.49,395.03 340.49,503.77 340.49,503.77 C340.49,503.77 542.35,503.77 715.5,503.77" fill="none" id="CompanyGroup-to-User" style="stroke:#181818;stroke-width:1;"/><polygon fill="#181818" points="721.5,503.77,712.5,499.77,716.5,503.77,712.5,507.77,721.5,503.77" style="stroke:#181818;stroke-width:1;"/><text fill="#000000" font-family="sans-serif" font-size="13" lengthAdjust="spacing" textLength="6.5" x="352.3664" y="352.6723">*</text><text fill="#000000" font-family="sans-serif" font-size="13" lengthAdjust="spacing" textLength="8.271" x="705.8429" y="498.599">1</text></g><!--link CompanyGroup to User--><g class="link" data-entity-1="CompanyGroup" data-entity-2="User" data-source-line="84" data-uid="lnk13" id="link_CompanyGroup_User"><path codeLine="84" d="M260.83,332.85 C260.83,409.55 260.83,564.77 260.83,564.77 C260.83,564.77 514.83,564.77 715.66,564.77" fill="none" id="CompanyGroup-to-User-1" style="stroke:#181818;stroke-width:1;"/><polygon fill="#181818" points="721.66,564.77,712.66,560.77,716.66,564.77,712.66,568.77,721.66,564.77" style="stroke:#181818;stroke-width:1;"/><text fill="#000000" font-family="sans-serif" font-size="13" lengthAdjust="spacing" textLength="6.5" x="260.5084" y="352.4878">*</text><text fill="#000000" font-family="sans-serif" font-size="13" lengthAdjust="spacing" textLength="8.271" x="705.2794" y="561.5781">1</text></g><!--link CompanyGroup to User--><g class="link" data-entity-1="CompanyGroup" data-entity-2="User" data-source-line="85" data-uid="lnk14" id="link_CompanyGroup_User"><path codeLine="85" d="M181.17,332.82 C181.17,422.84 181.17,626.77 181.17,626.77 C181.17,626.77 488.7,626.77 715.59,626.77" fill="none" id="CompanyGroup-to-User-2" style="stroke:#181818;stroke-width:1;"/><polygon fill="#181818" points="721.59,626.77,712.59,622.77,716.59,626.77,712.59,630.77,721.59,626.77" style="stroke:#181818;stroke-width:1;"/><text fill="#000000" font-family="sans-serif" font-size="13" lengthAdjust="spacing" textLength="6.5" x="168.3844" y="352.762">*</text><text fill="#000000" font-family="sans-serif" font-size="13" lengthAdjust="spacing" textLength="8.271" x="705.9358" y="625.635">1</text></g><!--link AbstractEntity to User--><g class="link" data-entity-1="AbstractEntity" data-entity-2="User" data-source-line="86" data-uid="lnk15" id="link_AbstractEntity_User"><path codeLine="86" d="M871.55,381.69 C871.55,400.82 871.55,415.31 871.55,435.4" fill="none" id="AbstractEntity-to-User" style="stroke:#181818;stroke-width:1;"/><polygon fill="#181818" points="871.55,441.4,875.55,432.4,871.55,436.4,867.55,432.4,871.55,441.4" style="stroke:#181818;stroke-width:1;"/><text fill="#000000" font-family="sans-serif" font-size="13" lengthAdjust="spacing" textLength="6.5" x="859" y="401.5887">*</text><text fill="#000000" font-family="sans-serif" font-size="13" lengthAdjust="spacing" textLength="8.271" x="858.4733" y="430.5102">1</text></g><!--link AbstractEntity to User--><g class="link" data-entity-1="AbstractEntity" data-entity-2="User" data-source-line="87" data-uid="lnk16" id="link_AbstractEntity_User"><path codeLine="87" d="M951,381.69 C951,400.82 951,415.31 951,435.4" fill="none" id="AbstractEntity-to-User-1" style="stroke:#181818;stroke-width:1;"/><polygon fill="#181818" points="951,441.4,955,432.4,951,436.4,947,432.4,951,441.4" style="stroke:#181818;stroke-width:1;"/><text fill="#000000" font-family="sans-serif" font-size="13" lengthAdjust="spacing" textLength="6.5" x="944.7812" y="401.5887">*</text><text fill="#000000" font-family="sans-serif" font-size="13" lengthAdjust="spacing" textLength="8.271" x="942.7648" y="430.5102">1</text></g><!--link AbstractEntity to User--><g class="link" data-entity-1="AbstractEntity" data-entity-2="User" data-source-line="88" data-uid="lnk17" id="link_AbstractEntity_User"><path codeLine="88" d="M1030.45,381.69 C1030.45,400.82 1030.45,415.31 1030.45,435.4" fill="none" id="AbstractEntity-to-User-2" style="stroke:#181818;stroke-width:1;"/><polygon fill="#181818" points="1030.45,441.4,1034.45,432.4,1030.45,436.4,1026.45,432.4,1030.45,441.4" style="stroke:#181818;stroke-width:1;"/><text fill="#000000" font-family="sans-serif" font-size="13" lengthAdjust="spacing" textLength="6.5" x="1030.5624" y="401.5887">*</text><text fill="#000000" font-family="sans-serif" font-size="13" lengthAdjust="spacing" textLength="8.271" x="1027.0563" y="430.5102">1</text></g><!--link Company to User--><g class="link" data-entity-1="Company" data-entity-2="User" data-source-line="89" data-uid="lnk18" id="link_Company_User"><path codeLine="89" d="M831.4,747.49 C831.4,727.88 831.4,713.6 831.4,693.98" fill="none" id="Company-to-User" style="stroke:#181818;stroke-width:1;"/><polygon fill="#181818" points="831.4,687.98,827.4,696.98,831.4,692.98,835.4,696.98,831.4,687.98" style="stroke:#181818;stroke-width:1;"/><text fill="#000000" font-family="sans-serif" font-size="13" lengthAdjust="spacing" textLength="6.5" x="817.9445" y="736.5965">*</text><text fill="#000000" font-family="sans-serif" font-size="13" lengthAdjust="spacing" textLength="8.271" x="816.2625" y="707.6208">1</text></g><!--link Company to User--><g class="link" data-entity-1="Company" data-entity-2="User" data-source-line="90" data-uid="lnk19" id="link_Company_User"><path codeLine="90" d="M911.13,747.49 C911.13,727.88 911.13,713.6 911.13,693.98" fill="none" id="Company-to-User-1" style="stroke:#181818;stroke-width:1;"/><polygon fill="#181818" points="911.13,687.98,907.13,696.98,911.13,692.98,915.13,696.98,911.13,687.98" style="stroke:#181818;stroke-width:1;"/><text fill="#000000" font-family="sans-serif" font-size="13" lengthAdjust="spacing" textLength="6.5" x="902.533" y="736.5965">*</text><text fill="#000000" font-family="sans-serif" font-size="13" lengthAdjust="spacing" textLength="8.271" x="900.6019" y="707.6208">1</text></g><!--link Company to User--><g class="link" data-entity-1="Company" data-entity-2="User" data-source-line="91" data-uid="lnk20" id="link_Company_User"><path codeLine="91" d="M990.87,747.49 C990.87,727.88 990.87,713.6 990.87,693.98" fill="none" id="Company-to-User-2" style="stroke:#181818;stroke-width:1;"/><polygon fill="#181818" points="990.87,687.98,986.87,696.98,990.87,692.98,994.87,696.98,990.87,687.98" style="stroke:#181818;stroke-width:1;"/><text fill="#000000" font-family="sans-serif" font-size="13" lengthAdjust="spacing" textLength="6.5" x="987.1322" y="736.5965">*</text><text fill="#000000" font-family="sans-serif" font-size="13" lengthAdjust="spacing" textLength="8.271" x="984.9518" y="707.6208">1</text></g><!--link User to Company--><g class="link" data-entity-1="User" data-entity-2="Company" data-source-line="104" data-uid="lnk33" id="link_User_Company"><path codeLine="104" d="M1070.6,687.74 C1070.6,707.34 1070.6,727.63 1070.6,747.24" fill="none" id="User-Company" style="stroke:#181818;stroke-width:1;"/><text fill="#000000" font-family="sans-serif" font-size="13" lengthAdjust="spacing" textLength="6.5" x="1071.7208" y="707.7756">*</text><text fill="#000000" font-family="sans-serif" font-size="13" lengthAdjust="spacing" textLength="8.271" x="1069.2911" y="736.7403">1</text></g><!--link Company to CompanyGroup--><g class="link" data-entity-1="Company" data-entity-2="CompanyGroup" data-source-line="92" data-uid="lnk21" id="link_Company_CompanyGroup"><path codeLine="92" d="M751.29,911.77 C500.18,911.77 101.51,911.77 101.51,911.77 C101.51,911.77 101.51,471.86 101.51,332.67" fill="none" id="Company-CompanyGroup" style="stroke:#181818;stroke-width:1;"/><text fill="#000000" font-family="sans-serif" font-size="13" lengthAdjust="spacing" textLength="6.5" x="737.3815" y="910.1513">*</text><text fill="#000000" font-family="sans-serif" font-size="13" lengthAdjust="spacing" textLength="8.271" x="73.851" y="352.5881">1</text></g><!--link Module to User--><g class="link" data-entity-1="Module" data-entity-2="User" data-source-line="93" data-uid="lnk22" id="link_Module_User"><path codeLine="93" d="M1463.91,349.12 C1463.91,412.13 1463.91,503.77 1463.91,503.77 C1463.91,503.77 1323.02,503.77 1186.45,503.77" fill="none" id="Module-to-User" style="stroke:#181818;stroke-width:1;"/><polygon fill="#181818" points="1180.45,503.77,1189.45,507.77,1185.45,503.77,1189.45,499.77,1180.45,503.77" style="stroke:#181818;stroke-width:1;"/><text fill="#000000" font-family="sans-serif" font-size="13" lengthAdjust="spacing" textLength="6.5" x="1444.9784" y="368.7853">*</text><text fill="#000000" font-family="sans-serif" font-size="13" lengthAdjust="spacing" textLength="8.271" x="1188.1147" y="498.599">1</text></g><!--link Module to User--><g class="link" data-entity-1="Module" data-entity-2="User" data-source-line="94" data-uid="lnk23" id="link_Module_User"><path codeLine="94" d="M1573,349.04 C1573,429.41 1573,564.77 1573,564.77 C1573,564.77 1363.67,564.77 1186.4,564.77" fill="none" id="Module-to-User-1" style="stroke:#181818;stroke-width:1;"/><polygon fill="#181818" points="1180.4,564.77,1189.4,568.77,1185.4,564.77,1189.4,560.77,1180.4,564.77" style="stroke:#181818;stroke-width:1;"/><text fill="#000000" font-family="sans-serif" font-size="13" lengthAdjust="spacing" textLength="6.5" x="1566.6648" y="369.1063">*</text><text fill="#000000" font-family="sans-serif" font-size="13" lengthAdjust="spacing" textLength="8.271" x="1188.063" y="561.6006">1</text></g><!--link Module to User--><g class="link" data-entity-1="Module" data-entity-2="User" data-source-line="95" data-uid="lnk24" id="link_Module_User"><path codeLine="95" d="M1682.09,349.08 C1682.09,445.19 1682.09,626.77 1682.09,626.77 C1682.09,626.77 1400.94,626.77 1186.57,626.77" fill="none" id="Module-to-User-2" style="stroke:#181818;stroke-width:1;"/><polygon fill="#181818" points="1180.57,626.77,1189.57,630.77,1185.57,626.77,1189.57,622.77,1180.57,626.77" style="stroke:#181818;stroke-width:1;"/><text fill="#000000" font-family="sans-serif" font-size="13" lengthAdjust="spacing" textLength="6.5" x="1688.3855" y="368.7407">*</text><text fill="#000000" font-family="sans-serif" font-size="13" lengthAdjust="spacing" textLength="8.271" x="1188.2386" y="625.635">1</text></g><!--link Project to User--><g class="link" data-entity-1="Project" data-entity-2="User" data-source-line="96" data-uid="lnk25" id="link_Project_User"><path codeLine="96" d="M728.91,365.36 C728.91,388.78 728.91,409.3 728.91,435.18" fill="none" id="Project-to-User" style="stroke:#181818;stroke-width:1;"/><polygon fill="#181818" points="728.91,441.18,732.91,432.18,728.91,436.18,724.91,432.18,728.91,441.18" style="stroke:#181818;stroke-width:1;"/><text fill="#000000" font-family="sans-serif" font-size="13" lengthAdjust="spacing" textLength="6.5" x="734.3624" y="385.2376">*</text><text fill="#000000" font-family="sans-serif" font-size="13" lengthAdjust="spacing" textLength="8.271" x="707.1412" y="430.2768">1</text></g><!--link Project to User--><g class="link" data-entity-1="Project" data-entity-2="User" data-source-line="97" data-uid="lnk26" id="link_Project_User"><path codeLine="97" d="M735.97,365.36 C735.97,388.78 735.97,409.3 735.97,435.18" fill="none" id="Project-to-User-1" style="stroke:#181818;stroke-width:1;"/><polygon fill="#181818" points="735.97,441.18,739.97,432.18,735.97,436.18,731.97,432.18,735.97,441.18" style="stroke:#181818;stroke-width:1;"/><text fill="#000000" font-family="sans-serif" font-size="13" lengthAdjust="spacing" textLength="6.5" x="742.0953" y="385.2376">*</text><text fill="#000000" font-family="sans-serif" font-size="13" lengthAdjust="spacing" textLength="8.271" x="723.1189" y="430.2768">1</text></g><!--link Project to User--><g class="link" data-entity-1="Project" data-entity-2="User" data-source-line="98" data-uid="lnk27" id="link_Project_User"><path codeLine="98" d="M743.02,365.36 C743.02,388.78 743.02,409.3 743.02,435.18" fill="none" id="Project-to-User-2" style="stroke:#181818;stroke-width:1;"/><polygon fill="#181818" points="743.02,441.18,747.02,432.18,743.02,436.18,739.02,432.18,743.02,441.18" style="stroke:#181818;stroke-width:1;"/><text fill="#000000" font-family="sans-serif" font-size="13" lengthAdjust="spacing" textLength="6.5" x="749.8172" y="385.2376">*</text><text fill="#000000" font-family="sans-serif" font-size="13" lengthAdjust="spacing" textLength="8.271" x="730.5985" y="430.2768">1</text></g><!--link Project to User--><g class="link" data-entity-1="Project" data-entity-2="User" data-source-line="99" data-uid="lnk28" id="link_Project_User"><path codeLine="99" d="M750.08,365.36 C750.08,388.78 750.08,415.3 750.08,441.18" fill="none" id="Project-User" style="stroke:#181818;stroke-width:1;"/><text fill="#000000" font-family="sans-serif" font-size="13" lengthAdjust="spacing" textLength="6.5" x="757.5502" y="385.2376">*</text><text fill="#000000" font-family="sans-serif" font-size="13" lengthAdjust="spacing" textLength="8.271" x="738.0887" y="430.2768">1</text></g><!--link Project to Company--><g class="link" data-entity-1="Project" data-entity-2="Company" data-source-line="100" data-uid="lnk29" id="link_Project_Company"><path codeLine="100" d="M588.36,365.61 C588.36,513.53 588.36,829.77 588.36,829.77 C588.36,829.77 667.21,829.77 751.38,829.77" fill="none" id="Project-Company" style="stroke:#181818;stroke-width:1;"/><text fill="#000000" font-family="sans-serif" font-size="13" lengthAdjust="spacing" textLength="6.5" x="580.4799" y="385.2546">*</text><text fill="#000000" font-family="sans-serif" font-size="13" lengthAdjust="spacing" textLength="8.271" x="735.4315" y="824.9482">1</text></g><!--link User to User--><g class="link" data-entity-1="User" data-entity-2="User" data-source-line="101" data-uid="lnk30" id="link_User_User"><path codeLine="101" d="M1175.08,440.99 C1175.08,432.24 1175.08,426.77 1175.08,426.77 C1175.08,426.77 1214.94,426.77 1214.94,426.77 C1214.94,426.77 1214.94,702.77 1214.94,702.77 C1214.94,702.77 1172.69,702.77 1172.69,702.77 C1172.69,702.77 1172.69,703.07 1172.69,693.98" fill="none" id="User-to-User" style="stroke:#181818;stroke-width:1;"/><polygon fill="#181818" points="1172.69,687.98,1168.69,696.98,1172.69,692.98,1176.69,696.98,1172.69,687.98" style="stroke:#181818;stroke-width:1;"/><text fill="#000000" font-family="sans-serif" font-size="13" lengthAdjust="spacing" textLength="6.5" x="1181.8759" y="430.4845">*</text><text fill="#000000" font-family="sans-serif" font-size="13" lengthAdjust="spacing" textLength="8.271" x="1177.2833" y="707.6208">1</text></g><!--link User to User--><g class="link" data-entity-1="User" data-entity-2="User" data-source-line="102" data-uid="lnk31" id="link_User_User"><path codeLine="102" d="M1170.01,441.22 C1170.01,423.85 1170.01,411.77 1170.01,411.77 C1170.01,411.77 1249.73,411.77 1249.73,411.77 C1249.73,411.77 1249.73,717.77 1249.73,717.77 C1249.73,717.77 1165.24,717.77 1165.24,717.77 C1165.24,717.77 1165.24,711.48 1165.24,693.86" fill="none" id="User-to-User-1" style="stroke:#181818;stroke-width:1;"/><polygon fill="#181818" points="1165.24,687.86,1161.24,696.86,1165.24,692.86,1169.24,696.86,1165.24,687.86" style="stroke:#181818;stroke-width:1;"/><text fill="#000000" font-family="sans-serif" font-size="13" lengthAdjust="spacing" textLength="6.5" x="1177.1886" y="430.3192">*</text><text fill="#000000" font-family="sans-serif" font-size="13" lengthAdjust="spacing" textLength="8.271" x="1169.4026" y="707.4939">1</text></g><!--link User to User--><g class="link" data-entity-1="User" data-entity-2="User" data-source-line="103" data-uid="lnk32" id="link_User_User"><path codeLine="103" d="M1164.94,441.29 C1164.94,415.92 1164.94,396.77 1164.94,396.77 C1164.94,396.77 1284.53,396.77 1284.53,396.77 C1284.53,396.77 1284.53,732.77 1284.53,732.77 C1284.53,732.77 1157.79,732.77 1157.79,732.77 C1157.79,732.77 1157.79,719.34 1157.79,693.69" fill="none" id="User-to-User-2" style="stroke:#181818;stroke-width:1;"/><polygon fill="#181818" points="1157.79,687.69,1153.79,696.69,1157.79,692.69,1161.79,696.69,1157.79,687.69" style="stroke:#181818;stroke-width:1;"/><text fill="#000000" font-family="sans-serif" font-size="13" lengthAdjust="spacing" textLength="6.5" x="1171.8097" y="430.3935">*</text><text fill="#000000" font-family="sans-serif" font-size="13" lengthAdjust="spacing" textLength="8.271" x="1162.156" y="707.7225">1</text></g><!--link Address to User--><g class="link" data-entity-1="Address" data-entity-2="User" data-source-line="105" data-uid="lnk34" id="link_Address_User"><path codeLine="105" d="M1149.74,349.32 C1149.74,376.16 1149.74,403.07 1149.74,435.01" fill="none" id="Address-to-User" style="stroke:#181818;stroke-width:1;"/><polygon fill="#181818" points="1149.74,441.01,1153.74,432.01,1149.74,436.01,1145.74,432.01,1149.74,441.01" style="stroke:#181818;stroke-width:1;"/><text fill="#000000" font-family="sans-serif" font-size="13" lengthAdjust="spacing" textLength="6.5" x="1133.9103" y="369.0084">*</text><text fill="#000000" font-family="sans-serif" font-size="13" lengthAdjust="spacing" textLength="8.271" x="1153.0065" y="430.5057">1</text></g><!--link Address to User--><g class="link" data-entity-1="Address" data-entity-2="User" data-source-line="106" data-uid="lnk35" id="link_Address_User"><path codeLine="106" d="M1154.81,349.32 C1154.81,376.16 1154.81,403.07 1154.81,435.01" fill="none" id="Address-to-User-1" style="stroke:#181818;stroke-width:1;"/><polygon fill="#181818" points="1154.81,441.01,1158.81,432.01,1154.81,436.01,1150.81,432.01,1154.81,441.01" style="stroke:#181818;stroke-width:1;"/><text fill="#000000" font-family="sans-serif" font-size="13" lengthAdjust="spacing" textLength="6.5" x="1146.2603" y="369.0084">*</text><text fill="#000000" font-family="sans-serif" font-size="13" lengthAdjust="spacing" textLength="8.271" x="1158.3696" y="430.5057">1</text></g><!--link Address to User--><g class="link" data-entity-1="Address" data-entity-2="User" data-source-line="107" data-uid="lnk36" id="link_Address_User"><path codeLine="107" d="M1159.88,349.32 C1159.88,376.16 1159.88,403.07 1159.88,435.01" fill="none" id="Address-to-User-2" style="stroke:#181818;stroke-width:1;"/><polygon fill="#181818" points="1159.88,441.01,1163.88,432.01,1159.88,436.01,1155.88,432.01,1159.88,441.01" style="stroke:#181818;stroke-width:1;"/><text fill="#000000" font-family="sans-serif" font-size="13" lengthAdjust="spacing" textLength="6.5" x="1151.9165" y="369.0084">*</text><text fill="#000000" font-family="sans-serif" font-size="13" lengthAdjust="spacing" textLength="8.271" x="1163.7327" y="430.5057">1</text></g><!--link UserModulePermission to User--><g class="link" data-entity-1="UserModulePermission" data-entity-2="User" data-source-line="108" data-uid="lnk37" id="link_UserModulePermission_User"><path codeLine="108" d="M1553.48,61.77 C1383.62,61.77 1116.85,61.77 1116.85,61.77 C1116.85,61.77 1116.85,286.37 1116.85,435.22" fill="none" id="UserModulePermission-to-User" style="stroke:#181818;stroke-width:1;"/><polygon fill="#181818" points="1116.85,441.22,1120.85,432.22,1116.85,436.22,1112.85,432.22,1116.85,441.22" style="stroke:#181818;stroke-width:1;"/><text fill="#000000" font-family="sans-serif" font-size="13" lengthAdjust="spacing" textLength="6.5" x="1539.3708" y="56.7322">*</text><text fill="#000000" font-family="sans-serif" font-size="13" lengthAdjust="spacing" textLength="8.271" x="1118.7213" y="430.3192">1</text></g><!--link UserModulePermission to User--><g class="link" data-entity-1="UserModulePermission" data-entity-2="User" data-source-line="109" data-uid="lnk38" id="link_UserModulePermission_User"><path codeLine="109" d="M1553.7,81.77 C1385.84,81.77 1123.81,81.77 1123.81,81.77 C1123.81,81.77 1123.81,292.12 1123.81,435.15" fill="none" id="UserModulePermission-to-User-1" style="stroke:#181818;stroke-width:1;"/><polygon fill="#181818" points="1123.81,441.15,1127.81,432.15,1123.81,436.15,1119.81,432.15,1123.81,441.15" style="stroke:#181818;stroke-width:1;"/><text fill="#000000" font-family="sans-serif" font-size="13" lengthAdjust="spacing" textLength="6.5" x="1539.1659" y="77.8372">*</text><text fill="#000000" font-family="sans-serif" font-size="13" lengthAdjust="spacing" textLength="8.271" x="1134.5929" y="430.2449">1</text></g><!--link UserModulePermission to User--><g class="link" data-entity-1="UserModulePermission" data-entity-2="User" data-source-line="110" data-uid="lnk39" id="link_UserModulePermission_User"><path codeLine="110" d="M1553.59,100.77 C1387.72,100.77 1130.76,100.77 1130.76,100.77 C1130.76,100.77 1130.76,297.78 1130.76,435.17" fill="none" id="UserModulePermission-to-User-2" style="stroke:#181818;stroke-width:1;"/><polygon fill="#181818" points="1130.76,441.17,1134.76,432.17,1130.76,436.17,1126.76,432.17,1130.76,441.17" style="stroke:#181818;stroke-width:1;"/><text fill="#000000" font-family="sans-serif" font-size="13" lengthAdjust="spacing" textLength="6.5" x="1539.4872" y="97.9869">*</text><text fill="#000000" font-family="sans-serif" font-size="13" lengthAdjust="spacing" textLength="8.271" x="1141.9664" y="430.2662">1</text></g><!--link UserModulePermission to User--><g class="link" data-entity-1="UserModulePermission" data-entity-2="User" data-source-line="111" data-uid="lnk40" id="link_UserModulePermission_User"><path codeLine="111" d="M1553.52,120.77 C1389.66,120.77 1137.72,120.77 1137.72,120.77 C1137.72,120.77 1137.72,309.9 1137.72,441.22" fill="none" id="UserModulePermission-User" style="stroke:#181818;stroke-width:1;"/><text fill="#000000" font-family="sans-serif" font-size="13" lengthAdjust="spacing" textLength="6.5" x="1539.4131" y="119.1431">*</text><text fill="#000000" font-family="sans-serif" font-size="13" lengthAdjust="spacing" textLength="8.271" x="1165.7206" y="430.4983">1</text></g><!--link UserModulePermission to Module--><g class="link" data-entity-1="UserModulePermission" data-entity-2="Module" data-source-line="112" data-uid="lnk41" id="link_UserModulePermission_Module"><path codeLine="112" d="M1672.53,140.76 C1672.53,168.67 1672.53,203.59 1672.53,232.73" fill="none" id="UserModulePermission-Module" style="stroke:#181818;stroke-width:1;"/><text fill="#000000" font-family="sans-serif" font-size="13" lengthAdjust="spacing" textLength="6.5" x="1663.679" y="160.5648">*</text><text fill="#000000" font-family="sans-serif" font-size="13" lengthAdjust="spacing" textLength="8.271" x="1675.5912" y="222.2033">1</text></g><!--SRC=[tLLBRnCn4Bxlht3JGoMaI5JYL0bGI2lKGwG8Y7eWg7BMqyJKBzcpqANgVsUycnSRRvII5WAdREPXV_FDD-C0o08uxZbQpyOiEtAUJpLdHO1BW-0r2CaHXZo_vLC8x8Qh05cubIOcQQQa0ImTCEjnPjSS0sdwYeTm9GNEsEchbzbC2c2vzBc2-Xkqmv9fq1Fm8Jl26MXWryOQkCxocCjwpeql34eintsh7JVbUsyBn-wpBZESeizOG2_DbBrc9oTapAs8nhTBgocKgkmnMr81P-pSvj4ByKXj3Vqe1JbAQyBQT_QmYQ4teNDvZlNV2eKKyRgFfRwnfWP9y0sEHrACHmLvbn0eJtwBu2RMAZAZBo0xPW8K88WUBYAFMUw1Dqo54x-Qg7wBLJcRjTRfxygLQPw-RfhVkp8zj7BUJdSqNjmXc42CfR3GVo299Jm_f4k2ZyGc6rWOz6M_fRzkHhGdyq2fbBtmIJDeBbMxWERo8t-RCbU8lFrAIdg4uEBjJjaIzbJfm8f2GQtEFDsMP3CHxZ1TUffpMX5-I1j2XjZz_J0FQxOgq04v5fMofS5rmORSIuVo4INHKRuU6yeufn7u93LSQbqWdn15gxORiKCKOPPJ0z3e_uXuM6DBIPh_j4IsZ5froFqs1NghAc5mxtaywVENg38wvhlrud-OlT-PcFbORgUxotGr4aybrfuG7iXq_tmarzwqh5lKCsZKMC7BkVa0NAnUdVhzhXnNNY9iUk9ORrLuJMOZPBvqbW9lsu-T5ntMxRvXdTDEiu2_aTDuqGymQw7b0mnlHgyt8DlKnevtF6VqufavmF3zekVKPysXtH7A7uZT0V5Yh-uwJyyQdbof_sxk4wRMOJy1]--></g></svg>