<svg xmlns="http://www.w3.org/2000/svg" xmlns:xlink="http://www.w3.org/1999/xlink" contentStyleType="text/css" data-diagram-type="CLASS" height="951px" preserveAspectRatio="none" style="width:1641px;height:951px;background:#FFFFFF;" version="1.1" viewBox="0 0 1641 951" width="1641px" zoomAndPan="magnify"><defs/><g><!--cluster Entity--><g class="cluster" data-entity="Entity" data-source-line="8" data-uid="ent0004" id="cluster_Entity"><path d="M8.5,6 L92.3311,6 A3.75,3.75 0 0 1 94.8311,8.5 L101.8311,28.2969 L1631.5,28.2969 A2.5,2.5 0 0 1 1634,30.7969 L1634,942.08 A2.5,2.5 0 0 1 1631.5,944.58 L8.5,944.58 A2.5,2.5 0 0 1 6,942.08 L6,8.5 A2.5,2.5 0 0 1 8.5,6" fill="none" style="stroke:#000000;stroke-width:1.5;"/><line style="stroke:#000000;stroke-width:1.5;" x1="6" x2="101.8311" y1="28.2969" y2="28.2969"/><text fill="#000000" font-family="sans-serif" font-size="14" font-weight="bold" lengthAdjust="spacing" textLength="82.8311" x="10" y="20.9951">App\Entity</text></g><!--class CompanyGroup--><g class="entity" data-entity="CompanyGroup" data-source-line="8" data-uid="ent0002" id="entity_CompanyGroup"><rect fill="#F1F1F1" height="83.1875" rx="2.5" ry="2.5" style="stroke:#181818;stroke-width:0.5;" width="398.3125" x="21.84" y="249.38"/><text fill="#000000" font-family="sans-serif" font-size="14" lengthAdjust="spacing" textLength="109.5322" x="166.2301" y="267.3751">CompanyGroup</text><line style="stroke:#181818;stroke-width:0.5;" x1="22.84" x2="419.1525" y1="275.6769" y2="275.6769"/><rect fill="none" height="6" style="stroke:#C82930;stroke-width:1;" width="6" x="29.84" y="286.3253"/><text fill="#000000" font-family="sans-serif" font-size="14" lengthAdjust="spacing" textLength="121.8369" x="41.84" y="292.672">name : string = ''</text><rect fill="none" height="6" style="stroke:#C82930;stroke-width:1;" width="6" x="29.84" y="302.6222"/><text fill="#000000" font-family="sans-serif" font-size="14" lengthAdjust="spacing" textLength="141.1553" x="41.84" y="308.9689">code : ?string = null</text><rect fill="none" height="6" style="stroke:#C82930;stroke-width:1;" width="6" x="29.84" y="318.9191"/><text fill="#000000" font-family="sans-serif" font-size="14" lengthAdjust="spacing" textLength="372.3125" x="41.84" y="325.2657">companies : Doctrine\Common\Collections\Collection</text></g><!--class AbstractEntity--><g class="entity" data-entity="AbstractEntity" data-source-line="13" data-uid="ent0005" id="entity_AbstractEntity"><rect fill="#F1F1F1" height="180.9688" rx="2.5" ry="2.5" style="stroke:#181818;stroke-width:0.5;" width="317.792" x="1263.1" y="200.49"/><text fill="#000000" font-family="sans-serif" font-size="14" lengthAdjust="spacing" textLength="99.6406" x="1372.1757" y="218.4851">AbstractEntity</text><line style="stroke:#181818;stroke-width:0.5;" x1="1264.1" x2="1579.892" y1="226.7869" y2="226.7869"/><rect fill="none" height="6" style="stroke:#C82930;stroke-width:1;" width="6" x="1271.1" y="237.4353"/><text fill="#000000" font-family="sans-serif" font-size="14" lengthAdjust="spacing" textLength="291.792" x="1283.1" y="243.782">id : ?Symfony\Component\Uid\Uuid = null</text><rect fill="none" height="6" style="stroke:#C82930;stroke-width:1;" width="6" x="1271.1" y="253.7322"/><text fill="#000000" font-family="sans-serif" font-size="14" lengthAdjust="spacing" textLength="135.4404" x="1283.1" y="260.0789">active : bool = true</text><polygon fill="none" points="1274.1,268.0291,1278.1,272.0291,1274.1,276.0291,1270.1,272.0291" style="stroke:#B38D22;stroke-width:1;"/><text fill="#000000" font-family="sans-serif" font-size="14" lengthAdjust="spacing" textLength="114.2148" x="1283.1" y="276.3757">deletedAt = null</text><polygon fill="none" points="1274.1,284.3259,1278.1,288.3259,1274.1,292.3259,1270.1,288.3259" style="stroke:#B38D22;stroke-width:1;"/><text fill="#000000" font-family="sans-serif" font-size="14" lengthAdjust="spacing" textLength="114.8574" x="1283.1" y="292.6726">createdAt = null</text><polygon fill="none" points="1274.1,300.6228,1278.1,304.6228,1274.1,308.6228,1270.1,304.6228" style="stroke:#B38D22;stroke-width:1;"/><text fill="#000000" font-family="sans-serif" font-size="14" lengthAdjust="spacing" textLength="119.4375" x="1283.1" y="308.9695">updatedAt = null</text><rect fill="none" height="6" style="stroke:#C82930;stroke-width:1;" width="6" x="1271.1" y="318.9197"/><text fill="#000000" font-family="sans-serif" font-size="14" lengthAdjust="spacing" textLength="146.2275" x="1283.1" y="325.2664">notes : ?string = null</text><rect fill="none" height="6" style="stroke:#C82930;stroke-width:1;" width="6" x="1271.1" y="335.2166"/><text fill="#000000" font-family="sans-serif" font-size="14" lengthAdjust="spacing" textLength="117.6807" x="1283.1" y="341.5632">createdBy = null</text><rect fill="none" height="6" style="stroke:#C82930;stroke-width:1;" width="6" x="1271.1" y="351.5134"/><text fill="#000000" font-family="sans-serif" font-size="14" lengthAdjust="spacing" textLength="122.2607" x="1283.1" y="357.8601">updatedBy = null</text><rect fill="none" height="6" style="stroke:#C82930;stroke-width:1;" width="6" x="1271.1" y="367.8103"/><text fill="#000000" font-family="sans-serif" font-size="14" lengthAdjust="spacing" textLength="117.0381" x="1283.1" y="374.157">deletedBy = null</text></g><!--class Company--><g class="entity" data-entity="Company" data-source-line="24" data-uid="ent0006" id="entity_Company"><rect fill="#F1F1F1" height="246.1563" rx="2.5" ry="2.5" style="stroke:#181818;stroke-width:0.5;" width="398.6748" x="810.66" y="682.42"/><text fill="#000000" font-family="sans-serif" font-size="14" lengthAdjust="spacing" textLength="66.6025" x="976.6961" y="700.4151">Company</text><line style="stroke:#181818;stroke-width:0.5;" x1="811.66" x2="1208.3348" y1="708.7169" y2="708.7169"/><rect fill="none" height="6" style="stroke:#C82930;stroke-width:1;" width="6" x="818.66" y="719.3653"/><text fill="#000000" font-family="sans-serif" font-size="14" lengthAdjust="spacing" textLength="121.8369" x="830.66" y="725.712">name : string = ''</text><rect fill="none" height="6" style="stroke:#C82930;stroke-width:1;" width="6" x="818.66" y="735.6622"/><text fill="#000000" font-family="sans-serif" font-size="14" lengthAdjust="spacing" textLength="215.8242" x="830.66" y="742.0089">nameExtension : ?string = null</text><rect fill="none" height="6" style="stroke:#C82930;stroke-width:1;" width="6" x="818.66" y="751.9591"/><text fill="#000000" font-family="sans-serif" font-size="14" lengthAdjust="spacing" textLength="151.2041" x="830.66" y="758.3057">phone : ?string = null</text><rect fill="none" height="6" style="stroke:#C82930;stroke-width:1;" width="6" x="818.66" y="768.2559"/><text fill="#000000" font-family="sans-serif" font-size="14" lengthAdjust="spacing" textLength="131.4824" x="830.66" y="774.6026">cell : ?string = null</text><rect fill="none" height="6" style="stroke:#C82930;stroke-width:1;" width="6" x="818.66" y="784.5528"/><text fill="#000000" font-family="sans-serif" font-size="14" lengthAdjust="spacing" textLength="125.9111" x="830.66" y="790.8995">url : ?string = null</text><rect fill="none" height="6" style="stroke:#C82930;stroke-width:1;" width="6" x="818.66" y="800.8497"/><text fill="#000000" font-family="sans-serif" font-size="14" lengthAdjust="spacing" textLength="146.002" x="830.66" y="807.1964">email : ?string = null</text><rect fill="none" height="6" style="stroke:#C82930;stroke-width:1;" width="6" x="818.66" y="817.1466"/><text fill="#000000" font-family="sans-serif" font-size="14" lengthAdjust="spacing" textLength="148.6475" x="830.66" y="823.4932">street : ?string = null</text><rect fill="none" height="6" style="stroke:#C82930;stroke-width:1;" width="6" x="818.66" y="833.4434"/><text fill="#000000" font-family="sans-serif" font-size="14" lengthAdjust="spacing" textLength="127.5176" x="830.66" y="839.7901">zip : ?string = null</text><rect fill="none" height="6" style="stroke:#C82930;stroke-width:1;" width="6" x="818.66" y="849.7403"/><text fill="#000000" font-family="sans-serif" font-size="14" lengthAdjust="spacing" textLength="132.7539" x="830.66" y="856.087">city : ?string = null</text><rect fill="none" height="6" style="stroke:#C82930;stroke-width:1;" width="6" x="818.66" y="866.0372"/><text fill="#000000" font-family="sans-serif" font-size="14" lengthAdjust="spacing" textLength="196.7725" x="830.66" y="872.3839">countryCode : ?string = null</text><rect fill="none" height="6" style="stroke:#C82930;stroke-width:1;" width="6" x="818.66" y="882.3341"/><text fill="#000000" font-family="sans-serif" font-size="14" lengthAdjust="spacing" textLength="361.8467" x="830.66" y="888.6807">companyGroup : ?App\Entity\CompanyGroup = null</text><rect fill="none" height="6" style="stroke:#C82930;stroke-width:1;" width="6" x="818.66" y="898.6309"/><text fill="#000000" font-family="sans-serif" font-size="14" lengthAdjust="spacing" textLength="352.4678" x="830.66" y="904.9776">projects : Doctrine\Common\Collections\Collection</text><rect fill="none" height="6" style="stroke:#C82930;stroke-width:1;" width="6" x="818.66" y="914.9278"/><text fill="#000000" font-family="sans-serif" font-size="14" lengthAdjust="spacing" textLength="372.6748" x="830.66" y="921.2745">employees : Doctrine\Common\Collections\Collection</text></g><!--class Module--><g class="entity" data-entity="Module" data-source-line="39" data-uid="ent0007" id="entity_Module"><rect fill="#F1F1F1" height="115.7813" rx="2.5" ry="2.5" style="stroke:#181818;stroke-width:0.5;" width="436.3613" x="791.82" y="233.08"/><text fill="#000000" font-family="sans-serif" font-size="14" lengthAdjust="spacing" textLength="50.9072" x="984.5471" y="251.0751">Module</text><line style="stroke:#181818;stroke-width:0.5;" x1="792.82" x2="1227.1813" y1="259.3769" y2="259.3769"/><rect fill="none" height="6" style="stroke:#C82930;stroke-width:1;" width="6" x="799.82" y="270.0253"/><text fill="#000000" font-family="sans-serif" font-size="14" lengthAdjust="spacing" textLength="136.418" x="811.82" y="276.372">icon : ?string = null</text><rect fill="none" height="6" style="stroke:#C82930;stroke-width:1;" width="6" x="799.82" y="286.3222"/><text fill="#000000" font-family="sans-serif" font-size="14" lengthAdjust="spacing" textLength="121.8369" x="811.82" y="292.6689">name : string = ''</text><rect fill="none" height="6" style="stroke:#C82930;stroke-width:1;" width="6" x="799.82" y="302.6191"/><text fill="#000000" font-family="sans-serif" font-size="14" lengthAdjust="spacing" textLength="135.2695" x="811.82" y="308.9657">text : ?string = null</text><rect fill="none" height="6" style="stroke:#C82930;stroke-width:1;" width="6" x="799.82" y="318.9159"/><text fill="#000000" font-family="sans-serif" font-size="14" lengthAdjust="spacing" textLength="141.1553" x="811.82" y="325.2626">code : ?string = null</text><rect fill="none" height="6" style="stroke:#C82930;stroke-width:1;" width="6" x="799.82" y="335.2128"/><text fill="#000000" font-family="sans-serif" font-size="14" lengthAdjust="spacing" textLength="410.3613" x="811.82" y="341.5595">userPermissions : Doctrine\Common\Collections\Collection</text></g><!--class Project--><g class="entity" data-entity="Project" data-source-line="46" data-uid="ent0008" id="entity_Project"><rect fill="#F1F1F1" height="148.375" rx="2.5" ry="2.5" style="stroke:#181818;stroke-width:0.5;" width="302.2676" x="454.87" y="216.78"/><text fill="#000000" font-family="sans-serif" font-size="14" lengthAdjust="spacing" textLength="48.4531" x="581.7772" y="234.7751">Project</text><line style="stroke:#181818;stroke-width:0.5;" x1="455.87" x2="756.1376" y1="243.0769" y2="243.0769"/><rect fill="none" height="6" style="stroke:#C82930;stroke-width:1;" width="6" x="462.87" y="253.7253"/><text fill="#000000" font-family="sans-serif" font-size="14" lengthAdjust="spacing" textLength="104.4258" x="474.87" y="260.072">status : int = 0</text><rect fill="none" height="6" style="stroke:#C82930;stroke-width:1;" width="6" x="462.87" y="270.0222"/><text fill="#000000" font-family="sans-serif" font-size="14" lengthAdjust="spacing" textLength="185.2334" x="474.87" y="276.3689">description : ?string = null</text><rect fill="none" height="6" style="stroke:#C82930;stroke-width:1;" width="6" x="462.87" y="286.3191"/><text fill="#000000" font-family="sans-serif" font-size="14" lengthAdjust="spacing" textLength="121.8369" x="474.87" y="292.6657">name : string = ''</text><rect fill="none" height="6" style="stroke:#C82930;stroke-width:1;" width="6" x="462.87" y="302.6159"/><text fill="#000000" font-family="sans-serif" font-size="14" lengthAdjust="spacing" textLength="276.2676" x="474.87" y="308.9626">startedAt : ?DateTimeImmutable = null</text><rect fill="none" height="6" style="stroke:#C82930;stroke-width:1;" width="6" x="462.87" y="318.9128"/><text fill="#000000" font-family="sans-serif" font-size="14" lengthAdjust="spacing" textLength="270.0332" x="474.87" y="325.2595">endedAt : ?DateTimeImmutable = null</text><rect fill="none" height="6" style="stroke:#C82930;stroke-width:1;" width="6" x="462.87" y="335.2097"/><text fill="#000000" font-family="sans-serif" font-size="14" lengthAdjust="spacing" textLength="238.8135" x="474.87" y="341.5564">assignee : ?App\Entity\User = null</text><rect fill="none" height="6" style="stroke:#C82930;stroke-width:1;" width="6" x="462.87" y="351.5066"/><text fill="#000000" font-family="sans-serif" font-size="14" lengthAdjust="spacing" textLength="249.915" x="474.87" y="357.8532">client : ?App\Entity\Company = null</text></g><!--class User--><g class="entity" data-entity="User" data-source-line="55" data-uid="ent0009" id="entity_User"><rect fill="#F1F1F1" height="180.9688" rx="2.5" ry="2.5" style="stroke:#181818;stroke-width:0.5;" width="458.291" x="780.85" y="441.45"/><text fill="#000000" font-family="sans-serif" font-size="14" lengthAdjust="spacing" textLength="31.9102" x="994.0404" y="459.4451">User</text><line style="stroke:#181818;stroke-width:0.5;" x1="781.85" x2="1238.141" y1="467.7469" y2="467.7469"/><rect fill="none" height="6" style="stroke:#C82930;stroke-width:1;" width="6" x="788.85" y="478.3953"/><text fill="#000000" font-family="sans-serif" font-size="14" lengthAdjust="spacing" textLength="146.002" x="800.85" y="484.742">email : ?string = null</text><rect fill="none" height="6" style="stroke:#C82930;stroke-width:1;" width="6" x="788.85" y="494.6922"/><text fill="#000000" font-family="sans-serif" font-size="14" lengthAdjust="spacing" textLength="116.2451" x="800.85" y="501.0389">roles : array = []</text><rect fill="none" height="6" style="stroke:#C82930;stroke-width:1;" width="6" x="788.85" y="510.9891"/><text fill="#000000" font-family="sans-serif" font-size="14" lengthAdjust="spacing" textLength="174.1045" x="800.85" y="517.3357">password : ?string = null</text><rect fill="none" height="6" style="stroke:#C82930;stroke-width:1;" width="6" x="788.85" y="527.2859"/><text fill="#000000" font-family="sans-serif" font-size="14" lengthAdjust="spacing" textLength="151.2041" x="800.85" y="533.6326">phone : ?string = null</text><rect fill="none" height="6" style="stroke:#C82930;stroke-width:1;" width="6" x="788.85" y="543.5828"/><text fill="#000000" font-family="sans-serif" font-size="14" lengthAdjust="spacing" textLength="131.4824" x="800.85" y="549.9295">cell : ?string = null</text><rect fill="none" height="6" style="stroke:#C82930;stroke-width:1;" width="6" x="788.85" y="559.8797"/><text fill="#000000" font-family="sans-serif" font-size="14" lengthAdjust="spacing" textLength="125.9111" x="800.85" y="566.2264">url : ?string = null</text><rect fill="none" height="6" style="stroke:#C82930;stroke-width:1;" width="6" x="788.85" y="576.1766"/><text fill="#000000" font-family="sans-serif" font-size="14" lengthAdjust="spacing" textLength="352.4678" x="800.85" y="582.5232">projects : Doctrine\Common\Collections\Collection</text><rect fill="none" height="6" style="stroke:#C82930;stroke-width:1;" width="6" x="788.85" y="592.4734"/><text fill="#000000" font-family="sans-serif" font-size="14" lengthAdjust="spacing" textLength="275.9873" x="800.85" y="598.8201">company : ?App\Entity\Company = null</text><rect fill="none" height="6" style="stroke:#C82930;stroke-width:1;" width="6" x="788.85" y="608.7703"/><text fill="#000000" font-family="sans-serif" font-size="14" lengthAdjust="spacing" textLength="432.291" x="800.85" y="615.117">modulePermissions : Doctrine\Common\Collections\Collection</text></g><!--class UserModulePermission--><g class="entity" data-entity="UserModulePermission" data-source-line="66" data-uid="ent0010" id="entity_UserModulePermission"><rect fill="#F1F1F1" height="99.4844" rx="2.5" ry="2.5" style="stroke:#181818;stroke-width:0.5;" width="274.2334" x="1343.88" y="41"/><text fill="#000000" font-family="sans-serif" font-size="14" lengthAdjust="spacing" textLength="159.0723" x="1401.4606" y="58.9951">UserModulePermission</text><line style="stroke:#181818;stroke-width:0.5;" x1="1344.88" x2="1617.1134" y1="67.2969" y2="67.2969"/><rect fill="none" height="6" style="stroke:#C82930;stroke-width:1;" width="6" x="1351.88" y="77.9453"/><text fill="#000000" font-family="sans-serif" font-size="14" lengthAdjust="spacing" textLength="158.416" x="1363.88" y="84.292">canRead : bool = false</text><rect fill="none" height="6" style="stroke:#C82930;stroke-width:1;" width="6" x="1351.88" y="94.2422"/><text fill="#000000" font-family="sans-serif" font-size="14" lengthAdjust="spacing" textLength="160.2002" x="1363.88" y="100.5889">canWrite : bool = false</text><rect fill="none" height="6" style="stroke:#C82930;stroke-width:1;" width="6" x="1351.88" y="110.5391"/><text fill="#000000" font-family="sans-serif" font-size="14" lengthAdjust="spacing" textLength="207.3066" x="1363.88" y="116.8857">user : ?App\Entity\User = null</text><rect fill="none" height="6" style="stroke:#C82930;stroke-width:1;" width="6" x="1351.88" y="126.8359"/><text fill="#000000" font-family="sans-serif" font-size="14" lengthAdjust="spacing" textLength="248.2334" x="1363.88" y="133.1826">module : ?App\Entity\Module = null</text></g><!--link CompanyGroup to User--><g class="link" data-entity-1="CompanyGroup" data-entity-2="User" data-source-line="72" data-uid="lnk11" id="link_CompanyGroup_User"><path codeLine="72" d="M340.49,332.67 C340.49,390.38 340.49,487.58 340.49,487.58 C340.49,487.58 580.72,487.58 774.53,487.58" fill="none" id="CompanyGroup-to-User" style="stroke:#181818;stroke-width:1;"/><polygon fill="#181818" points="780.53,487.58,771.53,483.58,775.53,487.58,771.53,491.58,780.53,487.58" style="stroke:#181818;stroke-width:1;"/><text fill="#000000" font-family="sans-serif" font-size="13" lengthAdjust="spacing" textLength="6.5" x="353.096" y="352.5881">*</text><text fill="#000000" font-family="sans-serif" font-size="13" lengthAdjust="spacing" textLength="8.271" x="764.8739" y="482.9476">1</text></g><!--link CompanyGroup to User--><g class="link" data-entity-1="CompanyGroup" data-entity-2="User" data-source-line="73" data-uid="lnk12" id="link_CompanyGroup_User"><path codeLine="73" d="M260.83,333.06 C260.83,402.28 260.83,532.58 260.83,532.58 C260.83,532.58 554.14,532.58 774.39,532.58" fill="none" id="CompanyGroup-to-User-1" style="stroke:#181818;stroke-width:1;"/><polygon fill="#181818" points="780.39,532.58,771.39,528.58,775.39,532.58,771.39,536.58,780.39,532.58" style="stroke:#181818;stroke-width:1;"/><text fill="#000000" font-family="sans-serif" font-size="13" lengthAdjust="spacing" textLength="6.5" x="260.5084" y="352.73">*</text><text fill="#000000" font-family="sans-serif" font-size="13" lengthAdjust="spacing" textLength="8.271" x="764.7293" y="529.4242">1</text></g><!--link CompanyGroup to User--><g class="link" data-entity-1="CompanyGroup" data-entity-2="User" data-source-line="74" data-uid="lnk13" id="link_CompanyGroup_User"><path codeLine="74" d="M181.17,332.95 C181.17,412.56 181.17,577.58 181.17,577.58 C181.17,577.58 529.2,577.58 774.5,577.58" fill="none" id="CompanyGroup-to-User-2" style="stroke:#181818;stroke-width:1;"/><polygon fill="#181818" points="780.5,577.58,771.5,573.58,775.5,577.58,771.5,581.58,780.5,577.58" style="stroke:#181818;stroke-width:1;"/><text fill="#000000" font-family="sans-serif" font-size="13" lengthAdjust="spacing" textLength="6.5" x="168.6505" y="352.6031">*</text><text fill="#000000" font-family="sans-serif" font-size="13" lengthAdjust="spacing" textLength="8.271" x="764.8429" y="575.9007">1</text></g><!--link AbstractEntity to User--><g class="link" data-entity-1="AbstractEntity" data-entity-2="User" data-source-line="75" data-uid="lnk14" id="link_AbstractEntity_User"><path codeLine="75" d="M1262.88,377.58 C1243.5,377.58 1230.37,377.58 1230.37,377.58 C1230.37,377.58 1230.37,401.66 1230.37,435.26" fill="none" id="AbstractEntity-to-User" style="stroke:#181818;stroke-width:1;"/><polygon fill="#181818" points="1230.37,441.26,1234.37,432.26,1230.37,436.26,1226.37,432.26,1230.37,441.26" style="stroke:#181818;stroke-width:1;"/><text fill="#000000" font-family="sans-serif" font-size="13" lengthAdjust="spacing" textLength="6.5" x="1248.5338" y="394.5026">*</text><text fill="#000000" font-family="sans-serif" font-size="13" lengthAdjust="spacing" textLength="8.271" x="1239.6231" y="430.5089">1</text></g><!--link AbstractEntity to User--><g class="link" data-entity-1="AbstractEntity" data-entity-2="User" data-source-line="76" data-uid="lnk15" id="link_AbstractEntity_User"><path codeLine="76" d="M1262.79,369.58 C1174.65,369.58 1082.73,369.58 1082.73,369.58 C1082.73,369.58 1082.73,398.08 1082.73,435.27" fill="none" id="AbstractEntity-to-User-1" style="stroke:#181818;stroke-width:1;"/><polygon fill="#181818" points="1082.73,441.27,1086.73,432.27,1082.73,436.27,1078.73,432.27,1082.73,441.27" style="stroke:#181818;stroke-width:1;"/><text fill="#000000" font-family="sans-serif" font-size="13" lengthAdjust="spacing" textLength="6.5" x="1248.4391" y="370.3167">*</text><text fill="#000000" font-family="sans-serif" font-size="13" lengthAdjust="spacing" textLength="8.271" x="1080.2181" y="430.5197">1</text></g><!--link AbstractEntity to User--><g class="link" data-entity-1="AbstractEntity" data-entity-2="User" data-source-line="77" data-uid="lnk16" id="link_AbstractEntity_User"><path codeLine="77" d="M1262.72,373.58 C1205.79,373.58 1155.45,373.58 1155.45,373.58 C1155.45,373.58 1155.45,399.82 1155.45,435.2" fill="none" id="AbstractEntity-to-User-2" style="stroke:#181818;stroke-width:1;"/><polygon fill="#181818" points="1155.45,441.2,1159.45,432.2,1155.45,436.2,1151.45,432.2,1155.45,441.2" style="stroke:#181818;stroke-width:1;"/><text fill="#000000" font-family="sans-serif" font-size="13" lengthAdjust="spacing" textLength="6.5" x="1248.8239" y="393.6778">*</text><text fill="#000000" font-family="sans-serif" font-size="13" lengthAdjust="spacing" textLength="8.271" x="1158.733" y="430.4441">1</text></g><!--link Company to User--><g class="link" data-entity-1="Company" data-entity-2="User" data-source-line="78" data-uid="lnk17" id="link_Company_User"><path codeLine="78" d="M890.4,681.93 C890.4,661.96 890.4,647.62 890.4,628.62" fill="none" id="Company-to-User" style="stroke:#181818;stroke-width:1;"/><polygon fill="#181818" points="890.4,622.62,886.4,631.62,890.4,627.62,894.4,631.62,890.4,622.62" style="stroke:#181818;stroke-width:1;"/><text fill="#000000" font-family="sans-serif" font-size="13" lengthAdjust="spacing" textLength="6.5" x="877.3268" y="671.4234">*</text><text fill="#000000" font-family="sans-serif" font-size="13" lengthAdjust="spacing" textLength="8.271" x="872.5618" y="642.5164">1</text></g><!--link Company to User--><g class="link" data-entity-1="Company" data-entity-2="User" data-source-line="79" data-uid="lnk18" id="link_Company_User"><path codeLine="79" d="M970.13,681.93 C970.13,661.96 970.13,647.62 970.13,628.62" fill="none" id="Company-to-User-1" style="stroke:#181818;stroke-width:1;"/><polygon fill="#181818" points="970.13,622.62,966.13,631.62,970.13,627.62,974.13,631.62,970.13,622.62" style="stroke:#181818;stroke-width:1;"/><text fill="#000000" font-family="sans-serif" font-size="13" lengthAdjust="spacing" textLength="6.5" x="961.6662" y="671.4234">*</text><text fill="#000000" font-family="sans-serif" font-size="13" lengthAdjust="spacing" textLength="8.271" x="958.6453" y="642.5164">1</text></g><!--link Company to User--><g class="link" data-entity-1="Company" data-entity-2="User" data-source-line="80" data-uid="lnk19" id="link_Company_User"><path codeLine="80" d="M1049.87,681.93 C1049.87,661.96 1049.87,647.62 1049.87,628.62" fill="none" id="Company-to-User-2" style="stroke:#181818;stroke-width:1;"/><polygon fill="#181818" points="1049.87,622.62,1045.87,631.62,1049.87,627.62,1053.87,631.62,1049.87,622.62" style="stroke:#181818;stroke-width:1;"/><text fill="#000000" font-family="sans-serif" font-size="13" lengthAdjust="spacing" textLength="6.5" x="1046.0162" y="671.4234">*</text><text fill="#000000" font-family="sans-serif" font-size="13" lengthAdjust="spacing" textLength="8.271" x="1044.7395" y="642.5164">1</text></g><!--link User to Company--><g class="link" data-entity-1="User" data-entity-2="Company" data-source-line="93" data-uid="lnk32" id="link_User_Company"><path codeLine="93" d="M1129.6,622.65 C1129.6,641.78 1129.6,662.27 1129.6,682.37" fill="none" id="User-Company" style="stroke:#181818;stroke-width:1;"/><text fill="#000000" font-family="sans-serif" font-size="13" lengthAdjust="spacing" textLength="6.5" x="1132.9118" y="642.5487">*</text><text fill="#000000" font-family="sans-serif" font-size="13" lengthAdjust="spacing" textLength="8.271" x="1128.6528" y="671.4808">1</text></g><!--link Company to CompanyGroup--><g class="link" data-entity-1="Company" data-entity-2="CompanyGroup" data-source-line="81" data-uid="lnk20" id="link_Company_CompanyGroup"><path codeLine="81" d="M810.35,846.58 C542.89,846.58 101.51,846.58 101.51,846.58 C101.51,846.58 101.51,461.94 101.51,332.73" fill="none" id="Company-CompanyGroup" style="stroke:#181818;stroke-width:1;"/><text fill="#000000" font-family="sans-serif" font-size="13" lengthAdjust="spacing" textLength="6.5" x="796.4439" y="844.9613">*</text><text fill="#000000" font-family="sans-serif" font-size="13" lengthAdjust="spacing" textLength="8.271" x="73.851" y="352.6577">1</text></g><!--link Module to User--><g class="link" data-entity-1="Module" data-entity-2="User" data-source-line="82" data-uid="lnk21" id="link_Module_User"><path codeLine="82" d="M864.55,349.3 C864.55,376.88 864.55,404.44 864.55,435.24" fill="none" id="Module-to-User" style="stroke:#181818;stroke-width:1;"/><polygon fill="#181818" points="864.55,441.24,868.55,432.24,864.55,436.24,860.55,432.24,864.55,441.24" style="stroke:#181818;stroke-width:1;"/><text fill="#000000" font-family="sans-serif" font-size="13" lengthAdjust="spacing" textLength="6.5" x="841.4143" y="368.9861">*</text><text fill="#000000" font-family="sans-serif" font-size="13" lengthAdjust="spacing" textLength="8.271" x="844.6519" y="430.4873">1</text></g><!--link Module to User--><g class="link" data-entity-1="Module" data-entity-2="User" data-source-line="83" data-uid="lnk22" id="link_Module_User"><path codeLine="83" d="M937.27,349.3 C937.27,376.88 937.27,404.44 937.27,435.24" fill="none" id="Module-to-User-1" style="stroke:#181818;stroke-width:1;"/><polygon fill="#181818" points="937.27,441.24,941.27,432.24,937.27,436.24,933.27,432.24,937.27,441.24" style="stroke:#181818;stroke-width:1;"/><text fill="#000000" font-family="sans-serif" font-size="13" lengthAdjust="spacing" textLength="6.5" x="922.5425" y="368.9861">*</text><text fill="#000000" font-family="sans-serif" font-size="13" lengthAdjust="spacing" textLength="8.271" x="923.1667" y="430.4873">1</text></g><!--link Module to User--><g class="link" data-entity-1="Module" data-entity-2="User" data-source-line="84" data-uid="lnk23" id="link_Module_User"><path codeLine="84" d="M1010,349.3 C1010,376.88 1010,404.44 1010,435.24" fill="none" id="Module-to-User-2" style="stroke:#181818;stroke-width:1;"/><polygon fill="#181818" points="1010,441.24,1014,432.24,1010,436.24,1006,432.24,1010,441.24" style="stroke:#181818;stroke-width:1;"/><text fill="#000000" font-family="sans-serif" font-size="13" lengthAdjust="spacing" textLength="6.5" x="1003.682" y="368.9861">*</text><text fill="#000000" font-family="sans-serif" font-size="13" lengthAdjust="spacing" textLength="8.271" x="1001.6924" y="430.4873">1</text></g><!--link Project to User--><g class="link" data-entity-1="Project" data-entity-2="User" data-source-line="85" data-uid="lnk24" id="link_Project_User"><path codeLine="85" d="M757.22,352.58 C776.48,352.58 789.63,352.58 789.63,352.58 C789.63,352.58 789.63,390.72 789.63,435.21" fill="none" id="Project-to-User" style="stroke:#181818;stroke-width:1;"/><polygon fill="#181818" points="789.63,441.21,793.63,432.21,789.63,436.21,785.63,432.21,789.63,441.21" style="stroke:#181818;stroke-width:1;"/><text fill="#000000" font-family="sans-serif" font-size="13" lengthAdjust="spacing" textLength="6.5" x="765.1847" y="352.4405">*</text><text fill="#000000" font-family="sans-serif" font-size="13" lengthAdjust="spacing" textLength="8.271" x="772.3992" y="430.4549">1</text></g><!--link Project to User--><g class="link" data-entity-1="Project" data-entity-2="User" data-source-line="86" data-uid="lnk25" id="link_Project_User"><path codeLine="86" d="M757.47,355.58 C775.37,355.58 787.43,355.58 787.43,355.58 C787.43,355.58 787.43,391.96 787.43,435.18" fill="none" id="Project-to-User-1" style="stroke:#181818;stroke-width:1;"/><polygon fill="#181818" points="787.43,441.18,791.43,432.18,787.43,436.18,783.43,432.18,787.43,441.18" style="stroke:#181818;stroke-width:1;"/><text fill="#000000" font-family="sans-serif" font-size="13" lengthAdjust="spacing" textLength="6.5" x="764.9641" y="371.1431">*</text><text fill="#000000" font-family="sans-serif" font-size="13" lengthAdjust="spacing" textLength="8.271" x="764.9243" y="431.9567">1</text></g><!--link Project to User--><g class="link" data-entity-1="Project" data-entity-2="User" data-source-line="87" data-uid="lnk26" id="link_Project_User"><path codeLine="87" d="M757.63,359.58 C774.21,359.58 785.24,359.58 785.24,359.58 C785.24,359.58 785.24,393.53 785.24,434.96" fill="none" id="Project-to-User-2" style="stroke:#181818;stroke-width:1;"/><polygon fill="#181818" points="785.24,440.96,789.24,431.96,785.24,435.96,781.24,431.96,785.24,440.96" style="stroke:#181818;stroke-width:1;"/><text fill="#000000" font-family="sans-serif" font-size="13" lengthAdjust="spacing" textLength="6.5" x="765.3545" y="378.6696">*</text><text fill="#000000" font-family="sans-serif" font-size="13" lengthAdjust="spacing" textLength="8.271" x="764.7373" y="448.4655">1</text></g><!--link Project to User--><g class="link" data-entity-1="Project" data-entity-2="User" data-source-line="88" data-uid="lnk27" id="link_Project_User"><path codeLine="88" d="M757.3,362.58 C772.83,362.58 783.05,362.58 783.05,362.58 C783.05,362.58 783.05,401.04 783.05,441.31" fill="none" id="Project-User" style="stroke:#181818;stroke-width:1;"/><text fill="#000000" font-family="sans-serif" font-size="13" lengthAdjust="spacing" textLength="6.5" x="765.2688" y="378.7296">*</text><text fill="#000000" font-family="sans-serif" font-size="13" lengthAdjust="spacing" textLength="8.271" x="764.5914" y="433.9336">1</text></g><!--link Project to Company--><g class="link" data-entity-1="Project" data-entity-2="Company" data-source-line="89" data-uid="lnk28" id="link_Project_Company"><path codeLine="89" d="M606,365.49 C606,498.87 606,764.58 606,764.58 C606,764.58 708.58,764.58 810.37,764.58" fill="none" id="Project-Company" style="stroke:#181818;stroke-width:1;"/><text fill="#000000" font-family="sans-serif" font-size="13" lengthAdjust="spacing" textLength="6.5" x="599.7461" y="385.1245">*</text><text fill="#000000" font-family="sans-serif" font-size="13" lengthAdjust="spacing" textLength="8.271" x="794.4211" y="759.7582">1</text></g><!--link User to User--><g class="link" data-entity-1="User" data-entity-2="User" data-source-line="90" data-uid="lnk29" id="link_User_User"><path codeLine="90" d="M1236.95,441.23 C1236.95,432.37 1236.95,426.58 1236.95,426.58 C1236.95,426.58 1245.14,426.58 1245.14,426.58 C1245.14,426.58 1245.14,637.58 1245.14,637.58 C1245.14,637.58 1231.69,637.58 1231.69,637.58 C1231.69,637.58 1231.69,637.78 1231.69,628.89" fill="none" id="User-to-User" style="stroke:#181818;stroke-width:1;"/><polygon fill="#181818" points="1231.69,622.89,1227.69,631.89,1231.69,627.89,1235.69,631.89,1231.69,622.89" style="stroke:#181818;stroke-width:1;"/><text fill="#000000" font-family="sans-serif" font-size="13" lengthAdjust="spacing" textLength="6.5" x="1247.3811" y="433.85">*</text><text fill="#000000" font-family="sans-serif" font-size="13" lengthAdjust="spacing" textLength="8.271" x="1240.3676" y="642.5">1</text></g><!--link User to User--><g class="link" data-entity-1="User" data-entity-2="User" data-source-line="91" data-uid="lnk30" id="link_User_User"><path codeLine="91" d="M1234.76,441.02 C1234.76,424.08 1234.76,411.58 1234.76,411.58 C1234.76,411.58 1251.12,411.58 1251.12,411.58 C1251.12,411.58 1251.12,652.58 1251.12,652.58 C1251.12,652.58 1224.24,652.58 1224.24,652.58 C1224.24,652.58 1224.24,645.9 1224.24,628.76" fill="none" id="User-to-User-1" style="stroke:#181818;stroke-width:1;"/><polygon fill="#181818" points="1224.24,622.76,1220.24,631.76,1224.24,627.76,1228.24,631.76,1224.24,622.76" style="stroke:#181818;stroke-width:1;"/><text fill="#000000" font-family="sans-serif" font-size="13" lengthAdjust="spacing" textLength="6.5" x="1246.4518" y="430.2498">*</text><text fill="#000000" font-family="sans-serif" font-size="13" lengthAdjust="spacing" textLength="8.271" x="1232.3472" y="642.36">1</text></g><!--link User to User--><g class="link" data-entity-1="User" data-entity-2="User" data-source-line="92" data-uid="lnk31" id="link_User_User"><path codeLine="92" d="M1232.57,441.28 C1232.57,416.62 1232.57,396.58 1232.57,396.58 C1232.57,396.58 1257.11,396.58 1257.11,396.58 C1257.11,396.58 1257.11,667.58 1257.11,667.58 C1257.11,667.58 1216.79,667.58 1216.79,667.58 C1216.79,667.58 1216.79,653.5 1216.79,628.79" fill="none" id="User-to-User-2" style="stroke:#181818;stroke-width:1;"/><polygon fill="#181818" points="1216.79,622.79,1212.79,631.79,1216.79,627.79,1220.79,631.79,1216.79,622.79" style="stroke:#181818;stroke-width:1;"/><text fill="#000000" font-family="sans-serif" font-size="13" lengthAdjust="spacing" textLength="6.5" x="1247.0369" y="432.0631">*</text><text fill="#000000" font-family="sans-serif" font-size="13" lengthAdjust="spacing" textLength="8.271" x="1224.3268" y="642.3923">1</text></g><!--link UserModulePermission to User--><g class="link" data-entity-1="UserModulePermission" data-entity-2="User" data-source-line="94" data-uid="lnk33" id="link_UserModulePermission_User"><path codeLine="94" d="M1588.34,140.65 C1588.34,245.4 1588.34,478.58 1588.34,478.58 C1588.34,478.58 1406.87,478.58 1245.41,478.58" fill="none" id="UserModulePermission-to-User" style="stroke:#181818;stroke-width:1;"/><polygon fill="#181818" points="1239.41,478.58,1248.41,482.58,1244.41,478.58,1248.41,474.58,1239.41,478.58" style="stroke:#181818;stroke-width:1;"/><text fill="#000000" font-family="sans-serif" font-size="13" lengthAdjust="spacing" textLength="6.5" x="1596.3947" y="160.44">*</text><text fill="#000000" font-family="sans-serif" font-size="13" lengthAdjust="spacing" textLength="8.271" x="1247.0734" y="473.6523">1</text></g><!--link UserModulePermission to User--><g class="link" data-entity-1="UserModulePermission" data-entity-2="User" data-source-line="95" data-uid="lnk34" id="link_UserModulePermission_User"><path codeLine="95" d="M1595.78,140.61 C1595.78,252.65 1595.78,514.58 1595.78,514.58 C1595.78,514.58 1409.62,514.58 1245.42,514.58" fill="none" id="UserModulePermission-to-User-1" style="stroke:#181818;stroke-width:1;"/><polygon fill="#181818" points="1239.42,514.58,1248.42,518.58,1244.42,514.58,1248.42,510.58,1239.42,514.58" style="stroke:#181818;stroke-width:1;"/><text fill="#000000" font-family="sans-serif" font-size="13" lengthAdjust="spacing" textLength="6.5" x="1604.8345" y="160.3946">*</text><text fill="#000000" font-family="sans-serif" font-size="13" lengthAdjust="spacing" textLength="8.271" x="1247.0837" y="510.8335">1</text></g><!--link UserModulePermission to User--><g class="link" data-entity-1="UserModulePermission" data-entity-2="User" data-source-line="96" data-uid="lnk35" id="link_UserModulePermission_User"><path codeLine="96" d="M1603.23,140.83 C1603.23,260.01 1603.23,550.58 1603.23,550.58 C1603.23,550.58 1412.29,550.58 1245.36,550.58" fill="none" id="UserModulePermission-to-User-2" style="stroke:#181818;stroke-width:1;"/><polygon fill="#181818" points="1239.36,550.58,1248.36,554.58,1244.36,550.58,1248.36,546.58,1239.36,550.58" style="stroke:#181818;stroke-width:1;"/><text fill="#000000" font-family="sans-serif" font-size="13" lengthAdjust="spacing" textLength="6.5" x="1613.2856" y="160.6442">*</text><text fill="#000000" font-family="sans-serif" font-size="13" lengthAdjust="spacing" textLength="8.271" x="1247.0217" y="548.0148">1</text></g><!--link UserModulePermission to User--><g class="link" data-entity-1="UserModulePermission" data-entity-2="User" data-source-line="97" data-uid="lnk36" id="link_UserModulePermission_User"><path codeLine="97" d="M1610.67,140.56 C1610.67,266.29 1610.67,586.58 1610.67,586.58 C1610.67,586.58 1408.89,586.58 1239.23,586.58" fill="none" id="UserModulePermission-User" style="stroke:#181818;stroke-width:1;"/><text fill="#000000" font-family="sans-serif" font-size="13" lengthAdjust="spacing" textLength="6.5" x="1622.5186" y="160.6966">*</text><text fill="#000000" font-family="sans-serif" font-size="13" lengthAdjust="spacing" textLength="8.271" x="1246.8875" y="585.196">1</text></g><!--link UserModulePermission to Module--><g class="link" data-entity-1="UserModulePermission" data-entity-2="Module" data-source-line="98" data-uid="lnk37" id="link_UserModulePermission_Module"><path codeLine="98" d="M1343.5,91.58 C1204.48,91.58 1010,91.58 1010,91.58 C1010,91.58 1010,173.91 1010,232.76" fill="none" id="UserModulePermission-Module" style="stroke:#181818;stroke-width:1;"/><text fill="#000000" font-family="sans-serif" font-size="13" lengthAdjust="spacing" textLength="6.5" x="1329.392" y="88.2656">*</text><text fill="#000000" font-family="sans-serif" font-size="13" lengthAdjust="spacing" textLength="8.271" x="1001.5289" y="221.8265">1</text></g><!--SRC=[pLLBQzj04BxhLsoSGw1WIA2dG5jS9vGS3AQjoQ4EOQsTsDliYzrH6pNaltTMaX-LryPkajOdITyyzfkPRrO1a0Lmt7EqderPTkGydshEYW1N1i5h498Z37b-pwSGs1rN0R9mBqqCqan90rWwODRZpAuO1jBq5G_XMWgSiREtfzbC2c2vzBc2-Xsqmv9fq1Fm8Jl26MXWjyOQkCto6Cjwpeql3Keintsh7JVb9syBnnwpBZESlCzPG2_DbBrZ9oS4vbP4yCC2DOLI5HwZ9HLmpYvi7gqGKsfhwA4Kv2Yj2IllsTCwXzw4yl8Swy-AXHJnk2-blhEc9adq3Ov7Ken71LaN52XE_eZa9jOgWj4Na1qp0GeGH0_ddiSizy1RKE74dn3LRx4gPxtMElnZkOIQy5MeENS9FMti-UPsH_3o0S44wbYAYvjHEv8aGQaKNlWa39hBf86-WJISiFoIBdbmd5nI8OL1N_Qt2gYH7zatANDPkRVVIKbx22vMwPGjuPag7LXHAAZLcQV7aXmcmWEcIq-tXAu8FwGRGeOu_UTn7jRTgaW7v5Z4TD94kPzMOWsvbmxb7kLG6b-l34LSaFo_IWrNMXV89zIUfRICsC6B-Cgf0MZDVaGzMEcKahJxQNbiMRCgoUCsbNkhAb5mxtdCzEqcAepI_BHUlERU_OsAcrNPteOkqvLCNqf0iOU3LiQgfpatdu6BvRrR_y4gmxMN2EkMAEojSwwfjroQjLkCUTCDqNdJOTtkUzOvwxGB-1ynhN_Q0KRDbNE0xctlrG5awzhOyOpNz9vVj0Ve_ZplflLPUsbtfF8FV7Tal7QBxN7IWSM-O6ZjzXi0]--></g></svg>