<svg xmlns="http://www.w3.org/2000/svg" xmlns:xlink="http://www.w3.org/1999/xlink" contentStyleType="text/css" data-diagram-type="CLASS" height="951px" preserveAspectRatio="none" style="width:1641px;height:951px;background:#FFFFFF;" version="1.1" viewBox="0 0 1641 951" width="1641px" zoomAndPan="magnify"><defs/><g><!--cluster Entity--><g class="cluster" data-entity="Entity" data-source-line="8" data-uid="ent0004" id="cluster_Entity"><path d="M8.5,6 L92.3311,6 A3.75,3.75 0 0 1 94.8311,8.5 L101.8311,28.2969 L1631.5,28.2969 A2.5,2.5 0 0 1 1634,30.7969 L1634,942.08 A2.5,2.5 0 0 1 1631.5,944.58 L8.5,944.58 A2.5,2.5 0 0 1 6,942.08 L6,8.5 A2.5,2.5 0 0 1 8.5,6" fill="none" style="stroke:#000000;stroke-width:1.5;"/><line style="stroke:#000000;stroke-width:1.5;" x1="6" x2="101.8311" y1="28.2969" y2="28.2969"/><text fill="#000000" font-family="sans-serif" font-size="14" font-weight="bold" lengthAdjust="spacing" textLength="82.8311" x="10" y="20.9951">App\Entity</text></g><!--class CompanyGroup--><g class="entity" data-entity="CompanyGroup" data-source-line="8" data-uid="ent0002" id="entity_CompanyGroup"><rect fill="#F1F1F1" height="83.1875" rx="2.5" ry="2.5" style="stroke:#181818;stroke-width:0.5;" width="398.3125" x="21.84" y="249.38"/><text fill="#000000" font-family="sans-serif" font-size="14" lengthAdjust="spacing" textLength="109.5322" x="166.2301" y="267.3751">CompanyGroup</text><line style="stroke:#181818;stroke-width:0.5;" x1="22.84" x2="419.1525" y1="275.6769" y2="275.6769"/><rect fill="none" height="6" style="stroke:#C82930;stroke-width:1;" width="6" x="29.84" y="286.3253"/><text fill="#000000" font-family="sans-serif" font-size="14" lengthAdjust="spacing" textLength="121.8369" x="41.84" y="292.672">name : string = ''</text><rect fill="none" height="6" style="stroke:#C82930;stroke-width:1;" width="6" x="29.84" y="302.6222"/><text fill="#000000" font-family="sans-serif" font-size="14" lengthAdjust="spacing" textLength="141.1553" x="41.84" y="308.9689">code : ?string = null</text><rect fill="none" height="6" style="stroke:#C82930;stroke-width:1;" width="6" x="29.84" y="318.9191"/><text fill="#000000" font-family="sans-serif" font-size="14" lengthAdjust="spacing" textLength="372.3125" x="41.84" y="325.2657">companies : Doctrine\Common\Collections\Collection</text></g><!--class AbstractEntity--><g class="entity" data-entity="AbstractEntity" data-source-line="13" data-uid="ent0005" id="entity_AbstractEntity"><rect fill="#F1F1F1" height="180.9688" rx="2.5" ry="2.5" style="stroke:#181818;stroke-width:0.5;" width="317.792" x="455.1" y="200.49"/><text fill="#000000" font-family="sans-serif" font-size="14" lengthAdjust="spacing" textLength="99.6406" x="564.1757" y="218.4851">AbstractEntity</text><line style="stroke:#181818;stroke-width:0.5;" x1="456.1" x2="771.892" y1="226.7869" y2="226.7869"/><rect fill="none" height="6" style="stroke:#C82930;stroke-width:1;" width="6" x="463.1" y="237.4353"/><text fill="#000000" font-family="sans-serif" font-size="14" lengthAdjust="spacing" textLength="291.792" x="475.1" y="243.782">id : ?Symfony\Component\Uid\Uuid = null</text><rect fill="none" height="6" style="stroke:#C82930;stroke-width:1;" width="6" x="463.1" y="253.7322"/><text fill="#000000" font-family="sans-serif" font-size="14" lengthAdjust="spacing" textLength="135.4404" x="475.1" y="260.0789">active : bool = true</text><polygon fill="none" points="466.1,268.0291,470.1,272.0291,466.1,276.0291,462.1,272.0291" style="stroke:#B38D22;stroke-width:1;"/><text fill="#000000" font-family="sans-serif" font-size="14" lengthAdjust="spacing" textLength="114.2148" x="475.1" y="276.3757">deletedAt = null</text><polygon fill="none" points="466.1,284.3259,470.1,288.3259,466.1,292.3259,462.1,288.3259" style="stroke:#B38D22;stroke-width:1;"/><text fill="#000000" font-family="sans-serif" font-size="14" lengthAdjust="spacing" textLength="114.8574" x="475.1" y="292.6726">createdAt = null</text><polygon fill="none" points="466.1,300.6228,470.1,304.6228,466.1,308.6228,462.1,304.6228" style="stroke:#B38D22;stroke-width:1;"/><text fill="#000000" font-family="sans-serif" font-size="14" lengthAdjust="spacing" textLength="119.4375" x="475.1" y="308.9695">updatedAt = null</text><rect fill="none" height="6" style="stroke:#C82930;stroke-width:1;" width="6" x="463.1" y="318.9197"/><text fill="#000000" font-family="sans-serif" font-size="14" lengthAdjust="spacing" textLength="146.2275" x="475.1" y="325.2664">notes : ?string = null</text><rect fill="none" height="6" style="stroke:#C82930;stroke-width:1;" width="6" x="463.1" y="335.2166"/><text fill="#000000" font-family="sans-serif" font-size="14" lengthAdjust="spacing" textLength="117.6807" x="475.1" y="341.5632">createdBy = null</text><rect fill="none" height="6" style="stroke:#C82930;stroke-width:1;" width="6" x="463.1" y="351.5134"/><text fill="#000000" font-family="sans-serif" font-size="14" lengthAdjust="spacing" textLength="122.2607" x="475.1" y="357.8601">updatedBy = null</text><rect fill="none" height="6" style="stroke:#C82930;stroke-width:1;" width="6" x="463.1" y="367.8103"/><text fill="#000000" font-family="sans-serif" font-size="14" lengthAdjust="spacing" textLength="117.0381" x="475.1" y="374.157">deletedBy = null</text></g><!--class Company--><g class="entity" data-entity="Company" data-source-line="24" data-uid="ent0006" id="entity_Company"><rect fill="#F1F1F1" height="246.1563" rx="2.5" ry="2.5" style="stroke:#181818;stroke-width:0.5;" width="398.6748" x="609.66" y="682.42"/><text fill="#000000" font-family="sans-serif" font-size="14" lengthAdjust="spacing" textLength="66.6025" x="775.6961" y="700.4151">Company</text><line style="stroke:#181818;stroke-width:0.5;" x1="610.66" x2="1007.3348" y1="708.7169" y2="708.7169"/><rect fill="none" height="6" style="stroke:#C82930;stroke-width:1;" width="6" x="617.66" y="719.3653"/><text fill="#000000" font-family="sans-serif" font-size="14" lengthAdjust="spacing" textLength="121.8369" x="629.66" y="725.712">name : string = ''</text><rect fill="none" height="6" style="stroke:#C82930;stroke-width:1;" width="6" x="617.66" y="735.6622"/><text fill="#000000" font-family="sans-serif" font-size="14" lengthAdjust="spacing" textLength="215.8242" x="629.66" y="742.0089">nameExtension : ?string = null</text><rect fill="none" height="6" style="stroke:#C82930;stroke-width:1;" width="6" x="617.66" y="751.9591"/><text fill="#000000" font-family="sans-serif" font-size="14" lengthAdjust="spacing" textLength="151.2041" x="629.66" y="758.3057">phone : ?string = null</text><rect fill="none" height="6" style="stroke:#C82930;stroke-width:1;" width="6" x="617.66" y="768.2559"/><text fill="#000000" font-family="sans-serif" font-size="14" lengthAdjust="spacing" textLength="131.4824" x="629.66" y="774.6026">cell : ?string = null</text><rect fill="none" height="6" style="stroke:#C82930;stroke-width:1;" width="6" x="617.66" y="784.5528"/><text fill="#000000" font-family="sans-serif" font-size="14" lengthAdjust="spacing" textLength="125.9111" x="629.66" y="790.8995">url : ?string = null</text><rect fill="none" height="6" style="stroke:#C82930;stroke-width:1;" width="6" x="617.66" y="800.8497"/><text fill="#000000" font-family="sans-serif" font-size="14" lengthAdjust="spacing" textLength="146.002" x="629.66" y="807.1964">email : ?string = null</text><rect fill="none" height="6" style="stroke:#C82930;stroke-width:1;" width="6" x="617.66" y="817.1466"/><text fill="#000000" font-family="sans-serif" font-size="14" lengthAdjust="spacing" textLength="148.6475" x="629.66" y="823.4932">street : ?string = null</text><rect fill="none" height="6" style="stroke:#C82930;stroke-width:1;" width="6" x="617.66" y="833.4434"/><text fill="#000000" font-family="sans-serif" font-size="14" lengthAdjust="spacing" textLength="127.5176" x="629.66" y="839.7901">zip : ?string = null</text><rect fill="none" height="6" style="stroke:#C82930;stroke-width:1;" width="6" x="617.66" y="849.7403"/><text fill="#000000" font-family="sans-serif" font-size="14" lengthAdjust="spacing" textLength="132.7539" x="629.66" y="856.087">city : ?string = null</text><rect fill="none" height="6" style="stroke:#C82930;stroke-width:1;" width="6" x="617.66" y="866.0372"/><text fill="#000000" font-family="sans-serif" font-size="14" lengthAdjust="spacing" textLength="196.7725" x="629.66" y="872.3839">countryCode : ?string = null</text><rect fill="none" height="6" style="stroke:#C82930;stroke-width:1;" width="6" x="617.66" y="882.3341"/><text fill="#000000" font-family="sans-serif" font-size="14" lengthAdjust="spacing" textLength="361.8467" x="629.66" y="888.6807">companyGroup : ?App\Entity\CompanyGroup = null</text><rect fill="none" height="6" style="stroke:#C82930;stroke-width:1;" width="6" x="617.66" y="898.6309"/><text fill="#000000" font-family="sans-serif" font-size="14" lengthAdjust="spacing" textLength="352.4678" x="629.66" y="904.9776">projects : Doctrine\Common\Collections\Collection</text><rect fill="none" height="6" style="stroke:#C82930;stroke-width:1;" width="6" x="617.66" y="914.9278"/><text fill="#000000" font-family="sans-serif" font-size="14" lengthAdjust="spacing" textLength="372.6748" x="629.66" y="921.2745">employees : Doctrine\Common\Collections\Collection</text></g><!--class SystemEntity--><g class="entity" data-entity="SystemEntity" data-source-line="39" data-uid="ent0007" id="entity_SystemEntity"><rect fill="#F1F1F1" height="115.7813" rx="2.5" ry="2.5" style="stroke:#181818;stroke-width:0.5;" width="436.3613" x="844.82" y="233.08"/><text fill="#000000" font-family="sans-serif" font-size="14" lengthAdjust="spacing" textLength="93.0781" x="1016.4616" y="251.0751">SystemEntity</text><line style="stroke:#181818;stroke-width:0.5;" x1="845.82" x2="1280.1813" y1="259.3769" y2="259.3769"/><rect fill="none" height="6" style="stroke:#C82930;stroke-width:1;" width="6" x="852.82" y="270.0253"/><text fill="#000000" font-family="sans-serif" font-size="14" lengthAdjust="spacing" textLength="136.418" x="864.82" y="276.372">icon : ?string = null</text><rect fill="none" height="6" style="stroke:#C82930;stroke-width:1;" width="6" x="852.82" y="286.3222"/><text fill="#000000" font-family="sans-serif" font-size="14" lengthAdjust="spacing" textLength="121.8369" x="864.82" y="292.6689">name : string = ''</text><rect fill="none" height="6" style="stroke:#C82930;stroke-width:1;" width="6" x="852.82" y="302.6191"/><text fill="#000000" font-family="sans-serif" font-size="14" lengthAdjust="spacing" textLength="135.2695" x="864.82" y="308.9657">text : ?string = null</text><rect fill="none" height="6" style="stroke:#C82930;stroke-width:1;" width="6" x="852.82" y="318.9159"/><text fill="#000000" font-family="sans-serif" font-size="14" lengthAdjust="spacing" textLength="141.1553" x="864.82" y="325.2626">code : ?string = null</text><rect fill="none" height="6" style="stroke:#C82930;stroke-width:1;" width="6" x="852.82" y="335.2128"/><text fill="#000000" font-family="sans-serif" font-size="14" lengthAdjust="spacing" textLength="410.3613" x="864.82" y="341.5595">userPermissions : Doctrine\Common\Collections\Collection</text></g><!--class UserSystemEntityPermission--><g class="entity" data-entity="UserSystemEntityPermission" data-source-line="46" data-uid="ent0008" id="entity_UserSystemEntityPermission"><rect fill="#F1F1F1" height="99.4844" rx="2.5" ry="2.5" style="stroke:#181818;stroke-width:0.5;" width="355.4238" x="631.29" y="41"/><text fill="#000000" font-family="sans-serif" font-size="14" lengthAdjust="spacing" textLength="201.2432" x="708.3803" y="58.9951">UserSystemEntityPermission</text><line style="stroke:#181818;stroke-width:0.5;" x1="632.29" x2="985.7138" y1="67.2969" y2="67.2969"/><rect fill="none" height="6" style="stroke:#C82930;stroke-width:1;" width="6" x="639.29" y="77.9453"/><text fill="#000000" font-family="sans-serif" font-size="14" lengthAdjust="spacing" textLength="158.416" x="651.29" y="84.292">canRead : bool = false</text><rect fill="none" height="6" style="stroke:#C82930;stroke-width:1;" width="6" x="639.29" y="94.2422"/><text fill="#000000" font-family="sans-serif" font-size="14" lengthAdjust="spacing" textLength="160.2002" x="651.29" y="100.5889">canWrite : bool = false</text><rect fill="none" height="6" style="stroke:#C82930;stroke-width:1;" width="6" x="639.29" y="110.5391"/><text fill="#000000" font-family="sans-serif" font-size="14" lengthAdjust="spacing" textLength="207.3066" x="651.29" y="116.8857">user : ?App\Entity\User = null</text><rect fill="none" height="6" style="stroke:#C82930;stroke-width:1;" width="6" x="639.29" y="126.8359"/><text fill="#000000" font-family="sans-serif" font-size="14" lengthAdjust="spacing" textLength="329.4238" x="651.29" y="133.1826">systemEntity : ?App\Entity\SystemEntity = null</text></g><!--class User--><g class="entity" data-entity="User" data-source-line="52" data-uid="ent0009" id="entity_User"><rect fill="#F1F1F1" height="180.9688" rx="2.5" ry="2.5" style="stroke:#181818;stroke-width:0.5;" width="497.3105" x="560.34" y="441.45"/><text fill="#000000" font-family="sans-serif" font-size="14" lengthAdjust="spacing" textLength="31.9102" x="793.0402" y="459.4451">User</text><line style="stroke:#181818;stroke-width:0.5;" x1="561.34" x2="1056.6505" y1="467.7469" y2="467.7469"/><rect fill="none" height="6" style="stroke:#C82930;stroke-width:1;" width="6" x="568.34" y="478.3953"/><text fill="#000000" font-family="sans-serif" font-size="14" lengthAdjust="spacing" textLength="146.002" x="580.34" y="484.742">email : ?string = null</text><rect fill="none" height="6" style="stroke:#C82930;stroke-width:1;" width="6" x="568.34" y="494.6922"/><text fill="#000000" font-family="sans-serif" font-size="14" lengthAdjust="spacing" textLength="116.2451" x="580.34" y="501.0389">roles : array = []</text><rect fill="none" height="6" style="stroke:#C82930;stroke-width:1;" width="6" x="568.34" y="510.9891"/><text fill="#000000" font-family="sans-serif" font-size="14" lengthAdjust="spacing" textLength="174.1045" x="580.34" y="517.3357">password : ?string = null</text><rect fill="none" height="6" style="stroke:#C82930;stroke-width:1;" width="6" x="568.34" y="527.2859"/><text fill="#000000" font-family="sans-serif" font-size="14" lengthAdjust="spacing" textLength="151.2041" x="580.34" y="533.6326">phone : ?string = null</text><rect fill="none" height="6" style="stroke:#C82930;stroke-width:1;" width="6" x="568.34" y="543.5828"/><text fill="#000000" font-family="sans-serif" font-size="14" lengthAdjust="spacing" textLength="131.4824" x="580.34" y="549.9295">cell : ?string = null</text><rect fill="none" height="6" style="stroke:#C82930;stroke-width:1;" width="6" x="568.34" y="559.8797"/><text fill="#000000" font-family="sans-serif" font-size="14" lengthAdjust="spacing" textLength="125.9111" x="580.34" y="566.2264">url : ?string = null</text><rect fill="none" height="6" style="stroke:#C82930;stroke-width:1;" width="6" x="568.34" y="576.1766"/><text fill="#000000" font-family="sans-serif" font-size="14" lengthAdjust="spacing" textLength="352.4678" x="580.34" y="582.5232">projects : Doctrine\Common\Collections\Collection</text><rect fill="none" height="6" style="stroke:#C82930;stroke-width:1;" width="6" x="568.34" y="592.4734"/><text fill="#000000" font-family="sans-serif" font-size="14" lengthAdjust="spacing" textLength="275.9873" x="580.34" y="598.8201">company : ?App\Entity\Company = null</text><rect fill="none" height="6" style="stroke:#C82930;stroke-width:1;" width="6" x="568.34" y="608.7703"/><text fill="#000000" font-family="sans-serif" font-size="14" lengthAdjust="spacing" textLength="471.3105" x="580.34" y="615.117">systemEntityPermissions : Doctrine\Common\Collections\Collection</text></g><!--class Project--><g class="entity" data-entity="Project" data-source-line="63" data-uid="ent0010" id="entity_Project"><rect fill="#F1F1F1" height="148.375" rx="2.5" ry="2.5" style="stroke:#181818;stroke-width:0.5;" width="302.2676" x="1315.87" y="216.78"/><text fill="#000000" font-family="sans-serif" font-size="14" lengthAdjust="spacing" textLength="48.4531" x="1442.7772" y="234.7751">Project</text><line style="stroke:#181818;stroke-width:0.5;" x1="1316.87" x2="1617.1376" y1="243.0769" y2="243.0769"/><rect fill="none" height="6" style="stroke:#C82930;stroke-width:1;" width="6" x="1323.87" y="253.7253"/><text fill="#000000" font-family="sans-serif" font-size="14" lengthAdjust="spacing" textLength="185.9033" x="1335.87" y="260.072">status : string = 'planning'</text><rect fill="none" height="6" style="stroke:#C82930;stroke-width:1;" width="6" x="1323.87" y="270.0222"/><text fill="#000000" font-family="sans-serif" font-size="14" lengthAdjust="spacing" textLength="185.2334" x="1335.87" y="276.3689">description : ?string = null</text><rect fill="none" height="6" style="stroke:#C82930;stroke-width:1;" width="6" x="1323.87" y="286.3191"/><text fill="#000000" font-family="sans-serif" font-size="14" lengthAdjust="spacing" textLength="121.8369" x="1335.87" y="292.6657">name : string = ''</text><rect fill="none" height="6" style="stroke:#C82930;stroke-width:1;" width="6" x="1323.87" y="302.6159"/><text fill="#000000" font-family="sans-serif" font-size="14" lengthAdjust="spacing" textLength="276.2676" x="1335.87" y="308.9626">startedAt : ?DateTimeImmutable = null</text><rect fill="none" height="6" style="stroke:#C82930;stroke-width:1;" width="6" x="1323.87" y="318.9128"/><text fill="#000000" font-family="sans-serif" font-size="14" lengthAdjust="spacing" textLength="270.0332" x="1335.87" y="325.2595">endedAt : ?DateTimeImmutable = null</text><rect fill="none" height="6" style="stroke:#C82930;stroke-width:1;" width="6" x="1323.87" y="335.2097"/><text fill="#000000" font-family="sans-serif" font-size="14" lengthAdjust="spacing" textLength="238.8135" x="1335.87" y="341.5564">assignee : ?App\Entity\User = null</text><rect fill="none" height="6" style="stroke:#C82930;stroke-width:1;" width="6" x="1323.87" y="351.5066"/><text fill="#000000" font-family="sans-serif" font-size="14" lengthAdjust="spacing" textLength="249.915" x="1335.87" y="357.8532">client : ?App\Entity\Company = null</text></g><!--link CompanyGroup to User--><g class="link" data-entity-1="CompanyGroup" data-entity-2="User" data-source-line="72" data-uid="lnk11" id="link_CompanyGroup_User"><path codeLine="72" d="M340.49,332.67 C340.49,390.38 340.49,487.58 340.49,487.58 C340.49,487.58 441.99,487.58 554,487.58" fill="none" id="CompanyGroup-to-User" style="stroke:#181818;stroke-width:1;"/><polygon fill="#181818" points="560,487.58,551,483.58,555,487.58,551,491.58,560,487.58" style="stroke:#181818;stroke-width:1;"/><text fill="#000000" font-family="sans-serif" font-size="13" lengthAdjust="spacing" textLength="6.5" x="353.096" y="352.5881">*</text><text fill="#000000" font-family="sans-serif" font-size="13" lengthAdjust="spacing" textLength="8.271" x="543.703" y="482.9476">1</text></g><!--link CompanyGroup to User--><g class="link" data-entity-1="CompanyGroup" data-entity-2="User" data-source-line="73" data-uid="lnk12" id="link_CompanyGroup_User"><path codeLine="73" d="M260.83,333.06 C260.83,402.28 260.83,532.58 260.83,532.58 C260.83,532.58 409.25,532.58 554.18,532.58" fill="none" id="CompanyGroup-to-User-1" style="stroke:#181818;stroke-width:1;"/><polygon fill="#181818" points="560.18,532.58,551.18,528.58,555.18,532.58,551.18,536.58,560.18,532.58" style="stroke:#181818;stroke-width:1;"/><text fill="#000000" font-family="sans-serif" font-size="13" lengthAdjust="spacing" textLength="6.5" x="260.5084" y="352.73">*</text><text fill="#000000" font-family="sans-serif" font-size="13" lengthAdjust="spacing" textLength="8.271" x="543.8889" y="529.4242">1</text></g><!--link CompanyGroup to User--><g class="link" data-entity-1="CompanyGroup" data-entity-2="User" data-source-line="74" data-uid="lnk13" id="link_CompanyGroup_User"><path codeLine="74" d="M181.17,332.95 C181.17,412.56 181.17,577.58 181.17,577.58 C181.17,577.58 378.68,577.58 553.96,577.58" fill="none" id="CompanyGroup-to-User-2" style="stroke:#181818;stroke-width:1;"/><polygon fill="#181818" points="559.96,577.58,550.96,573.58,554.96,577.58,550.96,581.58,559.96,577.58" style="stroke:#181818;stroke-width:1;"/><text fill="#000000" font-family="sans-serif" font-size="13" lengthAdjust="spacing" textLength="6.5" x="168.6505" y="352.6031">*</text><text fill="#000000" font-family="sans-serif" font-size="13" lengthAdjust="spacing" textLength="8.271" x="544.452" y="575.7813">1</text></g><!--link AbstractEntity to User--><g class="link" data-entity-1="AbstractEntity" data-entity-2="User" data-source-line="75" data-uid="lnk14" id="link_AbstractEntity_User"><path codeLine="75" d="M681.8,381.73 C681.8,401.21 681.8,415.79 681.8,435.26" fill="none" id="AbstractEntity-to-User" style="stroke:#181818;stroke-width:1;"/><polygon fill="#181818" points="681.8,441.26,685.8,432.26,681.8,436.26,677.8,432.26,681.8,441.26" style="stroke:#181818;stroke-width:1;"/><text fill="#000000" font-family="sans-serif" font-size="13" lengthAdjust="spacing" textLength="6.5" x="680.984" y="401.6319">*</text><text fill="#000000" font-family="sans-serif" font-size="13" lengthAdjust="spacing" textLength="8.271" x="663.3562" y="430.5089">1</text></g><!--link AbstractEntity to User--><g class="link" data-entity-1="AbstractEntity" data-entity-2="User" data-source-line="76" data-uid="lnk15" id="link_AbstractEntity_User"><path codeLine="76" d="M712.17,381.73 C712.17,401.21 712.17,415.79 712.17,435.26" fill="none" id="AbstractEntity-to-User-1" style="stroke:#181818;stroke-width:1;"/><polygon fill="#181818" points="712.17,441.26,716.17,432.26,712.17,436.26,708.17,432.26,712.17,441.26" style="stroke:#181818;stroke-width:1;"/><text fill="#000000" font-family="sans-serif" font-size="13" lengthAdjust="spacing" textLength="6.5" x="713.7741" y="401.6319">*</text><text fill="#000000" font-family="sans-serif" font-size="13" lengthAdjust="spacing" textLength="8.271" x="696.1463" y="430.5089">1</text></g><!--link AbstractEntity to User--><g class="link" data-entity-1="AbstractEntity" data-entity-2="User" data-source-line="77" data-uid="lnk16" id="link_AbstractEntity_User"><path codeLine="77" d="M742.53,381.73 C742.53,401.21 742.53,415.79 742.53,435.26" fill="none" id="AbstractEntity-to-User-2" style="stroke:#181818;stroke-width:1;"/><polygon fill="#181818" points="742.53,441.26,746.53,432.26,742.53,436.26,738.53,432.26,742.53,441.26" style="stroke:#181818;stroke-width:1;"/><text fill="#000000" font-family="sans-serif" font-size="13" lengthAdjust="spacing" textLength="6.5" x="746.5534" y="401.6319">*</text><text fill="#000000" font-family="sans-serif" font-size="13" lengthAdjust="spacing" textLength="8.271" x="728.9256" y="430.5089">1</text></g><!--link Company to User--><g class="link" data-entity-1="Company" data-entity-2="User" data-source-line="78" data-uid="lnk17" id="link_Company_User"><path codeLine="78" d="M689.4,681.93 C689.4,661.96 689.4,647.62 689.4,628.62" fill="none" id="Company-to-User" style="stroke:#181818;stroke-width:1;"/><polygon fill="#181818" points="689.4,622.62,685.4,631.62,689.4,627.62,693.4,631.62,689.4,622.62" style="stroke:#181818;stroke-width:1;"/><text fill="#000000" font-family="sans-serif" font-size="13" lengthAdjust="spacing" textLength="6.5" x="676.3268" y="671.4234">*</text><text fill="#000000" font-family="sans-serif" font-size="13" lengthAdjust="spacing" textLength="8.271" x="671.5618" y="642.5164">1</text></g><!--link Company to User--><g class="link" data-entity-1="Company" data-entity-2="User" data-source-line="79" data-uid="lnk18" id="link_Company_User"><path codeLine="79" d="M769.13,681.93 C769.13,661.96 769.13,647.62 769.13,628.62" fill="none" id="Company-to-User-1" style="stroke:#181818;stroke-width:1;"/><polygon fill="#181818" points="769.13,622.62,765.13,631.62,769.13,627.62,773.13,631.62,769.13,622.62" style="stroke:#181818;stroke-width:1;"/><text fill="#000000" font-family="sans-serif" font-size="13" lengthAdjust="spacing" textLength="6.5" x="760.6662" y="671.4234">*</text><text fill="#000000" font-family="sans-serif" font-size="13" lengthAdjust="spacing" textLength="8.271" x="757.6453" y="642.5164">1</text></g><!--link Company to User--><g class="link" data-entity-1="Company" data-entity-2="User" data-source-line="80" data-uid="lnk19" id="link_Company_User"><path codeLine="80" d="M848.87,681.93 C848.87,661.96 848.87,647.62 848.87,628.62" fill="none" id="Company-to-User-2" style="stroke:#181818;stroke-width:1;"/><polygon fill="#181818" points="848.87,622.62,844.87,631.62,848.87,627.62,852.87,631.62,848.87,622.62" style="stroke:#181818;stroke-width:1;"/><text fill="#000000" font-family="sans-serif" font-size="13" lengthAdjust="spacing" textLength="6.5" x="845.0162" y="671.4234">*</text><text fill="#000000" font-family="sans-serif" font-size="13" lengthAdjust="spacing" textLength="8.271" x="843.7396" y="642.5164">1</text></g><!--link User to Company--><g class="link" data-entity-1="User" data-entity-2="Company" data-source-line="93" data-uid="lnk32" id="link_User_Company"><path codeLine="93" d="M928.6,622.65 C928.6,641.78 928.6,662.27 928.6,682.37" fill="none" id="User-Company" style="stroke:#181818;stroke-width:1;"/><text fill="#000000" font-family="sans-serif" font-size="13" lengthAdjust="spacing" textLength="6.5" x="931.9119" y="642.5487">*</text><text fill="#000000" font-family="sans-serif" font-size="13" lengthAdjust="spacing" textLength="8.271" x="927.6528" y="671.4808">1</text></g><!--link Company to CompanyGroup--><g class="link" data-entity-1="Company" data-entity-2="CompanyGroup" data-source-line="81" data-uid="lnk20" id="link_Company_CompanyGroup"><path codeLine="81" d="M609.57,805.58 C400.33,805.58 101.51,805.58 101.51,805.58 C101.51,805.58 101.51,455.16 101.51,332.65" fill="none" id="Company-CompanyGroup" style="stroke:#181818;stroke-width:1;"/><text fill="#000000" font-family="sans-serif" font-size="13" lengthAdjust="spacing" textLength="6.5" x="595.0406" y="802.3367">*</text><text fill="#000000" font-family="sans-serif" font-size="13" lengthAdjust="spacing" textLength="8.271" x="73.851" y="352.5649">1</text></g><!--link SystemEntity to User--><g class="link" data-entity-1="SystemEntity" data-entity-2="User" data-source-line="82" data-uid="lnk21" id="link_SystemEntity_User"><path codeLine="82" d="M871.42,349.3 C871.42,376.88 871.42,404.44 871.42,435.24" fill="none" id="SystemEntity-to-User" style="stroke:#181818;stroke-width:1;"/><polygon fill="#181818" points="871.42,441.24,875.42,432.24,871.42,436.24,867.42,432.24,871.42,441.24" style="stroke:#181818;stroke-width:1;"/><text fill="#000000" font-family="sans-serif" font-size="13" lengthAdjust="spacing" textLength="6.5" x="842.9505" y="368.9861">*</text><text fill="#000000" font-family="sans-serif" font-size="13" lengthAdjust="spacing" textLength="8.271" x="868.0865" y="430.4873">1</text></g><!--link SystemEntity to User--><g class="link" data-entity-1="SystemEntity" data-entity-2="User" data-source-line="83" data-uid="lnk22" id="link_SystemEntity_User"><path codeLine="83" d="M898.03,349.3 C898.03,376.88 898.03,404.44 898.03,435.24" fill="none" id="SystemEntity-to-User-1" style="stroke:#181818;stroke-width:1;"/><polygon fill="#181818" points="898.03,441.24,902.03,432.24,898.03,436.24,894.03,432.24,898.03,441.24" style="stroke:#181818;stroke-width:1;"/><text fill="#000000" font-family="sans-serif" font-size="13" lengthAdjust="spacing" textLength="6.5" x="872.6373" y="368.9861">*</text><text fill="#000000" font-family="sans-serif" font-size="13" lengthAdjust="spacing" textLength="8.271" x="896.817" y="430.4873">1</text></g><!--link SystemEntity to User--><g class="link" data-entity-1="SystemEntity" data-entity-2="User" data-source-line="84" data-uid="lnk23" id="link_SystemEntity_User"><path codeLine="84" d="M924.63,349.3 C924.63,376.88 924.63,404.44 924.63,435.24" fill="none" id="SystemEntity-to-User-2" style="stroke:#181818;stroke-width:1;"/><polygon fill="#181818" points="924.63,441.24,928.63,432.24,924.63,436.24,920.63,432.24,924.63,441.24" style="stroke:#181818;stroke-width:1;"/><text fill="#000000" font-family="sans-serif" font-size="13" lengthAdjust="spacing" textLength="6.5" x="902.3129" y="368.9861">*</text><text fill="#000000" font-family="sans-serif" font-size="13" lengthAdjust="spacing" textLength="8.271" x="925.5367" y="430.4873">1</text></g><!--link UserSystemEntityPermission to User--><g class="link" data-entity-1="UserSystemEntityPermission" data-entity-2="User" data-source-line="85" data-uid="lnk24" id="link_UserSystemEntityPermission_User"><path codeLine="85" d="M787.28,140.93 C787.28,213.88 787.28,344.4 787.28,435.25" fill="none" id="UserSystemEntityPermission-to-User" style="stroke:#181818;stroke-width:1;"/><polygon fill="#181818" points="787.28,441.25,791.28,432.25,787.28,436.25,783.28,432.25,787.28,441.25" style="stroke:#181818;stroke-width:1;"/><text fill="#000000" font-family="sans-serif" font-size="13" lengthAdjust="spacing" textLength="6.5" x="778.1445" y="160.3967">*</text><text fill="#000000" font-family="sans-serif" font-size="13" lengthAdjust="spacing" textLength="8.271" x="777.2416" y="430.4981">1</text></g><!--link UserSystemEntityPermission to User--><g class="link" data-entity-1="UserSystemEntityPermission" data-entity-2="User" data-source-line="86" data-uid="lnk25" id="link_UserSystemEntityPermission_User"><path codeLine="86" d="M801.67,140.93 C801.67,213.88 801.67,344.4 801.67,435.25" fill="none" id="UserSystemEntityPermission-to-User-1" style="stroke:#181818;stroke-width:1;"/><polygon fill="#181818" points="801.67,441.25,805.67,432.25,801.67,436.25,797.67,432.25,801.67,441.25" style="stroke:#181818;stroke-width:1;"/><text fill="#000000" font-family="sans-serif" font-size="13" lengthAdjust="spacing" textLength="6.5" x="794.3783" y="160.3967">*</text><text fill="#000000" font-family="sans-serif" font-size="13" lengthAdjust="spacing" textLength="8.271" x="792.7783" y="430.4981">1</text></g><!--link UserSystemEntityPermission to User--><g class="link" data-entity-1="UserSystemEntityPermission" data-entity-2="User" data-source-line="87" data-uid="lnk26" id="link_UserSystemEntityPermission_User"><path codeLine="87" d="M816.05,140.93 C816.05,213.88 816.05,344.4 816.05,435.25" fill="none" id="UserSystemEntityPermission-to-User-2" style="stroke:#181818;stroke-width:1;"/><polygon fill="#181818" points="816.05,441.25,820.05,432.25,816.05,436.25,812.05,432.25,816.05,441.25" style="stroke:#181818;stroke-width:1;"/><text fill="#000000" font-family="sans-serif" font-size="13" lengthAdjust="spacing" textLength="6.5" x="810.6007" y="160.3967">*</text><text fill="#000000" font-family="sans-serif" font-size="13" lengthAdjust="spacing" textLength="8.271" x="808.3042" y="430.4981">1</text></g><!--link UserSystemEntityPermission to User--><g class="link" data-entity-1="UserSystemEntityPermission" data-entity-2="User" data-source-line="88" data-uid="lnk27" id="link_UserSystemEntityPermission_User"><path codeLine="88" d="M830.43,140.93 C830.43,213.88 830.43,350.4 830.43,441.25" fill="none" id="UserSystemEntityPermission-User" style="stroke:#181818;stroke-width:1;"/><text fill="#000000" font-family="sans-serif" font-size="13" lengthAdjust="spacing" textLength="6.5" x="826.8231" y="160.3967">*</text><text fill="#000000" font-family="sans-serif" font-size="13" lengthAdjust="spacing" textLength="8.271" x="823.8301" y="430.4981">1</text></g><!--link UserSystemEntityPermission to SystemEntity--><g class="link" data-entity-1="UserSystemEntityPermission" data-entity-2="SystemEntity" data-source-line="89" data-uid="lnk28" id="link_UserSystemEntityPermission_SystemEntity"><path codeLine="89" d="M915.77,140.75 C915.77,168.67 915.77,203.59 915.77,232.73" fill="none" id="UserSystemEntityPermission-SystemEntity" style="stroke:#181818;stroke-width:1;"/><text fill="#000000" font-family="sans-serif" font-size="13" lengthAdjust="spacing" textLength="6.5" x="923.7474" y="160.5534">*</text><text fill="#000000" font-family="sans-serif" font-size="13" lengthAdjust="spacing" textLength="8.271" x="890.2996" y="222.2033">1</text></g><!--link User to User--><g class="link" data-entity-1="User" data-entity-2="User" data-source-line="90" data-uid="lnk29" id="link_User_User"><path codeLine="90" d="M590.71,441.23 C590.71,432.37 590.71,426.58 590.71,426.58 C590.71,426.58 534.03,426.58 534.03,426.58 C534.03,426.58 534.03,637.58 534.03,637.58 C534.03,637.58 572.67,637.58 572.67,637.58 C572.67,637.58 572.67,637.78 572.67,628.89" fill="none" id="User-to-User" style="stroke:#181818;stroke-width:1;"/><polygon fill="#181818" points="572.67,622.89,568.67,631.89,572.67,627.89,576.67,631.89,572.67,622.89" style="stroke:#181818;stroke-width:1;"/><text fill="#000000" font-family="sans-serif" font-size="13" lengthAdjust="spacing" textLength="6.5" x="567.0963" y="430.4765">*</text><text fill="#000000" font-family="sans-serif" font-size="13" lengthAdjust="spacing" textLength="8.271" x="546.2805" y="642.5">1</text></g><!--link User to User--><g class="link" data-entity-1="User" data-entity-2="User" data-source-line="91" data-uid="lnk30" id="link_User_User"><path codeLine="91" d="M621.07,441.02 C621.07,424.08 621.07,411.58 621.07,411.58 C621.07,411.58 507.72,411.58 507.72,411.58 C507.72,411.58 507.72,652.58 507.72,652.58 C507.72,652.58 585,652.58 585,652.58 C585,652.58 585,645.9 585,628.76" fill="none" id="User-to-User-1" style="stroke:#181818;stroke-width:1;"/><polygon fill="#181818" points="585,622.76,581,631.76,585,627.76,589,631.76,585,622.76" style="stroke:#181818;stroke-width:1;"/><text fill="#000000" font-family="sans-serif" font-size="13" lengthAdjust="spacing" textLength="6.5" x="599.8756" y="430.2498">*</text><text fill="#000000" font-family="sans-serif" font-size="13" lengthAdjust="spacing" textLength="8.271" x="559.5545" y="642.36">1</text></g><!--link User to User--><g class="link" data-entity-1="User" data-entity-2="User" data-source-line="92" data-uid="lnk31" id="link_User_User"><path codeLine="92" d="M651.44,441.28 C651.44,416.62 651.44,396.58 651.44,396.58 C651.44,396.58 481.41,396.58 481.41,396.58 C481.41,396.58 481.41,667.58 481.41,667.58 C481.41,667.58 597.33,667.58 597.33,667.58 C597.33,667.58 597.33,653.5 597.33,628.79" fill="none" id="User-to-User-2" style="stroke:#181818;stroke-width:1;"/><polygon fill="#181818" points="597.33,622.79,593.33,631.79,597.33,627.79,601.33,631.79,597.33,622.79" style="stroke:#181818;stroke-width:1;"/><text fill="#000000" font-family="sans-serif" font-size="13" lengthAdjust="spacing" textLength="6.5" x="632.6657" y="430.5305">*</text><text fill="#000000" font-family="sans-serif" font-size="13" lengthAdjust="spacing" textLength="8.271" x="572.8285" y="642.3923">1</text></g><!--link Project to User--><g class="link" data-entity-1="Project" data-entity-2="User" data-source-line="94" data-uid="lnk33" id="link_Project_User"><path codeLine="94" d="M1315.39,352.58 C1163.23,352.58 951.24,352.58 951.24,352.58 C951.24,352.58 951.24,390.72 951.24,435.21" fill="none" id="Project-to-User" style="stroke:#181818;stroke-width:1;"/><polygon fill="#181818" points="951.24,441.21,955.24,432.21,951.24,436.21,947.24,432.21,951.24,441.21" style="stroke:#181818;stroke-width:1;"/><text fill="#000000" font-family="sans-serif" font-size="13" lengthAdjust="spacing" textLength="6.5" x="1301.4306" y="352.4405">*</text><text fill="#000000" font-family="sans-serif" font-size="13" lengthAdjust="spacing" textLength="8.271" x="954.2672" y="430.4549">1</text></g><!--link Project to User--><g class="link" data-entity-1="Project" data-entity-2="User" data-source-line="95" data-uid="lnk34" id="link_Project_User"><path codeLine="95" d="M1315.58,355.58 C1171.92,355.58 977.84,355.58 977.84,355.58 C977.84,355.58 977.84,391.96 977.84,435.18" fill="none" id="Project-to-User-1" style="stroke:#181818;stroke-width:1;"/><polygon fill="#181818" points="977.84,441.18,981.84,432.18,977.84,436.18,973.84,432.18,977.84,441.18" style="stroke:#181818;stroke-width:1;"/><text fill="#000000" font-family="sans-serif" font-size="13" lengthAdjust="spacing" textLength="6.5" x="1301.1486" y="371.5942">*</text><text fill="#000000" font-family="sans-serif" font-size="13" lengthAdjust="spacing" textLength="8.271" x="982.9869" y="430.4225">1</text></g><!--link Project to User--><g class="link" data-entity-1="Project" data-entity-2="User" data-source-line="96" data-uid="lnk35" id="link_Project_User"><path codeLine="96" d="M1315.54,359.58 C1180.64,359.58 1004.45,359.58 1004.45,359.58 C1004.45,359.58 1004.45,393.53 1004.45,434.96" fill="none" id="Project-to-User-2" style="stroke:#181818;stroke-width:1;"/><polygon fill="#181818" points="1004.45,440.96,1008.45,431.96,1004.45,435.96,1000.45,431.96,1004.45,440.96" style="stroke:#181818;stroke-width:1;"/><text fill="#000000" font-family="sans-serif" font-size="13" lengthAdjust="spacing" textLength="6.5" x="1301.4134" y="378.9077">*</text><text fill="#000000" font-family="sans-serif" font-size="13" lengthAdjust="spacing" textLength="8.271" x="1011.1186" y="430.4925">1</text></g><!--link Project to User--><g class="link" data-entity-1="Project" data-entity-2="User" data-source-line="97" data-uid="lnk36" id="link_Project_User"><path codeLine="97" d="M1315.44,362.58 C1189.58,362.58 1031.05,362.58 1031.05,362.58 C1031.05,362.58 1031.05,401.04 1031.05,441.31" fill="none" id="Project-User" style="stroke:#181818;stroke-width:1;"/><text fill="#000000" font-family="sans-serif" font-size="13" lengthAdjust="spacing" textLength="6.5" x="1301.4832" y="378.7296">*</text><text fill="#000000" font-family="sans-serif" font-size="13" lengthAdjust="spacing" textLength="8.271" x="1041.1189" y="430.2565">1</text></g><!--link Project to Company--><g class="link" data-entity-1="Project" data-entity-2="Company" data-source-line="98" data-uid="lnk37" id="link_Project_Company"><path codeLine="98" d="M1467,365.52 C1467,508.14 1467,805.58 1467,805.58 C1467,805.58 1202.28,805.58 1008.65,805.58" fill="none" id="Project-Company" style="stroke:#181818;stroke-width:1;"/><text fill="#000000" font-family="sans-serif" font-size="13" lengthAdjust="spacing" textLength="6.5" x="1460.7461" y="385.1572">*</text><text fill="#000000" font-family="sans-serif" font-size="13" lengthAdjust="spacing" textLength="8.271" x="1016.6105" y="802.3597">1</text></g><!--SRC=[tLLDQzj04BthLsoSWw5WQA2dG5jS9vGS2gQfoQ4EORsQsDli5xkZDch8V- -ivCIolJ9sdQIX9wtUVEoRcQTH06G17FSShMTZbXqupwUQioB0cK7m6dB94OPStF0f17RDLO0it4WJWpHJqW2M3fZrEBCDmnTf1eg7S25pdB6ZTs-pcSo12Uc5WleCsc79DEW9-90Tu0mqi2jZ3Lnb8iQoldFZKuCIo_70QiTD-TdRmh6xhCSC9-zZ5j1BCsNlMRTBeB1v13y-egPGgi9ZjAG2Zjc95T4ACQMsXXvAWK1fJMYSi_jr3lq9vUK2wzUAXSpZTUUblhQc9adq3Ov7CX-F2h8-Kg0u-JEIcrYh24PVG7R8Sb20aFVnmVEG2Gzy1IfSlWnH_HQhSjPhhSC_bGje7jw4vlSkeFlMdhUtEuAdjmWcKCTINDoCsf4a2KgbyC8dOT1S9Wtq3gJXXEMtTCcBu-II2YaC-dAmKK1p-P6zJPcBohtzGKhQGN2nIgTi2NkgzBmC2BgfKP4UJdAa2BUORa2wCRGe_93sX0nH0_in7r6k9lj5tgeEmSrNuFdY4wgNKMMuy19XtHBPhOmhNjBGJxDPouvBVMp_IAfyTviqwgsgHigzvp7Jzyke3qhpo_hyER-Qlz7WNEXfZQVxzbJZ7zPqgsO6v5Y49NKwnOsXSxVQNa5uwL3ke6nAwUiTIX4dj0-_IGrdMXV89meQkyRaMtWHTpar01lL9PIady7cNjvdRRkaywR3UhqFh7FKMHNSluXP-VkzmgY7phv2zrNlvW2ojgMpvKql5RDXFVzF6PuyGTDvDT4kh9_PjqMYMM93Rvdy9TttyvxN-WS0]--></g></svg>