<svg xmlns="http://www.w3.org/2000/svg" xmlns:xlink="http://www.w3.org/1999/xlink" contentStyleType="text/css" data-diagram-type="CLASS" height="951px" preserveAspectRatio="none" style="width:1641px;height:951px;background:#FFFFFF;" version="1.1" viewBox="0 0 1641 951" width="1641px" zoomAndPan="magnify"><defs/><g><!--cluster Entity--><g class="cluster" data-entity="Entity" data-source-line="8" data-uid="ent0004" id="cluster_Entity"><path d="M8.5,6 L92.3311,6 A3.75,3.75 0 0 1 94.8311,8.5 L101.8311,28.2969 L1631.5,28.2969 A2.5,2.5 0 0 1 1634,30.7969 L1634,942.08 A2.5,2.5 0 0 1 1631.5,944.58 L8.5,944.58 A2.5,2.5 0 0 1 6,942.08 L6,8.5 A2.5,2.5 0 0 1 8.5,6" fill="none" style="stroke:#000000;stroke-width:1.5;"/><line style="stroke:#000000;stroke-width:1.5;" x1="6" x2="101.8311" y1="28.2969" y2="28.2969"/><text fill="#000000" font-family="sans-serif" font-size="14" font-weight="bold" lengthAdjust="spacing" textLength="82.8311" x="10" y="20.9951">App\Entity</text></g><!--class CompanyGroup--><g class="entity" data-entity="CompanyGroup" data-source-line="8" data-uid="ent0002" id="entity_CompanyGroup"><rect fill="#F1F1F1" height="83.1875" rx="2.5" ry="2.5" style="stroke:#181818;stroke-width:0.5;" width="398.3125" x="21.84" y="249.38"/><text fill="#000000" font-family="sans-serif" font-size="14" lengthAdjust="spacing" textLength="109.5322" x="166.2301" y="267.3751">CompanyGroup</text><line style="stroke:#181818;stroke-width:0.5;" x1="22.84" x2="419.1525" y1="275.6769" y2="275.6769"/><rect fill="none" height="6" style="stroke:#C82930;stroke-width:1;" width="6" x="29.84" y="286.3253"/><text fill="#000000" font-family="sans-serif" font-size="14" lengthAdjust="spacing" textLength="121.8369" x="41.84" y="292.672">name : string = ''</text><rect fill="none" height="6" style="stroke:#C82930;stroke-width:1;" width="6" x="29.84" y="302.6222"/><text fill="#000000" font-family="sans-serif" font-size="14" lengthAdjust="spacing" textLength="141.1553" x="41.84" y="308.9689">code : ?string = null</text><rect fill="none" height="6" style="stroke:#C82930;stroke-width:1;" width="6" x="29.84" y="318.9191"/><text fill="#000000" font-family="sans-serif" font-size="14" lengthAdjust="spacing" textLength="372.3125" x="41.84" y="325.2657">companies : Doctrine\Common\Collections\Collection</text></g><!--class AbstractEntity--><g class="entity" data-entity="AbstractEntity" data-source-line="13" data-uid="ent0005" id="entity_AbstractEntity"><rect fill="#F1F1F1" height="180.9688" rx="2.5" ry="2.5" style="stroke:#181818;stroke-width:0.5;" width="317.792" x="455.1" y="200.49"/><text fill="#000000" font-family="sans-serif" font-size="14" lengthAdjust="spacing" textLength="99.6406" x="564.1757" y="218.4851">AbstractEntity</text><line style="stroke:#181818;stroke-width:0.5;" x1="456.1" x2="771.892" y1="226.7869" y2="226.7869"/><rect fill="none" height="6" style="stroke:#C82930;stroke-width:1;" width="6" x="463.1" y="237.4353"/><text fill="#000000" font-family="sans-serif" font-size="14" lengthAdjust="spacing" textLength="291.792" x="475.1" y="243.782">id : ?Symfony\Component\Uid\Uuid = null</text><rect fill="none" height="6" style="stroke:#C82930;stroke-width:1;" width="6" x="463.1" y="253.7322"/><text fill="#000000" font-family="sans-serif" font-size="14" lengthAdjust="spacing" textLength="135.4404" x="475.1" y="260.0789">active : bool = true</text><polygon fill="none" points="466.1,268.0291,470.1,272.0291,466.1,276.0291,462.1,272.0291" style="stroke:#B38D22;stroke-width:1;"/><text fill="#000000" font-family="sans-serif" font-size="14" lengthAdjust="spacing" textLength="114.2148" x="475.1" y="276.3757">deletedAt = null</text><polygon fill="none" points="466.1,284.3259,470.1,288.3259,466.1,292.3259,462.1,288.3259" style="stroke:#B38D22;stroke-width:1;"/><text fill="#000000" font-family="sans-serif" font-size="14" lengthAdjust="spacing" textLength="114.8574" x="475.1" y="292.6726">createdAt = null</text><polygon fill="none" points="466.1,300.6228,470.1,304.6228,466.1,308.6228,462.1,304.6228" style="stroke:#B38D22;stroke-width:1;"/><text fill="#000000" font-family="sans-serif" font-size="14" lengthAdjust="spacing" textLength="119.4375" x="475.1" y="308.9695">updatedAt = null</text><rect fill="none" height="6" style="stroke:#C82930;stroke-width:1;" width="6" x="463.1" y="318.9197"/><text fill="#000000" font-family="sans-serif" font-size="14" lengthAdjust="spacing" textLength="146.2275" x="475.1" y="325.2664">notes : ?string = null</text><rect fill="none" height="6" style="stroke:#C82930;stroke-width:1;" width="6" x="463.1" y="335.2166"/><text fill="#000000" font-family="sans-serif" font-size="14" lengthAdjust="spacing" textLength="117.6807" x="475.1" y="341.5632">createdBy = null</text><rect fill="none" height="6" style="stroke:#C82930;stroke-width:1;" width="6" x="463.1" y="351.5134"/><text fill="#000000" font-family="sans-serif" font-size="14" lengthAdjust="spacing" textLength="122.2607" x="475.1" y="357.8601">updatedBy = null</text><rect fill="none" height="6" style="stroke:#C82930;stroke-width:1;" width="6" x="463.1" y="367.8103"/><text fill="#000000" font-family="sans-serif" font-size="14" lengthAdjust="spacing" textLength="117.0381" x="475.1" y="374.157">deletedBy = null</text></g><!--class Company--><g class="entity" data-entity="Company" data-source-line="24" data-uid="ent0006" id="entity_Company"><rect fill="#F1F1F1" height="246.1563" rx="2.5" ry="2.5" style="stroke:#181818;stroke-width:0.5;" width="398.6748" x="826.66" y="682.42"/><text fill="#000000" font-family="sans-serif" font-size="14" lengthAdjust="spacing" textLength="66.6025" x="992.6961" y="700.4151">Company</text><line style="stroke:#181818;stroke-width:0.5;" x1="827.66" x2="1224.3348" y1="708.7169" y2="708.7169"/><rect fill="none" height="6" style="stroke:#C82930;stroke-width:1;" width="6" x="834.66" y="719.3653"/><text fill="#000000" font-family="sans-serif" font-size="14" lengthAdjust="spacing" textLength="121.8369" x="846.66" y="725.712">name : string = ''</text><rect fill="none" height="6" style="stroke:#C82930;stroke-width:1;" width="6" x="834.66" y="735.6622"/><text fill="#000000" font-family="sans-serif" font-size="14" lengthAdjust="spacing" textLength="215.8242" x="846.66" y="742.0089">nameExtension : ?string = null</text><rect fill="none" height="6" style="stroke:#C82930;stroke-width:1;" width="6" x="834.66" y="751.9591"/><text fill="#000000" font-family="sans-serif" font-size="14" lengthAdjust="spacing" textLength="151.2041" x="846.66" y="758.3057">phone : ?string = null</text><rect fill="none" height="6" style="stroke:#C82930;stroke-width:1;" width="6" x="834.66" y="768.2559"/><text fill="#000000" font-family="sans-serif" font-size="14" lengthAdjust="spacing" textLength="131.4824" x="846.66" y="774.6026">cell : ?string = null</text><rect fill="none" height="6" style="stroke:#C82930;stroke-width:1;" width="6" x="834.66" y="784.5528"/><text fill="#000000" font-family="sans-serif" font-size="14" lengthAdjust="spacing" textLength="125.9111" x="846.66" y="790.8995">url : ?string = null</text><rect fill="none" height="6" style="stroke:#C82930;stroke-width:1;" width="6" x="834.66" y="800.8497"/><text fill="#000000" font-family="sans-serif" font-size="14" lengthAdjust="spacing" textLength="146.002" x="846.66" y="807.1964">email : ?string = null</text><rect fill="none" height="6" style="stroke:#C82930;stroke-width:1;" width="6" x="834.66" y="817.1466"/><text fill="#000000" font-family="sans-serif" font-size="14" lengthAdjust="spacing" textLength="148.6475" x="846.66" y="823.4932">street : ?string = null</text><rect fill="none" height="6" style="stroke:#C82930;stroke-width:1;" width="6" x="834.66" y="833.4434"/><text fill="#000000" font-family="sans-serif" font-size="14" lengthAdjust="spacing" textLength="127.5176" x="846.66" y="839.7901">zip : ?string = null</text><rect fill="none" height="6" style="stroke:#C82930;stroke-width:1;" width="6" x="834.66" y="849.7403"/><text fill="#000000" font-family="sans-serif" font-size="14" lengthAdjust="spacing" textLength="132.7539" x="846.66" y="856.087">city : ?string = null</text><rect fill="none" height="6" style="stroke:#C82930;stroke-width:1;" width="6" x="834.66" y="866.0372"/><text fill="#000000" font-family="sans-serif" font-size="14" lengthAdjust="spacing" textLength="196.7725" x="846.66" y="872.3839">countryCode : ?string = null</text><rect fill="none" height="6" style="stroke:#C82930;stroke-width:1;" width="6" x="834.66" y="882.3341"/><text fill="#000000" font-family="sans-serif" font-size="14" lengthAdjust="spacing" textLength="361.8467" x="846.66" y="888.6807">companyGroup : ?App\Entity\CompanyGroup = null</text><rect fill="none" height="6" style="stroke:#C82930;stroke-width:1;" width="6" x="834.66" y="898.6309"/><text fill="#000000" font-family="sans-serif" font-size="14" lengthAdjust="spacing" textLength="352.4678" x="846.66" y="904.9776">projects : Doctrine\Common\Collections\Collection</text><rect fill="none" height="6" style="stroke:#C82930;stroke-width:1;" width="6" x="834.66" y="914.9278"/><text fill="#000000" font-family="sans-serif" font-size="14" lengthAdjust="spacing" textLength="372.6748" x="846.66" y="921.2745">employees : Doctrine\Common\Collections\Collection</text></g><!--class UserSystemEntityPermission--><g class="entity" data-entity="UserSystemEntityPermission" data-source-line="39" data-uid="ent0007" id="entity_UserSystemEntityPermission"><rect fill="#F1F1F1" height="99.4844" rx="2.5" ry="2.5" style="stroke:#181818;stroke-width:0.5;" width="355.4238" x="1102.29" y="41"/><text fill="#000000" font-family="sans-serif" font-size="14" lengthAdjust="spacing" textLength="201.2432" x="1179.3803" y="58.9951">UserSystemEntityPermission</text><line style="stroke:#181818;stroke-width:0.5;" x1="1103.29" x2="1456.7138" y1="67.2969" y2="67.2969"/><rect fill="none" height="6" style="stroke:#C82930;stroke-width:1;" width="6" x="1110.29" y="77.9453"/><text fill="#000000" font-family="sans-serif" font-size="14" lengthAdjust="spacing" textLength="158.416" x="1122.29" y="84.292">canRead : bool = false</text><rect fill="none" height="6" style="stroke:#C82930;stroke-width:1;" width="6" x="1110.29" y="94.2422"/><text fill="#000000" font-family="sans-serif" font-size="14" lengthAdjust="spacing" textLength="160.2002" x="1122.29" y="100.5889">canWrite : bool = false</text><rect fill="none" height="6" style="stroke:#C82930;stroke-width:1;" width="6" x="1110.29" y="110.5391"/><text fill="#000000" font-family="sans-serif" font-size="14" lengthAdjust="spacing" textLength="207.3066" x="1122.29" y="116.8857">user : ?App\Entity\User = null</text><rect fill="none" height="6" style="stroke:#C82930;stroke-width:1;" width="6" x="1110.29" y="126.8359"/><text fill="#000000" font-family="sans-serif" font-size="14" lengthAdjust="spacing" textLength="329.4238" x="1122.29" y="133.1826">systemEntity : ?App\Entity\SystemEntity = null</text></g><!--class Project--><g class="entity" data-entity="Project" data-source-line="45" data-uid="ent0008" id="entity_Project"><rect fill="#F1F1F1" height="148.375" rx="2.5" ry="2.5" style="stroke:#181818;stroke-width:0.5;" width="302.2676" x="1315.87" y="216.78"/><text fill="#000000" font-family="sans-serif" font-size="14" lengthAdjust="spacing" textLength="48.4531" x="1442.7772" y="234.7751">Project</text><line style="stroke:#181818;stroke-width:0.5;" x1="1316.87" x2="1617.1376" y1="243.0769" y2="243.0769"/><rect fill="none" height="6" style="stroke:#C82930;stroke-width:1;" width="6" x="1323.87" y="253.7253"/><text fill="#000000" font-family="sans-serif" font-size="14" lengthAdjust="spacing" textLength="104.4258" x="1335.87" y="260.072">status : int = 0</text><rect fill="none" height="6" style="stroke:#C82930;stroke-width:1;" width="6" x="1323.87" y="270.0222"/><text fill="#000000" font-family="sans-serif" font-size="14" lengthAdjust="spacing" textLength="185.2334" x="1335.87" y="276.3689">description : ?string = null</text><rect fill="none" height="6" style="stroke:#C82930;stroke-width:1;" width="6" x="1323.87" y="286.3191"/><text fill="#000000" font-family="sans-serif" font-size="14" lengthAdjust="spacing" textLength="121.8369" x="1335.87" y="292.6657">name : string = ''</text><rect fill="none" height="6" style="stroke:#C82930;stroke-width:1;" width="6" x="1323.87" y="302.6159"/><text fill="#000000" font-family="sans-serif" font-size="14" lengthAdjust="spacing" textLength="276.2676" x="1335.87" y="308.9626">startedAt : ?DateTimeImmutable = null</text><rect fill="none" height="6" style="stroke:#C82930;stroke-width:1;" width="6" x="1323.87" y="318.9128"/><text fill="#000000" font-family="sans-serif" font-size="14" lengthAdjust="spacing" textLength="270.0332" x="1335.87" y="325.2595">endedAt : ?DateTimeImmutable = null</text><rect fill="none" height="6" style="stroke:#C82930;stroke-width:1;" width="6" x="1323.87" y="335.2097"/><text fill="#000000" font-family="sans-serif" font-size="14" lengthAdjust="spacing" textLength="238.8135" x="1335.87" y="341.5564">assignee : ?App\Entity\User = null</text><rect fill="none" height="6" style="stroke:#C82930;stroke-width:1;" width="6" x="1323.87" y="351.5066"/><text fill="#000000" font-family="sans-serif" font-size="14" lengthAdjust="spacing" textLength="249.915" x="1335.87" y="357.8532">client : ?App\Entity\Company = null</text></g><!--class User--><g class="entity" data-entity="User" data-source-line="54" data-uid="ent0009" id="entity_User"><rect fill="#F1F1F1" height="180.9688" rx="2.5" ry="2.5" style="stroke:#181818;stroke-width:0.5;" width="497.3105" x="777.34" y="441.45"/><text fill="#000000" font-family="sans-serif" font-size="14" lengthAdjust="spacing" textLength="31.9102" x="1010.0402" y="459.4451">User</text><line style="stroke:#181818;stroke-width:0.5;" x1="778.34" x2="1273.6505" y1="467.7469" y2="467.7469"/><rect fill="none" height="6" style="stroke:#C82930;stroke-width:1;" width="6" x="785.34" y="478.3953"/><text fill="#000000" font-family="sans-serif" font-size="14" lengthAdjust="spacing" textLength="146.002" x="797.34" y="484.742">email : ?string = null</text><rect fill="none" height="6" style="stroke:#C82930;stroke-width:1;" width="6" x="785.34" y="494.6922"/><text fill="#000000" font-family="sans-serif" font-size="14" lengthAdjust="spacing" textLength="116.2451" x="797.34" y="501.0389">roles : array = []</text><rect fill="none" height="6" style="stroke:#C82930;stroke-width:1;" width="6" x="785.34" y="510.9891"/><text fill="#000000" font-family="sans-serif" font-size="14" lengthAdjust="spacing" textLength="174.1045" x="797.34" y="517.3357">password : ?string = null</text><rect fill="none" height="6" style="stroke:#C82930;stroke-width:1;" width="6" x="785.34" y="527.2859"/><text fill="#000000" font-family="sans-serif" font-size="14" lengthAdjust="spacing" textLength="151.2041" x="797.34" y="533.6326">phone : ?string = null</text><rect fill="none" height="6" style="stroke:#C82930;stroke-width:1;" width="6" x="785.34" y="543.5828"/><text fill="#000000" font-family="sans-serif" font-size="14" lengthAdjust="spacing" textLength="131.4824" x="797.34" y="549.9295">cell : ?string = null</text><rect fill="none" height="6" style="stroke:#C82930;stroke-width:1;" width="6" x="785.34" y="559.8797"/><text fill="#000000" font-family="sans-serif" font-size="14" lengthAdjust="spacing" textLength="125.9111" x="797.34" y="566.2264">url : ?string = null</text><rect fill="none" height="6" style="stroke:#C82930;stroke-width:1;" width="6" x="785.34" y="576.1766"/><text fill="#000000" font-family="sans-serif" font-size="14" lengthAdjust="spacing" textLength="352.4678" x="797.34" y="582.5232">projects : Doctrine\Common\Collections\Collection</text><rect fill="none" height="6" style="stroke:#C82930;stroke-width:1;" width="6" x="785.34" y="592.4734"/><text fill="#000000" font-family="sans-serif" font-size="14" lengthAdjust="spacing" textLength="275.9873" x="797.34" y="598.8201">company : ?App\Entity\Company = null</text><rect fill="none" height="6" style="stroke:#C82930;stroke-width:1;" width="6" x="785.34" y="608.7703"/><text fill="#000000" font-family="sans-serif" font-size="14" lengthAdjust="spacing" textLength="471.3105" x="797.34" y="615.117">systemEntityPermissions : Doctrine\Common\Collections\Collection</text></g><!--class SystemEntity--><g class="entity" data-entity="SystemEntity" data-source-line="65" data-uid="ent0010" id="entity_SystemEntity"><rect fill="#F1F1F1" height="115.7813" rx="2.5" ry="2.5" style="stroke:#181818;stroke-width:0.5;" width="436.3613" x="807.82" y="233.08"/><text fill="#000000" font-family="sans-serif" font-size="14" lengthAdjust="spacing" textLength="93.0781" x="979.4616" y="251.0751">SystemEntity</text><line style="stroke:#181818;stroke-width:0.5;" x1="808.82" x2="1243.1813" y1="259.3769" y2="259.3769"/><rect fill="none" height="6" style="stroke:#C82930;stroke-width:1;" width="6" x="815.82" y="270.0253"/><text fill="#000000" font-family="sans-serif" font-size="14" lengthAdjust="spacing" textLength="136.418" x="827.82" y="276.372">icon : ?string = null</text><rect fill="none" height="6" style="stroke:#C82930;stroke-width:1;" width="6" x="815.82" y="286.3222"/><text fill="#000000" font-family="sans-serif" font-size="14" lengthAdjust="spacing" textLength="121.8369" x="827.82" y="292.6689">name : string = ''</text><rect fill="none" height="6" style="stroke:#C82930;stroke-width:1;" width="6" x="815.82" y="302.6191"/><text fill="#000000" font-family="sans-serif" font-size="14" lengthAdjust="spacing" textLength="135.2695" x="827.82" y="308.9657">text : ?string = null</text><rect fill="none" height="6" style="stroke:#C82930;stroke-width:1;" width="6" x="815.82" y="318.9159"/><text fill="#000000" font-family="sans-serif" font-size="14" lengthAdjust="spacing" textLength="141.1553" x="827.82" y="325.2626">code : ?string = null</text><rect fill="none" height="6" style="stroke:#C82930;stroke-width:1;" width="6" x="815.82" y="335.2128"/><text fill="#000000" font-family="sans-serif" font-size="14" lengthAdjust="spacing" textLength="410.3613" x="827.82" y="341.5595">userPermissions : Doctrine\Common\Collections\Collection</text></g><!--link CompanyGroup to User--><g class="link" data-entity-1="CompanyGroup" data-entity-2="User" data-source-line="72" data-uid="lnk11" id="link_CompanyGroup_User"><path codeLine="72" d="M340.49,332.67 C340.49,390.38 340.49,487.58 340.49,487.58 C340.49,487.58 574.97,487.58 771.06,487.58" fill="none" id="CompanyGroup-to-User" style="stroke:#181818;stroke-width:1;"/><polygon fill="#181818" points="777.06,487.58,768.06,483.58,772.06,487.58,768.06,491.58,777.06,487.58" style="stroke:#181818;stroke-width:1;"/><text fill="#000000" font-family="sans-serif" font-size="13" lengthAdjust="spacing" textLength="6.5" x="353.096" y="352.5881">*</text><text fill="#000000" font-family="sans-serif" font-size="13" lengthAdjust="spacing" textLength="8.271" x="760.765" y="482.9476">1</text></g><!--link CompanyGroup to User--><g class="link" data-entity-1="CompanyGroup" data-entity-2="User" data-source-line="73" data-uid="lnk12" id="link_CompanyGroup_User"><path codeLine="73" d="M260.83,333.06 C260.83,402.28 260.83,532.58 260.83,532.58 C260.83,532.58 547.68,532.58 771.04,532.58" fill="none" id="CompanyGroup-to-User-1" style="stroke:#181818;stroke-width:1;"/><polygon fill="#181818" points="777.04,532.58,768.04,528.58,772.04,532.58,768.04,536.58,777.04,532.58" style="stroke:#181818;stroke-width:1;"/><text fill="#000000" font-family="sans-serif" font-size="13" lengthAdjust="spacing" textLength="6.5" x="260.5084" y="352.73">*</text><text fill="#000000" font-family="sans-serif" font-size="13" lengthAdjust="spacing" textLength="8.271" x="760.7444" y="529.4242">1</text></g><!--link CompanyGroup to User--><g class="link" data-entity-1="CompanyGroup" data-entity-2="User" data-source-line="74" data-uid="lnk13" id="link_CompanyGroup_User"><path codeLine="74" d="M181.17,332.95 C181.17,412.56 181.17,577.58 181.17,577.58 C181.17,577.58 521.89,577.58 771.09,577.58" fill="none" id="CompanyGroup-to-User-2" style="stroke:#181818;stroke-width:1;"/><polygon fill="#181818" points="777.09,577.58,768.09,573.58,772.09,577.58,768.09,581.58,777.09,577.58" style="stroke:#181818;stroke-width:1;"/><text fill="#000000" font-family="sans-serif" font-size="13" lengthAdjust="spacing" textLength="6.5" x="168.6505" y="352.6031">*</text><text fill="#000000" font-family="sans-serif" font-size="13" lengthAdjust="spacing" textLength="8.271" x="760.796" y="575.9007">1</text></g><!--link AbstractEntity to User--><g class="link" data-entity-1="AbstractEntity" data-entity-2="User" data-source-line="75" data-uid="lnk14" id="link_AbstractEntity_User"><path codeLine="75" d="M773.13,369.58 C789.45,369.58 800.2,369.58 800.2,369.58 C800.2,369.58 800.2,398.08 800.2,435.27" fill="none" id="AbstractEntity-to-User" style="stroke:#181818;stroke-width:1;"/><polygon fill="#181818" points="800.2,441.27,804.2,432.27,800.2,436.27,796.2,432.27,800.2,441.27" style="stroke:#181818;stroke-width:1;"/><text fill="#000000" font-family="sans-serif" font-size="13" lengthAdjust="spacing" textLength="6.5" x="780.9955" y="370.0943">*</text><text fill="#000000" font-family="sans-serif" font-size="13" lengthAdjust="spacing" textLength="8.271" x="782.5365" y="430.5197">1</text></g><!--link AbstractEntity to User--><g class="link" data-entity-1="AbstractEntity" data-entity-2="User" data-source-line="76" data-uid="lnk15" id="link_AbstractEntity_User"><path codeLine="76" d="M773.13,373.58 C785.07,373.58 792.58,373.58 792.58,373.58 C792.58,373.58 792.58,399.82 792.58,435.2" fill="none" id="AbstractEntity-to-User-1" style="stroke:#181818;stroke-width:1;"/><polygon fill="#181818" points="792.58,441.2,796.58,432.2,792.58,436.2,788.58,432.2,792.58,441.2" style="stroke:#181818;stroke-width:1;"/><text fill="#000000" font-family="sans-serif" font-size="13" lengthAdjust="spacing" textLength="6.5" x="780.9955" y="390.0146">*</text><text fill="#000000" font-family="sans-serif" font-size="13" lengthAdjust="spacing" textLength="8.271" x="765.6718" y="430.4441">1</text></g><!--link AbstractEntity to User--><g class="link" data-entity-1="AbstractEntity" data-entity-2="User" data-source-line="77" data-uid="lnk16" id="link_AbstractEntity_User"><path codeLine="77" d="M773.21,377.58 C780.58,377.58 784.96,377.58 784.96,377.58 C784.96,377.58 784.96,401.66 784.96,435.26" fill="none" id="AbstractEntity-to-User-2" style="stroke:#181818;stroke-width:1;"/><polygon fill="#181818" points="784.96,441.26,788.96,432.26,784.96,436.26,780.96,432.26,784.96,441.26" style="stroke:#181818;stroke-width:1;"/><text fill="#000000" font-family="sans-serif" font-size="13" lengthAdjust="spacing" textLength="6.5" x="780.6561" y="397.7398">*</text><text fill="#000000" font-family="sans-serif" font-size="13" lengthAdjust="spacing" textLength="8.271" x="761.2711" y="432.0419">1</text></g><!--link Company to User--><g class="link" data-entity-1="Company" data-entity-2="User" data-source-line="78" data-uid="lnk17" id="link_Company_User"><path codeLine="78" d="M906.4,681.93 C906.4,661.96 906.4,647.62 906.4,628.62" fill="none" id="Company-to-User" style="stroke:#181818;stroke-width:1;"/><polygon fill="#181818" points="906.4,622.62,902.4,631.62,906.4,627.62,910.4,631.62,906.4,622.62" style="stroke:#181818;stroke-width:1;"/><text fill="#000000" font-family="sans-serif" font-size="13" lengthAdjust="spacing" textLength="6.5" x="893.3268" y="671.4234">*</text><text fill="#000000" font-family="sans-serif" font-size="13" lengthAdjust="spacing" textLength="8.271" x="888.5618" y="642.5164">1</text></g><!--link Company to User--><g class="link" data-entity-1="Company" data-entity-2="User" data-source-line="79" data-uid="lnk18" id="link_Company_User"><path codeLine="79" d="M986.13,681.93 C986.13,661.96 986.13,647.62 986.13,628.62" fill="none" id="Company-to-User-1" style="stroke:#181818;stroke-width:1;"/><polygon fill="#181818" points="986.13,622.62,982.13,631.62,986.13,627.62,990.13,631.62,986.13,622.62" style="stroke:#181818;stroke-width:1;"/><text fill="#000000" font-family="sans-serif" font-size="13" lengthAdjust="spacing" textLength="6.5" x="977.6662" y="671.4234">*</text><text fill="#000000" font-family="sans-serif" font-size="13" lengthAdjust="spacing" textLength="8.271" x="974.6453" y="642.5164">1</text></g><!--link Company to User--><g class="link" data-entity-1="Company" data-entity-2="User" data-source-line="80" data-uid="lnk19" id="link_Company_User"><path codeLine="80" d="M1065.87,681.93 C1065.87,661.96 1065.87,647.62 1065.87,628.62" fill="none" id="Company-to-User-2" style="stroke:#181818;stroke-width:1;"/><polygon fill="#181818" points="1065.87,622.62,1061.87,631.62,1065.87,627.62,1069.87,631.62,1065.87,622.62" style="stroke:#181818;stroke-width:1;"/><text fill="#000000" font-family="sans-serif" font-size="13" lengthAdjust="spacing" textLength="6.5" x="1062.0162" y="671.4234">*</text><text fill="#000000" font-family="sans-serif" font-size="13" lengthAdjust="spacing" textLength="8.271" x="1060.7396" y="642.5164">1</text></g><!--link User to Company--><g class="link" data-entity-1="User" data-entity-2="Company" data-source-line="95" data-uid="lnk34" id="link_User_Company"><path codeLine="95" d="M1145.6,622.65 C1145.6,641.78 1145.6,662.27 1145.6,682.37" fill="none" id="User-Company" style="stroke:#181818;stroke-width:1;"/><text fill="#000000" font-family="sans-serif" font-size="13" lengthAdjust="spacing" textLength="6.5" x="1148.9119" y="642.5487">*</text><text fill="#000000" font-family="sans-serif" font-size="13" lengthAdjust="spacing" textLength="8.271" x="1144.6528" y="671.4808">1</text></g><!--link Company to CompanyGroup--><g class="link" data-entity-1="Company" data-entity-2="CompanyGroup" data-source-line="81" data-uid="lnk20" id="link_Company_CompanyGroup"><path codeLine="81" d="M826.25,805.58 C554.44,805.58 101.51,805.58 101.51,805.58 C101.51,805.58 101.51,455.16 101.51,332.65" fill="none" id="Company-CompanyGroup" style="stroke:#181818;stroke-width:1;"/><text fill="#000000" font-family="sans-serif" font-size="13" lengthAdjust="spacing" textLength="6.5" x="812.3399" y="802.3597">*</text><text fill="#000000" font-family="sans-serif" font-size="13" lengthAdjust="spacing" textLength="8.271" x="73.851" y="352.5649">1</text></g><!--link UserSystemEntityPermission to User--><g class="link" data-entity-1="UserSystemEntityPermission" data-entity-2="User" data-source-line="82" data-uid="lnk21" id="link_UserSystemEntityPermission_User"><path codeLine="82" d="M1246.72,140.93 C1246.72,213.88 1246.72,344.4 1246.72,435.25" fill="none" id="UserSystemEntityPermission-to-User" style="stroke:#181818;stroke-width:1;"/><polygon fill="#181818" points="1246.72,441.25,1250.72,432.25,1246.72,436.25,1242.72,432.25,1246.72,441.25" style="stroke:#181818;stroke-width:1;"/><text fill="#000000" font-family="sans-serif" font-size="13" lengthAdjust="spacing" textLength="6.5" x="1236.1034" y="160.3967">*</text><text fill="#000000" font-family="sans-serif" font-size="13" lengthAdjust="spacing" textLength="8.271" x="1256.001" y="430.4981">1</text></g><!--link UserSystemEntityPermission to User--><g class="link" data-entity-1="UserSystemEntityPermission" data-entity-2="User" data-source-line="83" data-uid="lnk22" id="link_UserSystemEntityPermission_User"><path codeLine="83" d="M1249.26,140.93 C1249.26,213.88 1249.26,344.4 1249.26,435.25" fill="none" id="UserSystemEntityPermission-to-User-1" style="stroke:#181818;stroke-width:1;"/><polygon fill="#181818" points="1249.26,441.25,1253.26,432.25,1249.26,436.25,1245.26,432.25,1249.26,441.25" style="stroke:#181818;stroke-width:1;"/><text fill="#000000" font-family="sans-serif" font-size="13" lengthAdjust="spacing" textLength="6.5" x="1245.7376" y="160.3967">*</text><text fill="#000000" font-family="sans-serif" font-size="13" lengthAdjust="spacing" textLength="8.271" x="1267.381" y="430.4981">1</text></g><!--link UserSystemEntityPermission to User--><g class="link" data-entity-1="UserSystemEntityPermission" data-entity-2="User" data-source-line="84" data-uid="lnk23" id="link_UserSystemEntityPermission_User"><path codeLine="84" d="M1251.8,140.93 C1251.8,213.88 1251.8,344.4 1251.8,435.25" fill="none" id="UserSystemEntityPermission-to-User-2" style="stroke:#181818;stroke-width:1;"/><polygon fill="#181818" points="1251.8,441.25,1255.8,432.25,1251.8,436.25,1247.8,432.25,1251.8,441.25" style="stroke:#181818;stroke-width:1;"/><text fill="#000000" font-family="sans-serif" font-size="13" lengthAdjust="spacing" textLength="6.5" x="1241.8343" y="160.3967">*</text><text fill="#000000" font-family="sans-serif" font-size="13" lengthAdjust="spacing" textLength="8.271" x="1261.4859" y="430.4981">1</text></g><!--link UserSystemEntityPermission to User--><g class="link" data-entity-1="UserSystemEntityPermission" data-entity-2="User" data-source-line="85" data-uid="lnk24" id="link_UserSystemEntityPermission_User"><path codeLine="85" d="M1254.34,140.93 C1254.34,213.88 1254.34,350.4 1254.34,441.25" fill="none" id="UserSystemEntityPermission-User" style="stroke:#181818;stroke-width:1;"/><text fill="#000000" font-family="sans-serif" font-size="13" lengthAdjust="spacing" textLength="6.5" x="1251.4685" y="160.3967">*</text><text fill="#000000" font-family="sans-serif" font-size="13" lengthAdjust="spacing" textLength="8.271" x="1272.8658" y="430.4981">1</text></g><!--link UserSystemEntityPermission to SystemEntity--><g class="link" data-entity-1="UserSystemEntityPermission" data-entity-2="SystemEntity" data-source-line="86" data-uid="lnk25" id="link_UserSystemEntityPermission_SystemEntity"><path codeLine="86" d="M1173.23,140.75 C1173.23,168.67 1173.23,203.59 1173.23,232.73" fill="none" id="UserSystemEntityPermission-SystemEntity" style="stroke:#181818;stroke-width:1;"/><text fill="#000000" font-family="sans-serif" font-size="13" lengthAdjust="spacing" textLength="6.5" x="1152.513" y="160.5534">*</text><text fill="#000000" font-family="sans-serif" font-size="13" lengthAdjust="spacing" textLength="8.271" x="1181.8066" y="222.2033">1</text></g><!--link Project to User--><g class="link" data-entity-1="Project" data-entity-2="User" data-source-line="87" data-uid="lnk26" id="link_Project_User"><path codeLine="87" d="M1315.41,352.58 C1282.27,352.58 1256.88,352.58 1256.88,352.58 C1256.88,352.58 1256.88,390.72 1256.88,435.21" fill="none" id="Project-to-User" style="stroke:#181818;stroke-width:1;"/><polygon fill="#181818" points="1256.88,441.21,1260.88,432.21,1256.88,436.21,1252.88,432.21,1256.88,441.21" style="stroke:#181818;stroke-width:1;"/><text fill="#000000" font-family="sans-serif" font-size="13" lengthAdjust="spacing" textLength="6.5" x="1301.4516" y="352.4405">*</text><text fill="#000000" font-family="sans-serif" font-size="13" lengthAdjust="spacing" textLength="8.271" x="1275.6082" y="430.4549">1</text></g><!--link Project to User--><g class="link" data-entity-1="Project" data-entity-2="User" data-source-line="88" data-uid="lnk27" id="link_Project_User"><path codeLine="88" d="M1315.59,355.58 C1283.67,355.58 1259.42,355.58 1259.42,355.58 C1259.42,355.58 1259.42,391.96 1259.42,435.18" fill="none" id="Project-to-User-1" style="stroke:#181818;stroke-width:1;"/><polygon fill="#181818" points="1259.42,441.18,1263.42,432.18,1259.42,436.18,1255.42,432.18,1259.42,441.18" style="stroke:#181818;stroke-width:1;"/><text fill="#000000" font-family="sans-serif" font-size="13" lengthAdjust="spacing" textLength="6.5" x="1301.1592" y="371.5942">*</text><text fill="#000000" font-family="sans-serif" font-size="13" lengthAdjust="spacing" textLength="8.271" x="1282.2672" y="442.0685">1</text></g><!--link Project to User--><g class="link" data-entity-1="Project" data-entity-2="User" data-source-line="89" data-uid="lnk28" id="link_Project_User"><path codeLine="89" d="M1315.56,359.58 C1284.96,359.58 1261.96,359.58 1261.96,359.58 C1261.96,359.58 1261.96,393.53 1261.96,434.96" fill="none" id="Project-to-User-2" style="stroke:#181818;stroke-width:1;"/><polygon fill="#181818" points="1261.96,440.96,1265.96,431.96,1261.96,435.96,1257.96,431.96,1261.96,440.96" style="stroke:#181818;stroke-width:1;"/><text fill="#000000" font-family="sans-serif" font-size="13" lengthAdjust="spacing" textLength="6.5" x="1301.4353" y="378.9077">*</text><text fill="#000000" font-family="sans-serif" font-size="13" lengthAdjust="spacing" textLength="8.271" x="1280.3427" y="430.4925">1</text></g><!--link Project to User--><g class="link" data-entity-1="Project" data-entity-2="User" data-source-line="90" data-uid="lnk29" id="link_Project_User"><path codeLine="90" d="M1315.6,362.58 C1286.3,362.58 1264.5,362.58 1264.5,362.58 C1264.5,362.58 1264.5,401.04 1264.5,441.31" fill="none" id="Project-User" style="stroke:#181818;stroke-width:1;"/><text fill="#000000" font-family="sans-serif" font-size="13" lengthAdjust="spacing" textLength="6.5" x="1301.1697" y="378.977">*</text><text fill="#000000" font-family="sans-serif" font-size="13" lengthAdjust="spacing" textLength="8.271" x="1282.3189" y="431.1758">1</text></g><!--link Project to Company--><g class="link" data-entity-1="Project" data-entity-2="Company" data-source-line="91" data-uid="lnk30" id="link_Project_Company"><path codeLine="91" d="M1467,365.52 C1467,508.14 1467,805.58 1467,805.58 C1467,805.58 1342.31,805.58 1225.53,805.58" fill="none" id="Project-Company" style="stroke:#181818;stroke-width:1;"/><text fill="#000000" font-family="sans-serif" font-size="13" lengthAdjust="spacing" textLength="6.5" x="1460.7461" y="385.1572">*</text><text fill="#000000" font-family="sans-serif" font-size="13" lengthAdjust="spacing" textLength="8.271" x="1233.4858" y="802.3597">1</text></g><!--link User to User--><g class="link" data-entity-1="User" data-entity-2="User" data-source-line="92" data-uid="lnk31" id="link_User_User"><path codeLine="92" d="M1272.12,441.23 C1272.12,432.37 1272.12,426.58 1272.12,426.58 C1272.12,426.58 1284.96,426.58 1284.96,426.58 C1284.96,426.58 1284.96,637.58 1284.96,637.58 C1284.96,637.58 1262.33,637.58 1262.33,637.58 C1262.33,637.58 1262.33,637.78 1262.33,628.89" fill="none" id="User-to-User" style="stroke:#181818;stroke-width:1;"/><polygon fill="#181818" points="1262.33,622.89,1258.33,631.89,1262.33,627.89,1266.33,631.89,1262.33,622.89" style="stroke:#181818;stroke-width:1;"/><text fill="#000000" font-family="sans-serif" font-size="13" lengthAdjust="spacing" textLength="6.5" x="1282.6405" y="434.1567">*</text><text fill="#000000" font-family="sans-serif" font-size="13" lengthAdjust="spacing" textLength="8.271" x="1272.1285" y="642.5">1</text></g><!--link User to User--><g class="link" data-entity-1="User" data-entity-2="User" data-source-line="93" data-uid="lnk32" id="link_User_User"><path codeLine="93" d="M1269.58,441.02 C1269.58,424.08 1269.58,411.58 1269.58,411.58 C1269.58,411.58 1295.26,411.58 1295.26,411.58 C1295.26,411.58 1295.26,652.58 1295.26,652.58 C1295.26,652.58 1250,652.58 1250,652.58 C1250,652.58 1250,645.9 1250,628.76" fill="none" id="User-to-User-1" style="stroke:#181818;stroke-width:1;"/><polygon fill="#181818" points="1250,622.76,1246,631.76,1250,627.76,1254,631.76,1250,622.76" style="stroke:#181818;stroke-width:1;"/><text fill="#000000" font-family="sans-serif" font-size="13" lengthAdjust="spacing" textLength="6.5" x="1282.3074" y="448.7893">*</text><text fill="#000000" font-family="sans-serif" font-size="13" lengthAdjust="spacing" textLength="8.271" x="1258.8545" y="642.36">1</text></g><!--link User to User--><g class="link" data-entity-1="User" data-entity-2="User" data-source-line="94" data-uid="lnk33" id="link_User_User"><path codeLine="94" d="M1267.04,441.28 C1267.04,416.62 1267.04,396.58 1267.04,396.58 C1267.04,396.58 1305.56,396.58 1305.56,396.58 C1305.56,396.58 1305.56,667.58 1305.56,667.58 C1305.56,667.58 1237.67,667.58 1237.67,667.58 C1237.67,667.58 1237.67,653.5 1237.67,628.79" fill="none" id="User-to-User-2" style="stroke:#181818;stroke-width:1;"/><polygon fill="#181818" points="1237.67,622.79,1233.67,631.79,1237.67,627.79,1241.67,631.79,1237.67,622.79" style="stroke:#181818;stroke-width:1;"/><text fill="#000000" font-family="sans-serif" font-size="13" lengthAdjust="spacing" textLength="6.5" x="1283.0078" y="445.6872">*</text><text fill="#000000" font-family="sans-serif" font-size="13" lengthAdjust="spacing" textLength="8.271" x="1245.5805" y="642.3923">1</text></g><!--link SystemEntity to User--><g class="link" data-entity-1="SystemEntity" data-entity-2="User" data-source-line="96" data-uid="lnk35" id="link_SystemEntity_User"><path codeLine="96" d="M916.91,349.3 C916.91,376.88 916.91,404.44 916.91,435.24" fill="none" id="SystemEntity-to-User" style="stroke:#181818;stroke-width:1;"/><polygon fill="#181818" points="916.91,441.24,920.91,432.24,916.91,436.24,912.91,432.24,916.91,441.24" style="stroke:#181818;stroke-width:1;"/><text fill="#000000" font-family="sans-serif" font-size="13" lengthAdjust="spacing" textLength="6.5" x="897.9784" y="368.9861">*</text><text fill="#000000" font-family="sans-serif" font-size="13" lengthAdjust="spacing" textLength="8.271" x="899.9093" y="430.4873">1</text></g><!--link SystemEntity to User--><g class="link" data-entity-1="SystemEntity" data-entity-2="User" data-source-line="97" data-uid="lnk36" id="link_SystemEntity_User"><path codeLine="97" d="M1026,349.3 C1026,376.88 1026,404.44 1026,435.24" fill="none" id="SystemEntity-to-User-1" style="stroke:#181818;stroke-width:1;"/><polygon fill="#181818" points="1026,441.24,1030,432.24,1026,436.24,1022,432.24,1026,441.24" style="stroke:#181818;stroke-width:1;"/><text fill="#000000" font-family="sans-serif" font-size="13" lengthAdjust="spacing" textLength="6.5" x="1019.682" y="368.9861">*</text><text fill="#000000" font-family="sans-serif" font-size="13" lengthAdjust="spacing" textLength="8.271" x="1017.6924" y="430.4873">1</text></g><!--link SystemEntity to User--><g class="link" data-entity-1="SystemEntity" data-entity-2="User" data-source-line="98" data-uid="lnk37" id="link_SystemEntity_User"><path codeLine="98" d="M1135.09,349.3 C1135.09,376.88 1135.09,404.44 1135.09,435.24" fill="none" id="SystemEntity-to-User-2" style="stroke:#181818;stroke-width:1;"/><polygon fill="#181818" points="1135.09,441.24,1139.09,432.24,1135.09,436.24,1131.09,432.24,1135.09,441.24" style="stroke:#181818;stroke-width:1;"/><text fill="#000000" font-family="sans-serif" font-size="13" lengthAdjust="spacing" textLength="6.5" x="1141.3855" y="368.9861">*</text><text fill="#000000" font-family="sans-serif" font-size="13" lengthAdjust="spacing" textLength="8.271" x="1135.4755" y="430.4873">1</text></g><!--SRC=[rPNDJzim5C3l-IjCEI1DgWJIJaZRr1KqSPXKZLKSLeHS-z5w-4lsoqQ6-Dzd9uMcgHkbTDtOASdxVi-_vtX0ui5IHz4uCY7PWNLqfYZ9FLne1AU02uemekoEpi2JMoezPFvEwEYaY1GQiB10ZCEvgIa-2psKrFihmN5EJjuUPtF1WJ3Xc8Jg7PJ5WYXGKt0-Ey0vA20tscYuoLZq9GDh9-SQ1HQJeL6MwkAJCxab3rcVQ1giJub79_ICl2D7Hq7838_23yzIdKjPogEt20sSaZF3eXPYI6LqU4W938NHllQUFQxNC9Y6k9HXzLbM8NXCTrceMwEh8aFv6YTZmIVZF6YVImX-uaSiRcgC369qEMI7X8C413x09yj3mXpGXYYtV5KK-ZTOjhFUQ-N-iLYA5kvrqIBlKlIuSUQRnns5v_S8seU9fMgnyp2EP94WPKgUkwGO51L9HVY6m712yqlOPE9uSab2Sesk6BO2jC0lw3UHkUpScU-1f2s0YrrQQGhOaTAn1tTPU0HL2KPXYuKlJoWU9AFw2r2-1B5QwL9nvGJ2kYPS1gxHT4nIEuLQkePXlP8Mr4RLkCeAFLBCumo4ZhmVbxHwveJ53PWbuGnXNBKpmUCiyFzLABXGAaSwbL1ZI_CELg5UCTC0hNDWKeJbJ_FHqdmPvA4DSsTaIGLrZiP8twuZOY7CJ-FuFXVl9HWlTgLz3AlGB1dTZVqLsihxcMr13C8zffS_VId4lNXXvPlkZzwR7kdttvFUIQz9oB_mQVpnNg7N4rQlqBnfNJ-0hDk5tJ7lVn7XZmUe6sU9Vqd7ml-c-MxM2u2QGzlcXFPisw7YbIkwOuPz-lm6]--></g></svg>