<svg xmlns="http://www.w3.org/2000/svg" xmlns:xlink="http://www.w3.org/1999/xlink" contentStyleType="text/css" data-diagram-type="CLASS" height="902px" preserveAspectRatio="none" style="width:1851px;height:902px;background:#FFFFFF;" version="1.1" viewBox="0 0 1851 902" width="1851px" zoomAndPan="magnify"><defs/><g><!--cluster Entity--><g class="cluster" data-entity="Entity" data-source-line="8" data-uid="ent0004" id="cluster_Entity"><path d="M8.5,6 L92.3311,6 A3.75,3.75 0 0 1 94.8311,8.5 L101.8311,28.2969 L1841.5,28.2969 A2.5,2.5 0 0 1 1844,30.7969 L1844,893.19 A2.5,2.5 0 0 1 1841.5,895.69 L8.5,895.69 A2.5,2.5 0 0 1 6,893.19 L6,8.5 A2.5,2.5 0 0 1 8.5,6" fill="none" style="stroke:#000000;stroke-width:1.5;"/><line style="stroke:#000000;stroke-width:1.5;" x1="6" x2="101.8311" y1="28.2969" y2="28.2969"/><text fill="#000000" font-family="sans-serif" font-size="14" font-weight="bold" lengthAdjust="spacing" textLength="82.8311" x="10" y="20.9951">App\Entity</text></g><!--class CompanyGroup--><g class="entity" data-entity="CompanyGroup" data-source-line="8" data-uid="ent0002" id="entity_CompanyGroup"><rect fill="#F1F1F1" height="83.1875" rx="2.5" ry="2.5" style="stroke:#181818;stroke-width:0.5;" width="398.3125" x="21.84" y="249.38"/><text fill="#000000" font-family="sans-serif" font-size="14" lengthAdjust="spacing" textLength="109.5322" x="166.2301" y="267.3751">CompanyGroup</text><line style="stroke:#181818;stroke-width:0.5;" x1="22.84" x2="419.1525" y1="275.6769" y2="275.6769"/><rect fill="none" height="6" style="stroke:#C82930;stroke-width:1;" width="6" x="29.84" y="286.3253"/><text fill="#000000" font-family="sans-serif" font-size="14" lengthAdjust="spacing" textLength="93.5088" x="41.84" y="292.672">name : string</text><rect fill="none" height="6" style="stroke:#C82930;stroke-width:1;" width="6" x="29.84" y="302.6222"/><text fill="#000000" font-family="sans-serif" font-size="14" lengthAdjust="spacing" textLength="141.1553" x="41.84" y="308.9689">code : ?string = null</text><rect fill="none" height="6" style="stroke:#C82930;stroke-width:1;" width="6" x="29.84" y="318.9191"/><text fill="#000000" font-family="sans-serif" font-size="14" lengthAdjust="spacing" textLength="372.3125" x="41.84" y="325.2657">companies : Doctrine\Common\Collections\Collection</text></g><!--class AbstractEntity--><g class="entity" data-entity="AbstractEntity" data-source-line="13" data-uid="ent0005" id="entity_AbstractEntity"><rect fill="#F1F1F1" height="180.9688" rx="2.5" ry="2.5" style="stroke:#181818;stroke-width:0.5;" width="317.792" x="792.1" y="200.49"/><text fill="#000000" font-family="sans-serif" font-size="14" lengthAdjust="spacing" textLength="99.6406" x="901.1757" y="218.4851">AbstractEntity</text><line style="stroke:#181818;stroke-width:0.5;" x1="793.1" x2="1108.892" y1="226.7869" y2="226.7869"/><rect fill="none" height="6" style="stroke:#C82930;stroke-width:1;" width="6" x="800.1" y="237.4353"/><text fill="#000000" font-family="sans-serif" font-size="14" lengthAdjust="spacing" textLength="291.792" x="812.1" y="243.782">id : ?Symfony\Component\Uid\Uuid = null</text><rect fill="none" height="6" style="stroke:#C82930;stroke-width:1;" width="6" x="800.1" y="253.7322"/><text fill="#000000" font-family="sans-serif" font-size="14" lengthAdjust="spacing" textLength="135.4404" x="812.1" y="260.0789">active : bool = true</text><polygon fill="none" points="803.1,268.0291,807.1,272.0291,803.1,276.0291,799.1,272.0291" style="stroke:#B38D22;stroke-width:1;"/><text fill="#000000" font-family="sans-serif" font-size="14" lengthAdjust="spacing" textLength="114.2148" x="812.1" y="276.3757">deletedAt = null</text><polygon fill="none" points="803.1,284.3259,807.1,288.3259,803.1,292.3259,799.1,288.3259" style="stroke:#B38D22;stroke-width:1;"/><text fill="#000000" font-family="sans-serif" font-size="14" lengthAdjust="spacing" textLength="114.8574" x="812.1" y="292.6726">createdAt = null</text><polygon fill="none" points="803.1,300.6228,807.1,304.6228,803.1,308.6228,799.1,304.6228" style="stroke:#B38D22;stroke-width:1;"/><text fill="#000000" font-family="sans-serif" font-size="14" lengthAdjust="spacing" textLength="119.4375" x="812.1" y="308.9695">updatedAt = null</text><rect fill="none" height="6" style="stroke:#C82930;stroke-width:1;" width="6" x="800.1" y="318.9197"/><text fill="#000000" font-family="sans-serif" font-size="14" lengthAdjust="spacing" textLength="146.2275" x="812.1" y="325.2664">notes : ?string = null</text><rect fill="none" height="6" style="stroke:#C82930;stroke-width:1;" width="6" x="800.1" y="335.2166"/><text fill="#000000" font-family="sans-serif" font-size="14" lengthAdjust="spacing" textLength="117.6807" x="812.1" y="341.5632">createdBy = null</text><rect fill="none" height="6" style="stroke:#C82930;stroke-width:1;" width="6" x="800.1" y="351.5134"/><text fill="#000000" font-family="sans-serif" font-size="14" lengthAdjust="spacing" textLength="122.2607" x="812.1" y="357.8601">updatedBy = null</text><rect fill="none" height="6" style="stroke:#C82930;stroke-width:1;" width="6" x="800.1" y="367.8103"/><text fill="#000000" font-family="sans-serif" font-size="14" lengthAdjust="spacing" textLength="117.0381" x="812.1" y="374.157">deletedBy = null</text></g><!--class Company--><g class="entity" data-entity="Company" data-source-line="24" data-uid="ent0006" id="entity_Company"><rect fill="#F1F1F1" height="246.1563" rx="2.5" ry="2.5" style="stroke:#181818;stroke-width:0.5;" width="398.6748" x="751.66" y="633.53"/><text fill="#000000" font-family="sans-serif" font-size="14" lengthAdjust="spacing" textLength="66.6025" x="917.6961" y="651.5251">Company</text><line style="stroke:#181818;stroke-width:0.5;" x1="752.66" x2="1149.3348" y1="659.8269" y2="659.8269"/><rect fill="none" height="6" style="stroke:#C82930;stroke-width:1;" width="6" x="759.66" y="670.4753"/><text fill="#000000" font-family="sans-serif" font-size="14" lengthAdjust="spacing" textLength="93.5088" x="771.66" y="676.822">name : string</text><rect fill="none" height="6" style="stroke:#C82930;stroke-width:1;" width="6" x="759.66" y="686.7722"/><text fill="#000000" font-family="sans-serif" font-size="14" lengthAdjust="spacing" textLength="162.2373" x="771.66" y="693.1189">nameExtension : string</text><rect fill="none" height="6" style="stroke:#C82930;stroke-width:1;" width="6" x="759.66" y="703.0691"/><text fill="#000000" font-family="sans-serif" font-size="14" lengthAdjust="spacing" textLength="148.6475" x="771.66" y="709.4157">street : ?string = null</text><rect fill="none" height="6" style="stroke:#C82930;stroke-width:1;" width="6" x="759.66" y="719.3659"/><text fill="#000000" font-family="sans-serif" font-size="14" lengthAdjust="spacing" textLength="127.5176" x="771.66" y="725.7126">zip : ?string = null</text><rect fill="none" height="6" style="stroke:#C82930;stroke-width:1;" width="6" x="759.66" y="735.6628"/><text fill="#000000" font-family="sans-serif" font-size="14" lengthAdjust="spacing" textLength="132.7539" x="771.66" y="742.0095">city : ?string = null</text><rect fill="none" height="6" style="stroke:#C82930;stroke-width:1;" width="6" x="759.66" y="751.9597"/><text fill="#000000" font-family="sans-serif" font-size="14" lengthAdjust="spacing" textLength="196.7725" x="771.66" y="758.3064">countryCode : ?string = null</text><rect fill="none" height="6" style="stroke:#C82930;stroke-width:1;" width="6" x="759.66" y="768.2566"/><text fill="#000000" font-family="sans-serif" font-size="14" lengthAdjust="spacing" textLength="151.2041" x="771.66" y="774.6032">phone : ?string = null</text><rect fill="none" height="6" style="stroke:#C82930;stroke-width:1;" width="6" x="759.66" y="784.5534"/><text fill="#000000" font-family="sans-serif" font-size="14" lengthAdjust="spacing" textLength="131.4824" x="771.66" y="790.9001">cell : ?string = null</text><rect fill="none" height="6" style="stroke:#C82930;stroke-width:1;" width="6" x="759.66" y="800.8503"/><text fill="#000000" font-family="sans-serif" font-size="14" lengthAdjust="spacing" textLength="125.9111" x="771.66" y="807.197">url : ?string = null</text><rect fill="none" height="6" style="stroke:#C82930;stroke-width:1;" width="6" x="759.66" y="817.1472"/><text fill="#000000" font-family="sans-serif" font-size="14" lengthAdjust="spacing" textLength="146.002" x="771.66" y="823.4939">email : ?string = null</text><rect fill="none" height="6" style="stroke:#C82930;stroke-width:1;" width="6" x="759.66" y="833.4441"/><text fill="#000000" font-family="sans-serif" font-size="14" lengthAdjust="spacing" textLength="361.8467" x="771.66" y="839.7907">companyGroup : ?App\Entity\CompanyGroup = null</text><rect fill="none" height="6" style="stroke:#C82930;stroke-width:1;" width="6" x="759.66" y="849.7409"/><text fill="#000000" font-family="sans-serif" font-size="14" lengthAdjust="spacing" textLength="352.4678" x="771.66" y="856.0876">projects : Doctrine\Common\Collections\Collection</text><rect fill="none" height="6" style="stroke:#C82930;stroke-width:1;" width="6" x="759.66" y="866.0378"/><text fill="#000000" font-family="sans-serif" font-size="14" lengthAdjust="spacing" textLength="372.6748" x="771.66" y="872.3845">employees : Doctrine\Common\Collections\Collection</text></g><!--class Module--><g class="entity" data-entity="Module" data-source-line="39" data-uid="ent0007" id="entity_Module"><rect fill="#F1F1F1" height="83.1875" rx="2.5" ry="2.5" style="stroke:#181818;stroke-width:0.5;" width="436.3613" x="1354.82" y="249.38"/><text fill="#000000" font-family="sans-serif" font-size="14" lengthAdjust="spacing" textLength="50.9072" x="1547.5471" y="267.3751">Module</text><line style="stroke:#181818;stroke-width:0.5;" x1="1355.82" x2="1790.1813" y1="275.6769" y2="275.6769"/><rect fill="none" height="6" style="stroke:#C82930;stroke-width:1;" width="6" x="1362.82" y="286.3253"/><text fill="#000000" font-family="sans-serif" font-size="14" lengthAdjust="spacing" textLength="93.5088" x="1374.82" y="292.672">name : string</text><rect fill="none" height="6" style="stroke:#C82930;stroke-width:1;" width="6" x="1362.82" y="302.6222"/><text fill="#000000" font-family="sans-serif" font-size="14" lengthAdjust="spacing" textLength="135.2695" x="1374.82" y="308.9689">text : ?string = null</text><rect fill="none" height="6" style="stroke:#C82930;stroke-width:1;" width="6" x="1362.82" y="318.9191"/><text fill="#000000" font-family="sans-serif" font-size="14" lengthAdjust="spacing" textLength="410.3613" x="1374.82" y="325.2657">userPermissions : Doctrine\Common\Collections\Collection</text></g><!--class Project--><g class="entity" data-entity="Project" data-source-line="44" data-uid="ent0008" id="entity_Project"><rect fill="#F1F1F1" height="148.375" rx="2.5" ry="2.5" style="stroke:#181818;stroke-width:0.5;" width="302.2676" x="454.87" y="216.78"/><text fill="#000000" font-family="sans-serif" font-size="14" lengthAdjust="spacing" textLength="48.4531" x="581.7772" y="234.7751">Project</text><line style="stroke:#181818;stroke-width:0.5;" x1="455.87" x2="756.1376" y1="243.0769" y2="243.0769"/><rect fill="none" height="6" style="stroke:#C82930;stroke-width:1;" width="6" x="462.87" y="253.7253"/><text fill="#000000" font-family="sans-serif" font-size="14" lengthAdjust="spacing" textLength="128.4746" x="474.87" y="260.072">status : ?int = null</text><rect fill="none" height="6" style="stroke:#C82930;stroke-width:1;" width="6" x="462.87" y="270.0222"/><text fill="#000000" font-family="sans-serif" font-size="14" lengthAdjust="spacing" textLength="185.2334" x="474.87" y="276.3689">description : ?string = null</text><rect fill="none" height="6" style="stroke:#C82930;stroke-width:1;" width="6" x="462.87" y="286.3191"/><text fill="#000000" font-family="sans-serif" font-size="14" lengthAdjust="spacing" textLength="93.5088" x="474.87" y="292.6657">name : string</text><rect fill="none" height="6" style="stroke:#C82930;stroke-width:1;" width="6" x="462.87" y="302.6159"/><text fill="#000000" font-family="sans-serif" font-size="14" lengthAdjust="spacing" textLength="276.2676" x="474.87" y="308.9626">startedAt : ?DateTimeImmutable = null</text><rect fill="none" height="6" style="stroke:#C82930;stroke-width:1;" width="6" x="462.87" y="318.9128"/><text fill="#000000" font-family="sans-serif" font-size="14" lengthAdjust="spacing" textLength="270.0332" x="474.87" y="325.2595">endedAt : ?DateTimeImmutable = null</text><rect fill="none" height="6" style="stroke:#C82930;stroke-width:1;" width="6" x="462.87" y="335.2097"/><text fill="#000000" font-family="sans-serif" font-size="14" lengthAdjust="spacing" textLength="238.8135" x="474.87" y="341.5564">assignee : ?App\Entity\User = null</text><rect fill="none" height="6" style="stroke:#C82930;stroke-width:1;" width="6" x="462.87" y="351.5066"/><text fill="#000000" font-family="sans-serif" font-size="14" lengthAdjust="spacing" textLength="249.915" x="474.87" y="357.8532">client : ?App\Entity\Company = null</text></g><!--class User--><g class="entity" data-entity="User" data-source-line="53" data-uid="ent0009" id="entity_User"><rect fill="#F1F1F1" height="132.0781" rx="2.5" ry="2.5" style="stroke:#181818;stroke-width:0.5;" width="458.291" x="721.85" y="441.46"/><text fill="#000000" font-family="sans-serif" font-size="14" lengthAdjust="spacing" textLength="31.9102" x="935.0404" y="459.4551">User</text><line style="stroke:#181818;stroke-width:0.5;" x1="722.85" x2="1179.141" y1="467.7569" y2="467.7569"/><rect fill="none" height="6" style="stroke:#C82930;stroke-width:1;" width="6" x="729.85" y="478.4053"/><text fill="#000000" font-family="sans-serif" font-size="14" lengthAdjust="spacing" textLength="146.002" x="741.85" y="484.752">email : ?string = null</text><rect fill="none" height="6" style="stroke:#C82930;stroke-width:1;" width="6" x="729.85" y="494.7022"/><text fill="#000000" font-family="sans-serif" font-size="14" lengthAdjust="spacing" textLength="116.2451" x="741.85" y="501.0489">roles : array = []</text><rect fill="none" height="6" style="stroke:#C82930;stroke-width:1;" width="6" x="729.85" y="510.9991"/><text fill="#000000" font-family="sans-serif" font-size="14" lengthAdjust="spacing" textLength="174.1045" x="741.85" y="517.3457">password : ?string = null</text><rect fill="none" height="6" style="stroke:#C82930;stroke-width:1;" width="6" x="729.85" y="527.2959"/><text fill="#000000" font-family="sans-serif" font-size="14" lengthAdjust="spacing" textLength="352.4678" x="741.85" y="533.6426">projects : Doctrine\Common\Collections\Collection</text><rect fill="none" height="6" style="stroke:#C82930;stroke-width:1;" width="6" x="729.85" y="543.5928"/><text fill="#000000" font-family="sans-serif" font-size="14" lengthAdjust="spacing" textLength="275.9873" x="741.85" y="549.9395">company : ?App\Entity\Company = null</text><rect fill="none" height="6" style="stroke:#C82930;stroke-width:1;" width="6" x="729.85" y="559.8897"/><text fill="#000000" font-family="sans-serif" font-size="14" lengthAdjust="spacing" textLength="432.291" x="741.85" y="566.2364">modulePermissions : Doctrine\Common\Collections\Collection</text></g><!--class Address--><g class="entity" data-entity="Address" data-source-line="61" data-uid="ent0010" id="entity_Address"><rect fill="#F1F1F1" height="115.7813" rx="2.5" ry="2.5" style="stroke:#181818;stroke-width:0.5;" width="174.6475" x="1144.68" y="233.08"/><text fill="#000000" font-family="sans-serif" font-size="14" lengthAdjust="spacing" textLength="56.3076" x="1203.8499" y="251.0751">Address</text><line style="stroke:#181818;stroke-width:0.5;" x1="1145.68" x2="1318.3275" y1="259.3769" y2="259.3769"/><rect fill="none" height="6" style="stroke:#C82930;stroke-width:1;" width="6" x="1152.68" y="270.0253"/><text fill="#000000" font-family="sans-serif" font-size="14" lengthAdjust="spacing" textLength="148.6475" x="1164.68" y="276.372">street : ?string = null</text><rect fill="none" height="6" style="stroke:#C82930;stroke-width:1;" width="6" x="1152.68" y="286.3222"/><text fill="#000000" font-family="sans-serif" font-size="14" lengthAdjust="spacing" textLength="127.5176" x="1164.68" y="292.6689">zip : ?string = null</text><rect fill="none" height="6" style="stroke:#C82930;stroke-width:1;" width="6" x="1152.68" y="302.6191"/><text fill="#000000" font-family="sans-serif" font-size="14" lengthAdjust="spacing" textLength="132.7539" x="1164.68" y="308.9657">city : ?string = null</text><rect fill="none" height="6" style="stroke:#C82930;stroke-width:1;" width="6" x="1152.68" y="318.9159"/><text fill="#000000" font-family="sans-serif" font-size="14" lengthAdjust="spacing" textLength="143.1855" x="1164.68" y="325.2626">countryCode : string</text><rect fill="none" height="6" style="stroke:#C82930;stroke-width:1;" width="6" x="1152.68" y="335.2128"/><text fill="#000000" font-family="sans-serif" font-size="14" lengthAdjust="spacing" textLength="93.5088" x="1164.68" y="341.5595">name : string</text></g><!--class UserModulePermission--><g class="entity" data-entity="UserModulePermission" data-source-line="68" data-uid="ent0011" id="entity_UserModulePermission"><rect fill="#F1F1F1" height="99.4844" rx="2.5" ry="2.5" style="stroke:#181818;stroke-width:0.5;" width="274.2334" x="1553.88" y="41"/><text fill="#000000" font-family="sans-serif" font-size="14" lengthAdjust="spacing" textLength="159.0723" x="1611.4606" y="58.9951">UserModulePermission</text><line style="stroke:#181818;stroke-width:0.5;" x1="1554.88" x2="1827.1134" y1="67.2969" y2="67.2969"/><rect fill="none" height="6" style="stroke:#C82930;stroke-width:1;" width="6" x="1561.88" y="77.9453"/><text fill="#000000" font-family="sans-serif" font-size="14" lengthAdjust="spacing" textLength="158.416" x="1573.88" y="84.292">canRead : bool = false</text><rect fill="none" height="6" style="stroke:#C82930;stroke-width:1;" width="6" x="1561.88" y="94.2422"/><text fill="#000000" font-family="sans-serif" font-size="14" lengthAdjust="spacing" textLength="160.2002" x="1573.88" y="100.5889">canWrite : bool = false</text><rect fill="none" height="6" style="stroke:#C82930;stroke-width:1;" width="6" x="1561.88" y="110.5391"/><text fill="#000000" font-family="sans-serif" font-size="14" lengthAdjust="spacing" textLength="207.3066" x="1573.88" y="116.8857">user : ?App\Entity\User = null</text><rect fill="none" height="6" style="stroke:#C82930;stroke-width:1;" width="6" x="1561.88" y="126.8359"/><text fill="#000000" font-family="sans-serif" font-size="14" lengthAdjust="spacing" textLength="248.2334" x="1573.88" y="133.1826">module : ?App\Entity\Module = null</text></g><!--link CompanyGroup to User--><g class="link" data-entity-1="CompanyGroup" data-entity-2="User" data-source-line="74" data-uid="lnk12" id="link_CompanyGroup_User"><path codeLine="74" d="M340.49,332.66 C340.49,386.86 340.49,474.69 340.49,474.69 C340.49,474.69 542.35,474.69 715.5,474.69" fill="none" id="CompanyGroup-to-User" style="stroke:#181818;stroke-width:1;"/><polygon fill="#181818" points="721.5,474.69,712.5,470.69,716.5,474.69,712.5,478.69,721.5,474.69" style="stroke:#181818;stroke-width:1;"/><text fill="#000000" font-family="sans-serif" font-size="13" lengthAdjust="spacing" textLength="6.5" x="353.096" y="352.5765">*</text><text fill="#000000" font-family="sans-serif" font-size="13" lengthAdjust="spacing" textLength="8.271" x="705.8429" y="470.4364">1</text></g><!--link CompanyGroup to User--><g class="link" data-entity-1="CompanyGroup" data-entity-2="User" data-source-line="75" data-uid="lnk13" id="link_CompanyGroup_User"><path codeLine="75" d="M260.83,333.01 C260.83,396.04 260.83,507.69 260.83,507.69 C260.83,507.69 514.83,507.69 715.66,507.69" fill="none" id="CompanyGroup-to-User-1" style="stroke:#181818;stroke-width:1;"/><polygon fill="#181818" points="721.66,507.69,712.66,503.69,716.66,507.69,712.66,511.69,721.66,507.69" style="stroke:#181818;stroke-width:1;"/><text fill="#000000" font-family="sans-serif" font-size="13" lengthAdjust="spacing" textLength="6.5" x="260.5084" y="352.6723">*</text><text fill="#000000" font-family="sans-serif" font-size="13" lengthAdjust="spacing" textLength="8.271" x="705.2794" y="504.4966">1</text></g><!--link CompanyGroup to User--><g class="link" data-entity-1="CompanyGroup" data-entity-2="User" data-source-line="76" data-uid="lnk14" id="link_CompanyGroup_User"><path codeLine="76" d="M181.17,333.05 C181.17,404.22 181.17,540.69 181.17,540.69 C181.17,540.69 488.7,540.69 715.59,540.69" fill="none" id="CompanyGroup-to-User-2" style="stroke:#181818;stroke-width:1;"/><polygon fill="#181818" points="721.59,540.69,712.59,536.69,716.59,540.69,712.59,544.69,721.59,540.69" style="stroke:#181818;stroke-width:1;"/><text fill="#000000" font-family="sans-serif" font-size="13" lengthAdjust="spacing" textLength="6.5" x="168.6505" y="352.7184">*</text><text fill="#000000" font-family="sans-serif" font-size="13" lengthAdjust="spacing" textLength="8.271" x="705.9358" y="538.6021">1</text></g><!--link AbstractEntity to User--><g class="link" data-entity-1="AbstractEntity" data-entity-2="User" data-source-line="77" data-uid="lnk15" id="link_AbstractEntity_User"><path codeLine="77" d="M871.55,381.86 C871.55,401.76 871.55,416.47 871.55,435.2" fill="none" id="AbstractEntity-to-User" style="stroke:#181818;stroke-width:1;"/><polygon fill="#181818" points="871.55,441.2,875.55,432.2,871.55,436.2,867.55,432.2,871.55,441.2" style="stroke:#181818;stroke-width:1;"/><text fill="#000000" font-family="sans-serif" font-size="13" lengthAdjust="spacing" textLength="6.5" x="859.2569" y="401.4646">*</text><text fill="#000000" font-family="sans-serif" font-size="13" lengthAdjust="spacing" textLength="8.271" x="854.438" y="430.2024">1</text></g><!--link AbstractEntity to User--><g class="link" data-entity-1="AbstractEntity" data-entity-2="User" data-source-line="78" data-uid="lnk16" id="link_AbstractEntity_User"><path codeLine="78" d="M951,381.86 C951,401.76 951,416.47 951,435.2" fill="none" id="AbstractEntity-to-User-1" style="stroke:#181818;stroke-width:1;"/><polygon fill="#181818" points="951,441.2,955,432.2,951,436.2,947,432.2,951,441.2" style="stroke:#181818;stroke-width:1;"/><text fill="#000000" font-family="sans-serif" font-size="13" lengthAdjust="spacing" textLength="6.5" x="944.7898" y="401.4646">*</text><text fill="#000000" font-family="sans-serif" font-size="13" lengthAdjust="spacing" textLength="8.271" x="942.5778" y="430.2024">1</text></g><!--link AbstractEntity to User--><g class="link" data-entity-1="AbstractEntity" data-entity-2="User" data-source-line="79" data-uid="lnk17" id="link_AbstractEntity_User"><path codeLine="79" d="M1030.45,381.86 C1030.45,401.76 1030.45,416.47 1030.45,435.2" fill="none" id="AbstractEntity-to-User-2" style="stroke:#181818;stroke-width:1;"/><polygon fill="#181818" points="1030.45,441.2,1034.45,432.2,1030.45,436.2,1026.45,432.2,1030.45,441.2" style="stroke:#181818;stroke-width:1;"/><text fill="#000000" font-family="sans-serif" font-size="13" lengthAdjust="spacing" textLength="6.5" x="1030.3227" y="401.4646">*</text><text fill="#000000" font-family="sans-serif" font-size="13" lengthAdjust="spacing" textLength="8.271" x="1030.7177" y="430.2024">1</text></g><!--link Company to User--><g class="link" data-entity-1="Company" data-entity-2="User" data-source-line="80" data-uid="lnk18" id="link_Company_User"><path codeLine="80" d="M831.4,633.15 C831.4,612.72 831.4,598.24 831.4,579.93" fill="none" id="Company-to-User" style="stroke:#181818;stroke-width:1;"/><polygon fill="#181818" points="831.4,573.93,827.4,582.93,831.4,578.93,835.4,582.93,831.4,573.93" style="stroke:#181818;stroke-width:1;"/><text fill="#000000" font-family="sans-serif" font-size="13" lengthAdjust="spacing" textLength="6.5" x="818.3268" y="622.6497">*</text><text fill="#000000" font-family="sans-serif" font-size="13" lengthAdjust="spacing" textLength="8.271" x="810.6682" y="593.6279">1</text></g><!--link Company to User--><g class="link" data-entity-1="Company" data-entity-2="User" data-source-line="81" data-uid="lnk19" id="link_Company_User"><path codeLine="81" d="M911.13,633.15 C911.13,612.72 911.13,598.24 911.13,579.93" fill="none" id="Company-to-User-1" style="stroke:#181818;stroke-width:1;"/><polygon fill="#181818" points="911.13,573.93,907.13,582.93,911.13,578.93,915.13,582.93,911.13,573.93" style="stroke:#181818;stroke-width:1;"/><text fill="#000000" font-family="sans-serif" font-size="13" lengthAdjust="spacing" textLength="6.5" x="902.6662" y="622.6497">*</text><text fill="#000000" font-family="sans-serif" font-size="13" lengthAdjust="spacing" textLength="8.271" x="898.6203" y="593.6279">1</text></g><!--link Company to User--><g class="link" data-entity-1="Company" data-entity-2="User" data-source-line="82" data-uid="lnk20" id="link_Company_User"><path codeLine="82" d="M990.87,633.15 C990.87,612.72 990.87,598.24 990.87,579.93" fill="none" id="Company-to-User-2" style="stroke:#181818;stroke-width:1;"/><polygon fill="#181818" points="990.87,573.93,986.87,582.93,990.87,578.93,994.87,582.93,990.87,573.93" style="stroke:#181818;stroke-width:1;"/><text fill="#000000" font-family="sans-serif" font-size="13" lengthAdjust="spacing" textLength="6.5" x="987.0162" y="622.6497">*</text><text fill="#000000" font-family="sans-serif" font-size="13" lengthAdjust="spacing" textLength="8.271" x="986.5835" y="593.6279">1</text></g><!--link User to Company--><g class="link" data-entity-1="User" data-entity-2="Company" data-source-line="95" data-uid="lnk33" id="link_User_Company"><path codeLine="95" d="M1070.6,573.93 C1070.6,592.23 1070.6,612.7 1070.6,633.12" fill="none" id="User-Company" style="stroke:#181818;stroke-width:1;"/><text fill="#000000" font-family="sans-serif" font-size="13" lengthAdjust="spacing" textLength="6.5" x="1076.6506" y="593.6279">*</text><text fill="#000000" font-family="sans-serif" font-size="13" lengthAdjust="spacing" textLength="8.271" x="1069.2911" y="622.618">1</text></g><!--link Company to CompanyGroup--><g class="link" data-entity-1="Company" data-entity-2="CompanyGroup" data-source-line="83" data-uid="lnk21" id="link_Company_CompanyGroup"><path codeLine="83" d="M751.29,797.69 C500.18,797.69 101.51,797.69 101.51,797.69 C101.51,797.69 101.51,454.27 101.51,332.87" fill="none" id="Company-CompanyGroup" style="stroke:#181818;stroke-width:1;"/><text fill="#000000" font-family="sans-serif" font-size="13" lengthAdjust="spacing" textLength="6.5" x="737.3815" y="796.0713">*</text><text fill="#000000" font-family="sans-serif" font-size="13" lengthAdjust="spacing" textLength="8.271" x="74.6219" y="352.5109">1</text></g><!--link Module to User--><g class="link" data-entity-1="Module" data-entity-2="User" data-source-line="84" data-uid="lnk22" id="link_Module_User"><path codeLine="84" d="M1463.91,332.66 C1463.91,386.86 1463.91,474.69 1463.91,474.69 C1463.91,474.69 1323.02,474.69 1186.45,474.69" fill="none" id="Module-to-User" style="stroke:#181818;stroke-width:1;"/><polygon fill="#181818" points="1180.45,474.69,1189.45,478.69,1185.45,474.69,1189.45,470.69,1180.45,474.69" style="stroke:#181818;stroke-width:1;"/><text fill="#000000" font-family="sans-serif" font-size="13" lengthAdjust="spacing" textLength="6.5" x="1440.0854" y="352.5765">*</text><text fill="#000000" font-family="sans-serif" font-size="13" lengthAdjust="spacing" textLength="8.271" x="1188.1147" y="470.4364">1</text></g><!--link Module to User--><g class="link" data-entity-1="Module" data-entity-2="User" data-source-line="85" data-uid="lnk23" id="link_Module_User"><path codeLine="85" d="M1573,333.01 C1573,396.04 1573,507.69 1573,507.69 C1573,507.69 1363.67,507.69 1186.4,507.69" fill="none" id="Module-to-User-1" style="stroke:#181818;stroke-width:1;"/><polygon fill="#181818" points="1180.4,507.69,1189.4,511.69,1185.4,507.69,1189.4,503.69,1180.4,507.69" style="stroke:#181818;stroke-width:1;"/><text fill="#000000" font-family="sans-serif" font-size="13" lengthAdjust="spacing" textLength="6.5" x="1566.5788" y="352.6723">*</text><text fill="#000000" font-family="sans-serif" font-size="13" lengthAdjust="spacing" textLength="8.271" x="1188.063" y="504.5192">1</text></g><!--link Module to User--><g class="link" data-entity-1="Module" data-entity-2="User" data-source-line="86" data-uid="lnk24" id="link_Module_User"><path codeLine="86" d="M1682.09,333.05 C1682.09,404.22 1682.09,540.69 1682.09,540.69 C1682.09,540.69 1400.94,540.69 1186.57,540.69" fill="none" id="Module-to-User-2" style="stroke:#181818;stroke-width:1;"/><polygon fill="#181818" points="1180.57,540.69,1189.57,544.69,1185.57,540.69,1189.57,536.69,1180.57,540.69" style="stroke:#181818;stroke-width:1;"/><text fill="#000000" font-family="sans-serif" font-size="13" lengthAdjust="spacing" textLength="6.5" x="1692.3732" y="352.7184">*</text><text fill="#000000" font-family="sans-serif" font-size="13" lengthAdjust="spacing" textLength="8.271" x="1188.2386" y="538.6021">1</text></g><!--link Project to User--><g class="link" data-entity-1="Project" data-entity-2="User" data-source-line="87" data-uid="lnk25" id="link_Project_User"><path codeLine="87" d="M728.91,365.49 C728.91,390.07 728.91,411.24 728.91,435.18" fill="none" id="Project-to-User" style="stroke:#181818;stroke-width:1;"/><polygon fill="#181818" points="728.91,441.18,732.91,432.18,728.91,436.18,724.91,432.18,728.91,441.18" style="stroke:#181818;stroke-width:1;"/><text fill="#000000" font-family="sans-serif" font-size="13" lengthAdjust="spacing" textLength="6.5" x="733.9869" y="385.1245">*</text><text fill="#000000" font-family="sans-serif" font-size="13" lengthAdjust="spacing" textLength="8.271" x="705.729" y="433.2916">1</text></g><!--link Project to User--><g class="link" data-entity-1="Project" data-entity-2="User" data-source-line="88" data-uid="lnk26" id="link_Project_User"><path codeLine="88" d="M735.97,365.49 C735.97,390.07 735.97,411.24 735.97,435.18" fill="none" id="Project-to-User-1" style="stroke:#181818;stroke-width:1;"/><polygon fill="#181818" points="735.97,441.18,739.97,432.18,735.97,436.18,731.97,432.18,735.97,441.18" style="stroke:#181818;stroke-width:1;"/><text fill="#000000" font-family="sans-serif" font-size="13" lengthAdjust="spacing" textLength="6.5" x="741.6977" y="385.1245">*</text><text fill="#000000" font-family="sans-serif" font-size="13" lengthAdjust="spacing" textLength="8.271" x="712.9039" y="430.1802">1</text></g><!--link Project to User--><g class="link" data-entity-1="Project" data-entity-2="User" data-source-line="89" data-uid="lnk27" id="link_Project_User"><path codeLine="89" d="M743.02,365.49 C743.02,390.07 743.02,411.24 743.02,435.18" fill="none" id="Project-to-User-2" style="stroke:#181818;stroke-width:1;"/><polygon fill="#181818" points="743.02,441.18,747.02,432.18,743.02,436.18,739.02,432.18,743.02,441.18" style="stroke:#181818;stroke-width:1;"/><text fill="#000000" font-family="sans-serif" font-size="13" lengthAdjust="spacing" textLength="6.5" x="749.3977" y="385.1245">*</text><text fill="#000000" font-family="sans-serif" font-size="13" lengthAdjust="spacing" textLength="8.271" x="720.725" y="430.1802">1</text></g><!--link Project to User--><g class="link" data-entity-1="Project" data-entity-2="User" data-source-line="90" data-uid="lnk28" id="link_Project_User"><path codeLine="90" d="M750.08,365.49 C750.08,390.07 750.08,417.24 750.08,441.18" fill="none" id="Project-User" style="stroke:#181818;stroke-width:1;"/><text fill="#000000" font-family="sans-serif" font-size="13" lengthAdjust="spacing" textLength="6.5" x="757.1085" y="385.1245">*</text><text fill="#000000" font-family="sans-serif" font-size="13" lengthAdjust="spacing" textLength="8.271" x="728.5572" y="430.1802">1</text></g><!--link Project to Company--><g class="link" data-entity-1="Project" data-entity-2="Company" data-source-line="91" data-uid="lnk29" id="link_Project_Company"><path codeLine="91" d="M588.36,365.44 C588.36,487.25 588.36,715.69 588.36,715.69 C588.36,715.69 667.21,715.69 751.38,715.69" fill="none" id="Project-Company" style="stroke:#181818;stroke-width:1;"/><text fill="#000000" font-family="sans-serif" font-size="13" lengthAdjust="spacing" textLength="6.5" x="580.4162" y="385.3262">*</text><text fill="#000000" font-family="sans-serif" font-size="13" lengthAdjust="spacing" textLength="8.271" x="735.4315" y="710.8682">1</text></g><!--link User to User--><g class="link" data-entity-1="User" data-entity-2="User" data-source-line="92" data-uid="lnk30" id="link_User_User"><path codeLine="92" d="M1175.08,441.14 C1175.08,432.56 1175.08,426.69 1175.08,426.69 C1175.08,426.69 1214.94,426.69 1214.94,426.69 C1214.94,426.69 1214.94,588.69 1214.94,588.69 C1214.94,588.69 1172.69,588.69 1172.69,588.69 C1172.69,588.69 1172.69,588.62 1172.69,579.8" fill="none" id="User-to-User" style="stroke:#181818;stroke-width:1;"/><polygon fill="#181818" points="1172.69,573.8,1168.69,582.8,1172.69,578.8,1176.69,582.8,1172.69,573.8" style="stroke:#181818;stroke-width:1;"/><text fill="#000000" font-family="sans-serif" font-size="13" lengthAdjust="spacing" textLength="6.5" x="1188.1009" y="431.8653">*</text><text fill="#000000" font-family="sans-serif" font-size="13" lengthAdjust="spacing" textLength="8.271" x="1187.1537" y="593.4845">1</text></g><!--link User to User--><g class="link" data-entity-1="User" data-entity-2="User" data-source-line="93" data-uid="lnk31" id="link_User_User"><path codeLine="93" d="M1170.01,441.22 C1170.01,424.74 1170.01,411.69 1170.01,411.69 C1170.01,411.69 1249.73,411.69 1249.73,411.69 C1249.73,411.69 1249.73,603.69 1249.73,603.69 C1249.73,603.69 1165.24,603.69 1165.24,603.69 C1165.24,603.69 1165.24,596.44 1165.24,579.78" fill="none" id="User-to-User-1" style="stroke:#181818;stroke-width:1;"/><polygon fill="#181818" points="1165.24,573.78,1161.24,582.78,1165.24,578.78,1169.24,582.78,1165.24,573.78" style="stroke:#181818;stroke-width:1;"/><text fill="#000000" font-family="sans-serif" font-size="13" lengthAdjust="spacing" textLength="6.5" x="1187.6639" y="430.2246">*</text><text fill="#000000" font-family="sans-serif" font-size="13" lengthAdjust="spacing" textLength="8.271" x="1178.9354" y="593.4624">1</text></g><!--link User to User--><g class="link" data-entity-1="User" data-entity-2="User" data-source-line="94" data-uid="lnk32" id="link_User_User"><path codeLine="94" d="M1164.94,441.12 C1164.94,417.52 1164.94,396.69 1164.94,396.69 C1164.94,396.69 1284.53,396.69 1284.53,396.69 C1284.53,396.69 1284.53,618.69 1284.53,618.69 C1284.53,618.69 1157.79,618.69 1157.79,618.69 C1157.79,618.69 1157.79,603.6 1157.79,579.78" fill="none" id="User-to-User-2" style="stroke:#181818;stroke-width:1;"/><polygon fill="#181818" points="1157.79,573.78,1153.79,582.78,1157.79,578.78,1161.79,582.78,1157.79,573.78" style="stroke:#181818;stroke-width:1;"/><text fill="#000000" font-family="sans-serif" font-size="13" lengthAdjust="spacing" textLength="6.5" x="1180.7194" y="430.575">*</text><text fill="#000000" font-family="sans-serif" font-size="13" lengthAdjust="spacing" textLength="8.271" x="1170.7172" y="593.4624">1</text></g><!--link Address to User--><g class="link" data-entity-1="Address" data-entity-2="User" data-source-line="96" data-uid="lnk34" id="link_Address_User"><path codeLine="96" d="M1149.74,349.28 C1149.74,377.59 1149.74,405.73 1149.74,435.04" fill="none" id="Address-to-User" style="stroke:#181818;stroke-width:1;"/><polygon fill="#181818" points="1149.74,441.04,1153.74,432.04,1149.74,436.04,1145.74,432.04,1149.74,441.04" style="stroke:#181818;stroke-width:1;"/><text fill="#000000" font-family="sans-serif" font-size="13" lengthAdjust="spacing" textLength="6.5" x="1133.9103" y="368.9638">*</text><text fill="#000000" font-family="sans-serif" font-size="13" lengthAdjust="spacing" textLength="8.271" x="1161.837" y="430.4867">1</text></g><!--link Address to User--><g class="link" data-entity-1="Address" data-entity-2="User" data-source-line="97" data-uid="lnk35" id="link_Address_User"><path codeLine="97" d="M1154.81,349.28 C1154.81,377.59 1154.81,405.73 1154.81,435.04" fill="none" id="Address-to-User-1" style="stroke:#181818;stroke-width:1;"/><polygon fill="#181818" points="1154.81,441.04,1158.81,432.04,1154.81,436.04,1150.81,432.04,1154.81,441.04" style="stroke:#181818;stroke-width:1;"/><text fill="#000000" font-family="sans-serif" font-size="13" lengthAdjust="spacing" textLength="6.5" x="1146.2603" y="368.9638">*</text><text fill="#000000" font-family="sans-serif" font-size="13" lengthAdjust="spacing" textLength="8.271" x="1167.4298" y="430.4867">1</text></g><!--link Address to User--><g class="link" data-entity-1="Address" data-entity-2="User" data-source-line="98" data-uid="lnk36" id="link_Address_User"><path codeLine="98" d="M1159.88,349.28 C1159.88,377.59 1159.88,405.73 1159.88,435.04" fill="none" id="Address-to-User-2" style="stroke:#181818;stroke-width:1;"/><polygon fill="#181818" points="1159.88,441.04,1163.88,432.04,1159.88,436.04,1155.88,432.04,1159.88,441.04" style="stroke:#181818;stroke-width:1;"/><text fill="#000000" font-family="sans-serif" font-size="13" lengthAdjust="spacing" textLength="6.5" x="1151.9165" y="368.9638">*</text><text fill="#000000" font-family="sans-serif" font-size="13" lengthAdjust="spacing" textLength="8.271" x="1173.0227" y="430.4867">1</text></g><!--link UserModulePermission to User--><g class="link" data-entity-1="UserModulePermission" data-entity-2="User" data-source-line="99" data-uid="lnk37" id="link_UserModulePermission_User"><path codeLine="99" d="M1553.48,61.69 C1383.62,61.69 1116.85,61.69 1116.85,61.69 C1116.85,61.69 1116.85,311.05 1116.85,435.23" fill="none" id="UserModulePermission-to-User" style="stroke:#181818;stroke-width:1;"/><polygon fill="#181818" points="1116.85,441.23,1120.85,432.23,1116.85,436.23,1112.85,432.23,1116.85,441.23" style="stroke:#181818;stroke-width:1;"/><text fill="#000000" font-family="sans-serif" font-size="13" lengthAdjust="spacing" textLength="6.5" x="1539.3708" y="56.6476">*</text><text fill="#000000" font-family="sans-serif" font-size="13" lengthAdjust="spacing" textLength="8.271" x="1126.5677" y="430.2357">1</text></g><!--link UserModulePermission to User--><g class="link" data-entity-1="UserModulePermission" data-entity-2="User" data-source-line="100" data-uid="lnk38" id="link_UserModulePermission_User"><path codeLine="100" d="M1553.7,81.69 C1385.84,81.69 1123.81,81.69 1123.81,81.69 C1123.81,81.69 1123.81,315.21 1123.81,434.96" fill="none" id="UserModulePermission-to-User-1" style="stroke:#181818;stroke-width:1;"/><polygon fill="#181818" points="1123.81,440.96,1127.81,431.96,1123.81,435.96,1119.81,431.96,1123.81,440.96" style="stroke:#181818;stroke-width:1;"/><text fill="#000000" font-family="sans-serif" font-size="13" lengthAdjust="spacing" textLength="6.5" x="1539.1659" y="77.7523">*</text><text fill="#000000" font-family="sans-serif" font-size="13" lengthAdjust="spacing" textLength="8.271" x="1142.058" y="430.3985">1</text></g><!--link UserModulePermission to User--><g class="link" data-entity-1="UserModulePermission" data-entity-2="User" data-source-line="101" data-uid="lnk39" id="link_UserModulePermission_User"><path codeLine="101" d="M1553.59,101.69 C1387.72,101.69 1130.76,101.69 1130.76,101.69 C1130.76,101.69 1130.76,320.4 1130.76,435.39" fill="none" id="UserModulePermission-to-User-2" style="stroke:#181818;stroke-width:1;"/><polygon fill="#181818" points="1130.76,441.39,1134.76,432.39,1130.76,436.39,1126.76,432.39,1130.76,441.39" style="stroke:#181818;stroke-width:1;"/><text fill="#000000" font-family="sans-serif" font-size="13" lengthAdjust="spacing" textLength="6.5" x="1539.4872" y="98.9601">*</text><text fill="#000000" font-family="sans-serif" font-size="13" lengthAdjust="spacing" textLength="8.271" x="1150.8741" y="430.4132">1</text></g><!--link UserModulePermission to User--><g class="link" data-entity-1="UserModulePermission" data-entity-2="User" data-source-line="102" data-uid="lnk40" id="link_UserModulePermission_User"><path codeLine="102" d="M1553.52,120.69 C1389.66,120.69 1137.72,120.69 1137.72,120.69 C1137.72,120.69 1137.72,330.41 1137.72,441" fill="none" id="UserModulePermission-User" style="stroke:#181818;stroke-width:1;"/><text fill="#000000" font-family="sans-serif" font-size="13" lengthAdjust="spacing" textLength="6.5" x="1539.4131" y="119.0585">*</text><text fill="#000000" font-family="sans-serif" font-size="13" lengthAdjust="spacing" textLength="8.271" x="1188.0066" y="434.2821">1</text></g><!--link UserModulePermission to Module--><g class="link" data-entity-1="UserModulePermission" data-entity-2="Module" data-source-line="103" data-uid="lnk41" id="link_UserModulePermission_Module"><path codeLine="103" d="M1672.53,140.75 C1672.53,174.11 1672.53,217.47 1672.53,249.03" fill="none" id="UserModulePermission-Module" style="stroke:#181818;stroke-width:1;"/><text fill="#000000" font-family="sans-serif" font-size="13" lengthAdjust="spacing" textLength="6.5" x="1663.679" y="160.5534">*</text><text fill="#000000" font-family="sans-serif" font-size="13" lengthAdjust="spacing" textLength="8.271" x="1679.7766" y="238.2274">1</text></g><!--SRC=[rLLDRzD04BtxLspJ6r8aAd6g12XDAzH3f0Y8UY2esdYdoTBzqkuOQgB-TsRjf7OTEmgaWN2ATpvstinximc0B83ZdgFrRCgI4-VvN7EM1RWs25w3a1nXpDDxFeV0xhWAa8HxQMAIPaeQmDm1inuNjkOOIJDKF8GRAN31pjwyJXPI04kbJnMKtw0Tvao3de4FoGakG0ExDTR0RPB6N3PmRdfbK68-7LhjkCa_U9ivjapwp72AFcS1lJHpEgTMnFFxqi3UCfCfLTXZeYJiv-pIfj4ByJPj3Vqe1IbAQqBjEtdSB3-OqRqynV9O090YblkKwpjhIdo4tE1q8iLqaf7t2GBboUyHtCnQHMRq6IIdJ8021370TUGfIptmXYbpuhc9MhTOjBFPQvb-aLUcLNhTjAfRcHuxnzqwwNY-Ua0mWOPLTz07aA1QWFsKhXLld6KhPvb1dmyxA7KBcdHh7YZLPizygnaqbwfRCoknaRzBXnKYRx-HU7v3Ox6wKpQ7FOKviY9JqCeJmaCh6RJRVaohBKCaSB_ouxBnedv0ZbcXIscmBhUGUkcm5Ci6cYPgkiMNUgVWIzBkPwdXMkiC-OmQhSWpOeSeWYld1g31ueH6KADRILhSTgAtx4XnoNARZhnL1RtSUnvl-l8rQeMk-M6zQ5Ns7-Xe9TRjyFjC5q9vATu7GdWWq_9mQ__ilQdE7KIC6kqLo59kFW8NrSjR_dqLZXil4JOzSJcsYgMSOoDajOLFMkbwC7glUgpVVyTwPxrc0_yYf_6lTeHPQnaVONWpkav0igcD7MiSCdhzM1zX-7xHgz4dpQNT4SfVYDq1yVf9tNMV3XhU-gJ-lxalc5g6_G80]--></g></svg>